<?xml version="1.0" encoding="utf-8" standalone="no"?>
<!DOCTYPE svg PUBLIC "-//W3C//DTD SVG 1.1//EN"
  "http://www.w3.org/Graphics/SVG/1.1/DTD/svg11.dtd">
<svg xmlns:xlink="http://www.w3.org/1999/xlink" width="648pt" height="270pt" viewBox="0 0 648 270" xmlns="http://www.w3.org/2000/svg" version="1.1">
 <metadata>
  <rdf:RDF xmlns:dc="http://purl.org/dc/elements/1.1/" xmlns:cc="http://creativecommons.org/ns#" xmlns:rdf="http://www.w3.org/1999/02/22-rdf-syntax-ns#">
   <cc:Work>
    <dc:type rdf:resource="http://purl.org/dc/dcmitype/StillImage"/>
    <dc:date>2023-04-17T11:38:24.548457</dc:date>
    <dc:format>image/svg+xml</dc:format>
    <dc:creator>
     <cc:Agent>
      <dc:title>Matplotlib v3.6.3, https://matplotlib.org/</dc:title>
     </cc:Agent>
    </dc:creator>
   </cc:Work>
  </rdf:RDF>
 </metadata>
 <defs>
  <style type="text/css">*{stroke-linejoin: round; stroke-linecap: butt}</style>
 </defs>
 <g id="figure_1">
  <g id="patch_1">
   <path d="M 0 270 
L 648 270 
L 648 0 
L 0 0 
L 0 270 
z
" style="fill: none"/>
  </g>
  <g id="axes_1">
   <g id="patch_2">
    <path d="M 60.085 218.04 
L 317.52 218.04 
L 317.52 12.96 
L 60.085 12.96 
z
" style="fill: #ffffff"/>
   </g>
   <g id="PolyCollection_1">
    <defs>
     <path id="m494d59b688" d="M 60.085 -249.014541 
L 60.085 -245.326295 
L 60.879552 -247.786313 
L 61.674105 -245.222258 
L 62.468657 -247.538065 
L 63.26321 -246.405912 
L 64.057762 -246.114231 
L 64.852315 -245.747486 
L 65.646867 -246.655923 
L 66.44142 -245.225858 
L 67.235972 -241.972152 
L 68.030525 -247.49194 
L 68.825077 -244.186878 
L 69.61963 -249.293528 
L 70.414182 -221.659935 
L 71.208735 -247.759772 
L 72.003287 -242.951821 
L 72.79784 -246.412742 
L 73.592392 -244.234105 
L 74.386944 -244.415935 
L 75.181497 -241.603656 
L 75.976049 -251.404409 
L 76.770602 -247.997048 
L 77.565154 -248.16476 
L 78.359707 -249.004037 
L 79.154259 -245.450137 
L 79.948812 -239.887709 
L 80.028267 -234.733981 
L 80.107722 -232.682514 
L 80.187177 -230.852062 
L 80.266633 -227.817842 
L 80.346088 -231.896526 
L 80.425543 -230.044297 
L 80.504998 -232.324541 
L 80.584454 -232.605723 
L 80.663909 -235.149769 
L 80.743364 -233.355921 
L 80.822819 -235.077726 
L 80.902275 -235.071627 
L 80.98173 -233.928006 
L 81.061185 -235.128904 
L 81.14064 -235.979731 
L 81.220096 -237.381903 
L 81.299551 -235.501457 
L 81.379006 -234.090282 
L 81.458461 -238.53235 
L 79.948812 -239.887709 
L 80.743364 -233.355921 
L 81.537917 -234.734983 
L 82.332469 -233.997143 
L 83.127022 -234.504547 
L 83.921574 -234.52827 
L 84.716127 -239.069906 
L 85.510679 -233.608642 
L 86.305231 -240.497402 
L 87.099784 -240.942874 
L 87.894336 -236.952394 
L 88.688889 -236.22807 
L 89.483441 -234.27602 
L 90.277994 -239.768953 
L 91.072546 -237.830288 
L 91.867099 -237.578178 
L 92.661651 -237.114103 
L 93.456204 -240.41876 
L 94.250756 -240.150545 
L 95.045309 -242.213817 
L 95.839861 -240.374549 
L 96.634414 -241.22854 
L 97.428966 -243.246895 
L 98.223519 -238.501515 
L 99.018071 -240.981608 
L 99.812623 -234.395091 
L 100.607176 -243.69808 
L 101.401728 -241.284302 
L 102.196281 -242.89264 
L 102.990833 -238.364508 
L 103.785386 -244.653997 
L 104.579938 -237.173561 
L 105.374491 -244.128333 
L 106.169043 -242.012194 
L 106.963596 -242.634436 
L 107.758148 -237.17572 
L 108.552701 -245.74858 
L 109.347253 -244.480503 
L 110.141806 -232.808316 
L 110.936358 -239.756297 
L 111.73091 -239.286352 
L 112.525463 -243.011926 
L 113.320015 -242.705601 
L 114.114568 -244.109725 
L 114.90912 -242.379674 
L 115.703673 -240.353485 
L 116.498225 -242.185366 
L 117.292778 -247.577671 
L 118.08733 -241.475574 
L 118.881883 -243.025183 
L 119.676435 -244.373803 
L 120.470988 -244.464899 
L 121.26554 -244.03403 
L 122.060093 -245.121763 
L 122.854645 -245.220273 
L 123.649198 -241.429908 
L 124.44375 -240.214896 
L 125.238302 -247.151494 
L 126.032855 -244.522105 
L 126.827407 -240.239976 
L 127.62196 -245.327381 
L 128.416512 -245.529221 
L 129.211065 -244.255695 
L 130.005617 -241.10577 
L 130.80017 -239.566012 
L 131.594722 -243.081713 
L 132.389275 -243.230539 
L 133.183827 -242.146823 
L 133.97838 -239.879055 
L 134.772932 -245.462432 
L 135.567485 -246.629508 
L 136.362037 -240.522756 
L 137.15659 -246.492394 
L 137.951142 -244.540523 
L 138.745694 -245.082018 
L 139.540247 -241.682325 
L 140.334799 -245.699173 
L 141.129352 -247.807484 
L 141.923904 -243.153119 
L 142.718457 -240.04837 
L 143.513009 -245.13476 
L 144.307562 -243.449773 
L 145.102114 -240.996596 
L 145.896667 -242.607782 
L 146.691219 -244.240611 
L 147.485772 -246.173643 
L 148.280324 -246.241782 
L 149.074877 -241.878008 
L 149.869429 -242.977376 
L 150.663981 -246.733693 
L 151.458534 -245.345407 
L 152.253086 -243.266701 
L 153.047639 -244.949946 
L 153.842191 -244.31382 
L 154.636744 -243.030776 
L 155.431296 -245.265826 
L 156.225849 -244.071261 
L 157.020401 -246.670857 
L 157.814954 -243.309744 
L 158.609506 -246.835449 
L 159.404059 -246.390057 
L 160.198611 -244.629712 
L 160.993164 -244.855146 
L 161.787716 -246.79456 
L 162.582269 -247.925834 
L 163.376821 -243.791096 
L 164.171373 -244.669584 
L 164.965926 -243.706907 
L 165.760478 -240.491011 
L 166.555031 -246.463821 
L 167.349583 -240.548436 
L 168.144136 -240.526127 
L 168.938688 -243.989056 
L 169.733241 -245.769985 
L 170.527793 -244.926759 
L 171.322346 -243.019479 
L 172.116898 -248.334728 
L 172.911451 -244.96949 
L 173.706003 -246.983151 
L 174.500556 -249.125198 
L 175.295108 -244.749097 
L 176.08966 -247.062755 
L 176.884213 -240.984517 
L 177.678765 -244.157439 
L 178.473318 -243.70603 
L 179.26787 -245.841241 
L 180.062423 -241.683189 
L 180.856975 -245.889148 
L 181.651528 -245.02715 
L 182.44608 -242.32388 
L 183.240633 -244.574083 
L 184.035185 -244.030722 
L 184.829738 -247.58789 
L 185.62429 -241.052238 
L 186.418843 -246.551696 
L 187.213395 -241.830367 
L 188.007948 -250.650392 
L 188.8025 -241.764486 
L 189.597052 -247.655691 
L 190.391605 -240.792732 
L 191.186157 -250.415983 
L 191.98071 -244.448218 
L 192.775262 -245.360896 
L 193.569815 -245.878823 
L 194.364367 -247.441404 
L 195.15892 -246.980116 
L 195.953472 -244.902895 
L 196.748025 -244.431655 
L 197.542577 -245.19868 
L 198.33713 -247.881556 
L 199.131682 -249.873595 
L 199.926235 -246.95581 
L 200.720787 -241.008869 
L 201.51534 -245.918871 
L 202.309892 -247.578128 
L 203.104444 -246.043351 
L 203.898997 -247.624471 
L 204.693549 -240.091361 
L 205.488102 -240.175764 
L 206.282654 -249.667867 
L 207.077207 -244.032473 
L 207.871759 -244.63627 
L 208.666312 -245.528885 
L 209.460864 -243.915521 
L 210.255417 -248.282533 
L 211.049969 -241.207753 
L 211.844522 -251.286449 
L 212.639074 -243.346997 
L 213.433627 -248.67759 
L 214.228179 -244.140796 
L 215.022731 -244.778413 
L 215.817284 -244.127696 
L 216.611836 -243.814627 
L 217.406389 -241.732103 
L 218.200941 -244.773098 
L 218.995494 -244.654431 
L 219.790046 -246.651213 
L 220.584599 -237.899202 
L 221.379151 -238.336327 
L 222.173704 -246.69357 
L 222.968256 -247.27846 
L 223.762809 -247.699408 
L 224.557361 -247.312478 
L 225.351914 -243.024407 
L 226.146466 -250.017686 
L 226.941019 -245.927257 
L 227.735571 -243.731772 
L 228.530123 -243.645657 
L 229.324676 -245.077155 
L 230.119228 -243.536596 
L 230.913781 -243.455929 
L 231.708333 -244.582915 
L 232.502886 -242.609085 
L 233.297438 -248.369072 
L 234.091991 -250.172853 
L 234.886543 -242.846066 
L 235.681096 -242.416607 
L 236.475648 -246.920535 
L 237.270201 -243.617625 
L 238.064753 -250.618413 
L 238.859306 -240.066736 
L 239.653858 -241.787651 
L 240.44841 -247.891454 
L 241.242963 -242.076884 
L 242.037515 -242.673279 
L 242.832068 -242.937556 
L 243.62662 -242.278454 
L 244.421173 -244.925911 
L 245.215725 -243.839088 
L 246.010278 -248.162117 
L 246.80483 -247.431854 
L 247.599383 -244.472003 
L 248.393935 -245.2113 
L 249.188488 -246.542488 
L 249.98304 -247.840452 
L 250.777593 -244.178423 
L 251.572145 -246.178672 
L 252.366698 -246.644134 
L 253.16125 -242.758043 
L 253.955802 -241.413498 
L 254.750355 -247.205457 
L 255.544907 -248.997492 
L 256.33946 -240.461129 
L 257.134012 -247.968976 
L 257.928565 -246.342047 
L 258.723117 -247.273478 
L 259.51767 -246.565984 
L 260.312222 -244.367232 
L 261.106775 -245.152547 
L 261.901327 -245.487573 
L 262.69588 -242.380663 
L 263.490432 -245.380951 
L 264.284985 -243.024633 
L 265.079537 -241.8483 
L 265.87409 -243.928111 
L 266.668642 -244.788757 
L 267.463194 -245.716605 
L 268.257747 -242.560973 
L 269.052299 -243.161121 
L 269.846852 -243.066442 
L 270.641404 -241.382653 
L 271.435957 -248.300178 
L 272.230509 -245.494172 
L 273.025062 -246.273216 
L 273.819614 -246.034159 
L 274.614167 -246.112887 
L 275.408719 -244.041077 
L 276.203272 -237.609057 
L 276.997824 -240.77161 
L 277.792377 -244.610217 
L 278.586929 -245.857372 
L 279.381481 -243.987389 
L 280.176034 -241.961347 
L 280.970586 -247.993115 
L 281.765139 -243.551809 
L 282.559691 -239.198588 
L 283.354244 -242.832076 
L 284.148796 -249.509154 
L 284.943349 -245.628985 
L 285.737901 -241.658036 
L 286.532454 -245.349157 
L 287.327006 -248.605313 
L 288.121559 -249.208309 
L 288.916111 -240.634256 
L 289.710664 -246.064729 
L 290.505216 -243.919774 
L 291.299769 -245.258214 
L 292.094321 -243.732409 
L 292.888873 -243.298998 
L 293.683426 -243.968428 
L 294.477978 -249.411174 
L 295.272531 -239.483592 
L 296.067083 -246.715458 
L 296.861636 -243.701677 
L 297.656188 -239.225384 
L 298.450741 -243.912328 
L 299.245293 -240.892918 
L 300.039846 -240.940367 
L 300.834398 -244.992747 
L 301.628951 -244.954726 
L 302.423503 -243.743038 
L 303.218056 -238.527528 
L 304.012608 -240.666612 
L 304.80716 -248.167001 
L 305.601713 -241.654007 
L 306.396265 -245.978541 
L 307.190818 -246.386205 
L 307.98537 -240.936055 
L 308.779923 -242.591049 
L 309.574475 -242.218636 
L 310.369028 -245.956629 
L 311.16358 -245.146996 
L 311.958133 -244.447813 
L 312.752685 -244.779567 
L 313.547238 -240.625238 
L 314.34179 -246.854515 
L 315.136343 -245.044749 
L 315.930895 -245.772147 
L 316.725448 -246.643498 
L 317.52 -245.442091 
L 317.52 -251.814711 
L 317.52 -251.814711 
L 316.725448 -251.000159 
L 315.930895 -250.542038 
L 315.136343 -253.140245 
L 314.34179 -252.149813 
L 313.547238 -246.79223 
L 312.752685 -253.195389 
L 311.958133 -250.42846 
L 311.16358 -248.099955 
L 310.369028 -251.543361 
L 309.574475 -249.776728 
L 308.779923 -247.964449 
L 307.98537 -247.902114 
L 307.190818 -249.679279 
L 306.396265 -250.297451 
L 305.601713 -246.55872 
L 304.80716 -252.525583 
L 304.012608 -244.86682 
L 303.218056 -244.800523 
L 302.423503 -248.73366 
L 301.628951 -248.254306 
L 300.834398 -248.877037 
L 300.039846 -246.565842 
L 299.245293 -245.284407 
L 298.450741 -248.086856 
L 297.656188 -244.54913 
L 296.861636 -248.002227 
L 296.067083 -249.234943 
L 295.272531 -245.263245 
L 294.477978 -253.091761 
L 293.683426 -248.454414 
L 292.888873 -248.113936 
L 292.094321 -249.099556 
L 291.299769 -250.14911 
L 290.505216 -250.621513 
L 289.710664 -249.814933 
L 288.916111 -246.0403 
L 288.121559 -252.597104 
L 287.327006 -252.1425 
L 286.532454 -249.458465 
L 285.737901 -246.948451 
L 284.943349 -249.984417 
L 284.148796 -253.105048 
L 283.354244 -251.390026 
L 282.559691 -245.820142 
L 281.765139 -249.213989 
L 280.970586 -251.739499 
L 280.176034 -246.067654 
L 279.381481 -249.072842 
L 278.586929 -250.447651 
L 277.792377 -250.590288 
L 276.997824 -245.811642 
L 276.203272 -243.51786 
L 275.408719 -249.838093 
L 274.614167 -250.817535 
L 273.819614 -251.747607 
L 273.025062 -250.68166 
L 272.230509 -248.733808 
L 271.435957 -252.650208 
L 270.641404 -249.568172 
L 269.846852 -247.462374 
L 269.052299 -249.178226 
L 268.257747 -249.992125 
L 267.463194 -251.597639 
L 266.668642 -250.618916 
L 265.87409 -247.486907 
L 265.079537 -247.683203 
L 264.284985 -249.548425 
L 263.490432 -249.380968 
L 262.69588 -247.419915 
L 261.901327 -248.574937 
L 261.106775 -248.460994 
L 260.312222 -250.75113 
L 259.51767 -251.625649 
L 258.723117 -252.140182 
L 257.928565 -249.494513 
L 257.134012 -252.890548 
L 256.33946 -246.254577 
L 255.544907 -252.325951 
L 254.750355 -250.09509 
L 253.955802 -245.643215 
L 253.16125 -247.769471 
L 252.366698 -251.242944 
L 251.572145 -252.049726 
L 250.777593 -250.337147 
L 249.98304 -251.247052 
L 249.188488 -249.390735 
L 248.393935 -248.879433 
L 247.599383 -248.52491 
L 246.80483 -251.232108 
L 246.010278 -252.365851 
L 245.215725 -248.411489 
L 244.421173 -250.041544 
L 243.62662 -246.953673 
L 242.832068 -250.075517 
L 242.037515 -245.357028 
L 241.242963 -245.675137 
L 240.44841 -251.163631 
L 239.653858 -248.215689 
L 238.859306 -247.536437 
L 238.064753 -253.685904 
L 237.270201 -248.754626 
L 236.475648 -250.402278 
L 235.681096 -247.002804 
L 234.886543 -248.151375 
L 234.091991 -254.206384 
L 233.297438 -253.46402 
L 232.502886 -248.38526 
L 231.708333 -249.609939 
L 230.913781 -247.659174 
L 230.119228 -246.870582 
L 229.324676 -250.111926 
L 228.530123 -247.31178 
L 227.735571 -248.637687 
L 226.941019 -248.53159 
L 226.146466 -252.864756 
L 225.351914 -252.887978 
L 224.557361 -252.691765 
L 223.762809 -250.952511 
L 222.968256 -251.019725 
L 222.173704 -249.681126 
L 221.379151 -245.759617 
L 220.584599 -245.68202 
L 219.790046 -251.547813 
L 218.995494 -248.620856 
L 218.200941 -248.519485 
L 217.406389 -247.02141 
L 216.611836 -249.292243 
L 215.817284 -250.333224 
L 215.022731 -250.308567 
L 214.228179 -249.26065 
L 213.433627 -251.400672 
L 212.639074 -247.648702 
L 211.844522 -254.796004 
L 211.049969 -246.533886 
L 210.255417 -253.519929 
L 209.460864 -247.429736 
L 208.666312 -250.687134 
L 207.871759 -249.438697 
L 207.077207 -250.181423 
L 206.282654 -252.295567 
L 205.488102 -245.765284 
L 204.693549 -245.617162 
L 203.898997 -252.118682 
L 203.104444 -249.901128 
L 202.309892 -252.651872 
L 201.51534 -250.114068 
L 200.720787 -246.725316 
L 199.926235 -251.193769 
L 199.131682 -252.766447 
L 198.33713 -251.47128 
L 197.542577 -249.304561 
L 196.748025 -250.268884 
L 195.953472 -251.143476 
L 195.15892 -253.085488 
L 194.364367 -252.313005 
L 193.569815 -249.29994 
L 192.775262 -251.620508 
L 191.98071 -249.047165 
L 191.186157 -254.759345 
L 190.391605 -245.783308 
L 189.597052 -252.369649 
L 188.8025 -247.320644 
L 188.007948 -255.355235 
L 187.213395 -246.955443 
L 186.418843 -250.985178 
L 185.62429 -247.784557 
L 184.829738 -250.537082 
L 184.035185 -249.658041 
L 183.240633 -250.001374 
L 182.44608 -247.469215 
L 181.651528 -250.602125 
L 180.856975 -249.635779 
L 180.062423 -245.169714 
L 179.26787 -250.76454 
L 178.473318 -249.451731 
L 177.678765 -250.296128 
L 176.884213 -248.162206 
L 176.08966 -249.479293 
L 175.295108 -249.534351 
L 174.500556 -252.441971 
L 173.706003 -250.422518 
L 172.911451 -247.622063 
L 172.116898 -251.762083 
L 171.322346 -247.554655 
L 170.527793 -248.244249 
L 169.733241 -249.796617 
L 168.938688 -249.552416 
L 168.144136 -246.262936 
L 167.349583 -246.05468 
L 166.555031 -250.688865 
L 165.760478 -244.737292 
L 164.965926 -248.608579 
L 164.171373 -248.302604 
L 163.376821 -247.643643 
L 162.582269 -250.980994 
L 161.787716 -249.744101 
L 160.993164 -248.868363 
L 160.198611 -249.218977 
L 159.404059 -250.518974 
L 158.609506 -251.207337 
L 157.814954 -248.852152 
L 157.020401 -251.753023 
L 156.225849 -247.553182 
L 155.431296 -248.094492 
L 154.636744 -247.753153 
L 153.842191 -247.944945 
L 153.047639 -250.911105 
L 152.253086 -249.043462 
L 151.458534 -247.930011 
L 150.663981 -251.544167 
L 149.869429 -250.809643 
L 149.074877 -248.100681 
L 148.280324 -252.437428 
L 147.485772 -250.256104 
L 146.691219 -250.183528 
L 145.896667 -246.216548 
L 145.102114 -246.84712 
L 144.307562 -245.651152 
L 143.513009 -248.159911 
L 142.718457 -244.659653 
L 141.923904 -249.437788 
L 141.129352 -250.846629 
L 140.334799 -249.687285 
L 139.540247 -247.123983 
L 138.745694 -248.426329 
L 137.951142 -247.618463 
L 137.15659 -251.117652 
L 136.362037 -244.571446 
L 135.567485 -250.87172 
L 134.772932 -249.601247 
L 133.97838 -245.663311 
L 133.183827 -248.674864 
L 132.389275 -246.82054 
L 131.594722 -249.337325 
L 130.80017 -244.649398 
L 130.005617 -246.56988 
L 129.211065 -250.029151 
L 128.416512 -250.330506 
L 127.62196 -251.317976 
L 126.827407 -245.400788 
L 126.032855 -248.499611 
L 125.238302 -250.209137 
L 124.44375 -244.259579 
L 123.649198 -246.654439 
L 122.854645 -248.846695 
L 122.060093 -249.178924 
L 121.26554 -247.893879 
L 120.470988 -247.81178 
L 119.676435 -250.933396 
L 118.881883 -248.605095 
L 118.08733 -246.631387 
L 117.292778 -250.912327 
L 116.498225 -246.258972 
L 115.703673 -245.815899 
L 114.90912 -246.71161 
L 114.114568 -246.854076 
L 113.320015 -246.786028 
L 112.525463 -246.776875 
L 111.73091 -243.588492 
L 110.936358 -244.351578 
L 110.141806 -240.750313 
L 109.347253 -248.086943 
L 108.552701 -250.418168 
L 107.758148 -241.818942 
L 106.963596 -245.997324 
L 106.169043 -245.367739 
L 105.374491 -248.450156 
L 104.579938 -242.890718 
L 103.785386 -246.880462 
L 102.990833 -243.312661 
L 102.196281 -245.892817 
L 101.401728 -246.879991 
L 100.607176 -248.515359 
L 99.812623 -244.456402 
L 99.018071 -245.176435 
L 98.223519 -242.377896 
L 97.428966 -245.720083 
L 96.634414 -244.711355 
L 95.839861 -243.065541 
L 95.045309 -247.41697 
L 94.250756 -247.610698 
L 93.456204 -243.598327 
L 92.661651 -243.145587 
L 91.867099 -242.918543 
L 91.072546 -240.947949 
L 90.277994 -245.076101 
L 89.483441 -240.698762 
L 88.688889 -242.518184 
L 87.894336 -239.976356 
L 87.099784 -244.281851 
L 86.305231 -246.427242 
L 85.510679 -238.994562 
L 84.716127 -241.795449 
L 83.921574 -237.565601 
L 83.127022 -240.261545 
L 82.332469 -237.50405 
L 81.537917 -238.852831 
L 80.743364 -240.262582 
L 79.948812 -243.532837 
L 81.458461 -241.909954 
L 81.379006 -237.724292 
L 81.299551 -239.415178 
L 81.220096 -240.054012 
L 81.14064 -240.957591 
L 81.061185 -238.2563 
L 80.98173 -236.902637 
L 80.902275 -238.849866 
L 80.822819 -238.102838 
L 80.743364 -240.262582 
L 80.663909 -238.647549 
L 80.584454 -237.12861 
L 80.504998 -235.881388 
L 80.425543 -234.648301 
L 80.346088 -235.190496 
L 80.266633 -232.403294 
L 80.187177 -234.526513 
L 80.107722 -239.342125 
L 80.028267 -240.129675 
L 79.948812 -243.532837 
L 79.154259 -248.87848 
L 78.359707 -251.473418 
L 77.565154 -251.593163 
L 76.770602 -252.051198 
L 75.976049 -254.530281 
L 75.181497 -243.15225 
L 74.386944 -247.344187 
L 73.592392 -249.15607 
L 72.79784 -250.669487 
L 72.003287 -246.206827 
L 71.208735 -251.146235 
L 70.414182 -248.863913 
L 69.61963 -253.17113 
L 68.825077 -247.80787 
L 68.030525 -251.013749 
L 67.235972 -244.76995 
L 66.44142 -249.54905 
L 65.646867 -250.261244 
L 64.852315 -249.733742 
L 64.057762 -250.194359 
L 63.26321 -251.138938 
L 62.468657 -251.118372 
L 61.674105 -249.436204 
L 60.879552 -251.853088 
L 60.085 -249.014541 
z
" style="stroke: #ee82ee; stroke-opacity: 0.2"/>
    </defs>
    <g clip-path="url(#p877a00c2b2)">
     <use xlink:href="#m494d59b688" x="0" y="270" style="fill: #ee82ee; fill-opacity: 0.2; stroke: #ee82ee; stroke-opacity: 0.2"/>
    </g>
   </g>
   <g id="line2d_1">
    <path d="M 60.085 22.829582 
L 60.879552 20.180299 
L 61.674105 22.670769 
L 62.468657 20.671781 
L 64.852315 22.259386 
L 65.646867 21.541417 
L 66.44142 22.612546 
L 67.235972 26.628949 
L 68.030525 20.747156 
L 68.825077 24.002626 
L 69.61963 18.767671 
L 70.414182 34.738076 
L 71.208735 20.546997 
L 72.003287 25.420676 
L 72.79784 21.458885 
L 73.592392 23.304913 
L 74.386944 24.119939 
L 75.181497 27.622047 
L 75.976049 17.032655 
L 76.770602 19.975877 
L 77.565154 20.121038 
L 78.359707 19.761273 
L 79.154259 22.835692 
L 79.948812 28.289727 
L 80.266633 39.889432 
L 80.346088 36.456489 
L 80.425543 37.653701 
L 80.663909 33.101341 
L 80.822819 33.409718 
L 80.902275 33.039254 
L 80.98173 34.584678 
L 81.220096 31.282042 
L 81.379006 34.092713 
L 81.458461 29.778848 
L 79.948812 28.289727 
L 80.743364 33.190749 
L 81.537917 33.206093 
L 82.332469 34.249404 
L 83.127022 32.616954 
L 83.921574 33.953064 
L 84.716127 29.567322 
L 85.510679 33.698398 
L 86.305231 26.537678 
L 87.099784 27.387638 
L 87.894336 31.535625 
L 88.688889 30.626873 
L 89.483441 32.512609 
L 90.277994 27.577473 
L 91.072546 30.610882 
L 91.867099 29.75164 
L 92.661651 29.870155 
L 94.250756 26.119378 
L 95.045309 25.184606 
L 95.839861 28.279955 
L 96.634414 27.030053 
L 97.428966 25.516511 
L 98.223519 29.560294 
L 99.018071 26.920979 
L 99.812623 30.574253 
L 100.607176 23.893281 
L 101.401728 25.917853 
L 102.196281 25.607272 
L 102.990833 29.161415 
L 103.785386 24.232771 
L 104.579938 29.96786 
L 105.374491 23.710756 
L 106.169043 26.310033 
L 106.963596 25.68412 
L 107.758148 30.502669 
L 108.552701 21.916626 
L 109.347253 23.716277 
L 110.141806 33.220685 
L 110.936358 27.946062 
L 111.73091 28.562578 
L 112.525463 25.105599 
L 113.320015 25.254185 
L 114.114568 24.518099 
L 114.90912 25.454358 
L 115.703673 26.915308 
L 116.498225 25.777831 
L 117.292778 20.755001 
L 118.08733 25.946519 
L 119.676435 22.346401 
L 120.470988 23.861661 
L 121.26554 24.036045 
L 122.060093 22.849657 
L 122.854645 22.966516 
L 123.649198 25.957827 
L 124.44375 27.762763 
L 125.238302 21.319685 
L 126.032855 23.489142 
L 126.827407 27.179618 
L 127.62196 21.677322 
L 128.416512 22.070136 
L 129.211065 22.857577 
L 130.005617 26.162175 
L 130.80017 27.892295 
L 131.594722 23.790481 
L 132.389275 24.974461 
L 133.183827 24.589156 
L 133.97838 27.228817 
L 134.772932 22.468161 
L 135.567485 21.249386 
L 136.362037 27.452899 
L 137.15659 21.194977 
L 137.951142 23.920507 
L 138.745694 23.245827 
L 139.540247 25.596846 
L 140.334799 22.306771 
L 141.129352 20.672943 
L 141.923904 23.704547 
L 142.718457 27.645989 
L 143.513009 23.352664 
L 144.307562 25.449538 
L 145.102114 26.078142 
L 145.896667 25.587835 
L 146.691219 22.78793 
L 148.280324 20.660395 
L 149.074877 25.010655 
L 149.869429 23.10649 
L 150.663981 20.86107 
L 151.458534 23.362291 
L 152.253086 23.844918 
L 153.047639 22.069474 
L 153.842191 23.870618 
L 154.636744 24.608036 
L 155.431296 23.319841 
L 156.225849 24.187779 
L 157.020401 20.78806 
L 157.814954 23.919052 
L 158.609506 20.978607 
L 159.404059 21.545484 
L 160.198611 23.075655 
L 160.993164 23.138245 
L 162.582269 20.546586 
L 163.376821 24.282631 
L 164.171373 23.513906 
L 164.965926 23.842257 
L 165.760478 27.385849 
L 166.555031 21.423657 
L 167.349583 26.698442 
L 168.144136 26.605469 
L 168.938688 23.229264 
L 169.733241 22.216699 
L 171.322346 24.712933 
L 172.116898 19.951594 
L 172.911451 23.704224 
L 174.500556 19.216416 
L 175.295108 22.858276 
L 176.08966 21.728976 
L 176.884213 25.426639 
L 177.678765 22.773217 
L 178.473318 23.421119 
L 179.26787 21.697109 
L 180.062423 26.573548 
L 180.856975 22.237536 
L 181.651528 22.185363 
L 182.44608 25.103452 
L 183.240633 22.712271 
L 184.035185 23.155619 
L 184.829738 20.937514 
L 185.62429 25.581602 
L 186.418843 21.231563 
L 187.213395 25.607095 
L 188.007948 16.997187 
L 188.8025 25.457435 
L 189.597052 19.98733 
L 190.391605 26.71198 
L 191.186157 17.412336 
L 191.98071 23.252309 
L 192.775262 21.509298 
L 193.569815 22.410618 
L 194.364367 20.122795 
L 195.15892 19.967198 
L 195.953472 21.976814 
L 196.748025 22.649731 
L 197.542577 22.748379 
L 198.33713 20.323582 
L 199.131682 18.679979 
L 199.926235 20.92521 
L 200.720787 26.132907 
L 201.51534 21.98353 
L 202.309892 19.885 
L 203.104444 22.02776 
L 203.898997 20.128424 
L 204.693549 27.145738 
L 205.488102 27.029476 
L 206.282654 19.018283 
L 207.077207 22.893052 
L 207.871759 22.962516 
L 208.666312 21.89199 
L 209.460864 24.327371 
L 210.255417 19.098769 
L 211.049969 26.12918 
L 211.844522 16.958774 
L 212.639074 24.50215 
L 213.433627 19.960869 
L 214.228179 23.299277 
L 215.022731 22.45651 
L 215.817284 22.76954 
L 216.611836 23.446565 
L 217.406389 25.623243 
L 218.200941 23.353708 
L 218.995494 23.362357 
L 219.790046 20.900487 
L 220.584599 28.209389 
L 221.379151 27.952028 
L 222.173704 21.812652 
L 222.968256 20.850908 
L 223.762809 20.674041 
L 224.557361 19.997879 
L 225.351914 22.043808 
L 226.146466 18.558779 
L 226.941019 22.770577 
L 227.735571 23.81527 
L 228.530123 24.521281 
L 229.324676 22.405459 
L 230.119228 24.796411 
L 230.913781 24.442449 
L 231.708333 22.903573 
L 232.502886 24.502828 
L 233.297438 19.083454 
L 234.091991 17.810382 
L 234.886543 24.501279 
L 235.681096 25.290295 
L 236.475648 21.338593 
L 237.270201 23.813874 
L 238.064753 17.847841 
L 238.859306 26.198414 
L 239.653858 24.99833 
L 240.44841 20.472458 
L 241.242963 26.12399 
L 242.037515 25.984847 
L 242.832068 23.493463 
L 243.62662 25.383937 
L 244.421173 22.516272 
L 245.215725 23.874712 
L 246.010278 19.736016 
L 246.80483 20.668019 
L 247.599383 23.501543 
L 248.393935 22.954633 
L 249.188488 22.033388 
L 249.98304 20.456248 
L 250.777593 22.742215 
L 251.572145 20.885801 
L 252.366698 21.056461 
L 253.16125 24.736243 
L 253.955802 26.471644 
L 254.750355 21.349726 
L 255.544907 19.338278 
L 256.33946 26.642147 
L 257.134012 19.570238 
L 257.928565 22.08172 
L 258.723117 20.29317 
L 259.51767 20.904183 
L 260.312222 22.440819 
L 261.106775 23.193229 
L 261.901327 22.968745 
L 262.69588 25.099711 
L 263.490432 22.619041 
L 264.284985 23.713471 
L 265.079537 25.234248 
L 265.87409 24.292491 
L 266.668642 22.296163 
L 267.463194 21.342878 
L 268.257747 23.723451 
L 269.052299 23.830326 
L 269.846852 24.735592 
L 270.641404 24.524587 
L 271.435957 19.524807 
L 272.230509 22.88601 
L 273.025062 21.522562 
L 273.819614 21.109117 
L 274.614167 21.534789 
L 275.408719 23.060415 
L 276.203272 29.436542 
L 276.997824 26.708374 
L 277.792377 22.399747 
L 278.586929 21.847489 
L 279.381481 23.469884 
L 280.176034 25.9855 
L 280.970586 20.133693 
L 282.559691 27.490635 
L 284.148796 18.692899 
L 285.737901 25.696757 
L 287.327006 19.626093 
L 288.121559 19.097294 
L 288.916111 26.662722 
L 289.710664 22.060169 
L 290.505216 22.729356 
L 291.299769 22.296338 
L 292.094321 23.584017 
L 292.888873 24.293533 
L 293.683426 23.788579 
L 294.477978 18.748532 
L 295.272531 27.626582 
L 296.067083 22.024799 
L 296.861636 24.148048 
L 297.656188 28.112743 
L 298.450741 24.000408 
L 299.245293 26.911337 
L 300.039846 26.246895 
L 300.834398 23.065108 
L 302.423503 23.761651 
L 303.218056 28.335974 
L 304.012608 27.233284 
L 304.80716 19.653708 
L 305.601713 25.893637 
L 306.396265 21.862004 
L 307.190818 21.967258 
L 307.98537 25.580916 
L 309.574475 24.002318 
L 310.369028 21.250005 
L 311.16358 23.376525 
L 311.958133 22.561864 
L 312.752685 21.012522 
L 313.547238 26.291266 
L 314.34179 20.497836 
L 315.136343 20.907503 
L 315.930895 21.842907 
L 316.725448 21.178172 
L 317.52 21.371599 
L 317.52 21.371599 
" clip-path="url(#p877a00c2b2)" style="fill: none; stroke: #ee82ee; stroke-width: 1.5; stroke-linecap: square"/>
   </g>
   <g id="matplotlib.axis_1">
    <g id="xtick_1">
     <g id="line2d_2">
      <defs>
       <path id="m2694275236" d="M 0 0 
L 0 3.5 
" style="stroke: #000000; stroke-width: 0.8"/>
      </defs>
      <g>
       <use xlink:href="#m2694275236" x="79.948812" y="218.04" style="stroke: #000000; stroke-width: 0.8"/>
      </g>
     </g>
     <g id="text_1">
      <!-- 3000 -->
      <g transform="translate(62.133812 235.677813) scale(0.14 -0.14)">
       <defs>
        <path id="DejaVuSans-33" d="M 2597 2516 
Q 3050 2419 3304 2112 
Q 3559 1806 3559 1356 
Q 3559 666 3084 287 
Q 2609 -91 1734 -91 
Q 1441 -91 1130 -33 
Q 819 25 488 141 
L 488 750 
Q 750 597 1062 519 
Q 1375 441 1716 441 
Q 2309 441 2620 675 
Q 2931 909 2931 1356 
Q 2931 1769 2642 2001 
Q 2353 2234 1838 2234 
L 1294 2234 
L 1294 2753 
L 1863 2753 
Q 2328 2753 2575 2939 
Q 2822 3125 2822 3475 
Q 2822 3834 2567 4026 
Q 2313 4219 1838 4219 
Q 1578 4219 1281 4162 
Q 984 4106 628 3988 
L 628 4550 
Q 988 4650 1302 4700 
Q 1616 4750 1894 4750 
Q 2613 4750 3031 4423 
Q 3450 4097 3450 3541 
Q 3450 3153 3228 2886 
Q 3006 2619 2597 2516 
z
" transform="scale(0.015625)"/>
        <path id="DejaVuSans-30" d="M 2034 4250 
Q 1547 4250 1301 3770 
Q 1056 3291 1056 2328 
Q 1056 1369 1301 889 
Q 1547 409 2034 409 
Q 2525 409 2770 889 
Q 3016 1369 3016 2328 
Q 3016 3291 2770 3770 
Q 2525 4250 2034 4250 
z
M 2034 4750 
Q 2819 4750 3233 4129 
Q 3647 3509 3647 2328 
Q 3647 1150 3233 529 
Q 2819 -91 2034 -91 
Q 1250 -91 836 529 
Q 422 1150 422 2328 
Q 422 3509 836 4129 
Q 1250 4750 2034 4750 
z
" transform="scale(0.015625)"/>
       </defs>
       <use xlink:href="#DejaVuSans-33"/>
       <use xlink:href="#DejaVuSans-30" x="63.623047"/>
       <use xlink:href="#DejaVuSans-30" x="127.246094"/>
       <use xlink:href="#DejaVuSans-30" x="190.869141"/>
      </g>
     </g>
    </g>
    <g id="xtick_2">
     <g id="line2d_3">
      <g>
       <use xlink:href="#m2694275236" x="119.676435" y="218.04" style="stroke: #000000; stroke-width: 0.8"/>
      </g>
     </g>
     <g id="text_2">
      <!-- 3500 -->
      <g transform="translate(101.861435 235.677813) scale(0.14 -0.14)">
       <defs>
        <path id="DejaVuSans-35" d="M 691 4666 
L 3169 4666 
L 3169 4134 
L 1269 4134 
L 1269 2991 
Q 1406 3038 1543 3061 
Q 1681 3084 1819 3084 
Q 2600 3084 3056 2656 
Q 3513 2228 3513 1497 
Q 3513 744 3044 326 
Q 2575 -91 1722 -91 
Q 1428 -91 1123 -41 
Q 819 9 494 109 
L 494 744 
Q 775 591 1075 516 
Q 1375 441 1709 441 
Q 2250 441 2565 725 
Q 2881 1009 2881 1497 
Q 2881 1984 2565 2268 
Q 2250 2553 1709 2553 
Q 1456 2553 1204 2497 
Q 953 2441 691 2322 
L 691 4666 
z
" transform="scale(0.015625)"/>
       </defs>
       <use xlink:href="#DejaVuSans-33"/>
       <use xlink:href="#DejaVuSans-35" x="63.623047"/>
       <use xlink:href="#DejaVuSans-30" x="127.246094"/>
       <use xlink:href="#DejaVuSans-30" x="190.869141"/>
      </g>
     </g>
    </g>
    <g id="xtick_3">
     <g id="line2d_4">
      <g>
       <use xlink:href="#m2694275236" x="159.404059" y="218.04" style="stroke: #000000; stroke-width: 0.8"/>
      </g>
     </g>
     <g id="text_3">
      <!-- 4000 -->
      <g transform="translate(141.589059 235.677813) scale(0.14 -0.14)">
       <defs>
        <path id="DejaVuSans-34" d="M 2419 4116 
L 825 1625 
L 2419 1625 
L 2419 4116 
z
M 2253 4666 
L 3047 4666 
L 3047 1625 
L 3713 1625 
L 3713 1100 
L 3047 1100 
L 3047 0 
L 2419 0 
L 2419 1100 
L 313 1100 
L 313 1709 
L 2253 4666 
z
" transform="scale(0.015625)"/>
       </defs>
       <use xlink:href="#DejaVuSans-34"/>
       <use xlink:href="#DejaVuSans-30" x="63.623047"/>
       <use xlink:href="#DejaVuSans-30" x="127.246094"/>
       <use xlink:href="#DejaVuSans-30" x="190.869141"/>
      </g>
     </g>
    </g>
    <g id="xtick_4">
     <g id="line2d_5">
      <g>
       <use xlink:href="#m2694275236" x="199.131682" y="218.04" style="stroke: #000000; stroke-width: 0.8"/>
      </g>
     </g>
     <g id="text_4">
      <!-- 4500 -->
      <g transform="translate(181.316682 235.677813) scale(0.14 -0.14)">
       <use xlink:href="#DejaVuSans-34"/>
       <use xlink:href="#DejaVuSans-35" x="63.623047"/>
       <use xlink:href="#DejaVuSans-30" x="127.246094"/>
       <use xlink:href="#DejaVuSans-30" x="190.869141"/>
      </g>
     </g>
    </g>
    <g id="xtick_5">
     <g id="line2d_6">
      <g>
       <use xlink:href="#m2694275236" x="238.859306" y="218.04" style="stroke: #000000; stroke-width: 0.8"/>
      </g>
     </g>
     <g id="text_5">
      <!-- 5000 -->
      <g transform="translate(221.044306 235.677813) scale(0.14 -0.14)">
       <use xlink:href="#DejaVuSans-35"/>
       <use xlink:href="#DejaVuSans-30" x="63.623047"/>
       <use xlink:href="#DejaVuSans-30" x="127.246094"/>
       <use xlink:href="#DejaVuSans-30" x="190.869141"/>
      </g>
     </g>
    </g>
    <g id="xtick_6">
     <g id="line2d_7">
      <g>
       <use xlink:href="#m2694275236" x="278.586929" y="218.04" style="stroke: #000000; stroke-width: 0.8"/>
      </g>
     </g>
     <g id="text_6">
      <!-- 5500 -->
      <g transform="translate(260.771929 235.677813) scale(0.14 -0.14)">
       <use xlink:href="#DejaVuSans-35"/>
       <use xlink:href="#DejaVuSans-35" x="63.623047"/>
       <use xlink:href="#DejaVuSans-30" x="127.246094"/>
       <use xlink:href="#DejaVuSans-30" x="190.869141"/>
      </g>
     </g>
    </g>
    <g id="text_7">
     <!-- Rendition number -->
     <g transform="translate(126.168906 253.227188) scale(0.14 -0.14)">
      <defs>
       <path id="DejaVuSans-52" d="M 2841 2188 
Q 3044 2119 3236 1894 
Q 3428 1669 3622 1275 
L 4263 0 
L 3584 0 
L 2988 1197 
Q 2756 1666 2539 1819 
Q 2322 1972 1947 1972 
L 1259 1972 
L 1259 0 
L 628 0 
L 628 4666 
L 2053 4666 
Q 2853 4666 3247 4331 
Q 3641 3997 3641 3322 
Q 3641 2881 3436 2590 
Q 3231 2300 2841 2188 
z
M 1259 4147 
L 1259 2491 
L 2053 2491 
Q 2509 2491 2742 2702 
Q 2975 2913 2975 3322 
Q 2975 3731 2742 3939 
Q 2509 4147 2053 4147 
L 1259 4147 
z
" transform="scale(0.015625)"/>
       <path id="DejaVuSans-65" d="M 3597 1894 
L 3597 1613 
L 953 1613 
Q 991 1019 1311 708 
Q 1631 397 2203 397 
Q 2534 397 2845 478 
Q 3156 559 3463 722 
L 3463 178 
Q 3153 47 2828 -22 
Q 2503 -91 2169 -91 
Q 1331 -91 842 396 
Q 353 884 353 1716 
Q 353 2575 817 3079 
Q 1281 3584 2069 3584 
Q 2775 3584 3186 3129 
Q 3597 2675 3597 1894 
z
M 3022 2063 
Q 3016 2534 2758 2815 
Q 2500 3097 2075 3097 
Q 1594 3097 1305 2825 
Q 1016 2553 972 2059 
L 3022 2063 
z
" transform="scale(0.015625)"/>
       <path id="DejaVuSans-6e" d="M 3513 2113 
L 3513 0 
L 2938 0 
L 2938 2094 
Q 2938 2591 2744 2837 
Q 2550 3084 2163 3084 
Q 1697 3084 1428 2787 
Q 1159 2491 1159 1978 
L 1159 0 
L 581 0 
L 581 3500 
L 1159 3500 
L 1159 2956 
Q 1366 3272 1645 3428 
Q 1925 3584 2291 3584 
Q 2894 3584 3203 3211 
Q 3513 2838 3513 2113 
z
" transform="scale(0.015625)"/>
       <path id="DejaVuSans-64" d="M 2906 2969 
L 2906 4863 
L 3481 4863 
L 3481 0 
L 2906 0 
L 2906 525 
Q 2725 213 2448 61 
Q 2172 -91 1784 -91 
Q 1150 -91 751 415 
Q 353 922 353 1747 
Q 353 2572 751 3078 
Q 1150 3584 1784 3584 
Q 2172 3584 2448 3432 
Q 2725 3281 2906 2969 
z
M 947 1747 
Q 947 1113 1208 752 
Q 1469 391 1925 391 
Q 2381 391 2643 752 
Q 2906 1113 2906 1747 
Q 2906 2381 2643 2742 
Q 2381 3103 1925 3103 
Q 1469 3103 1208 2742 
Q 947 2381 947 1747 
z
" transform="scale(0.015625)"/>
       <path id="DejaVuSans-69" d="M 603 3500 
L 1178 3500 
L 1178 0 
L 603 0 
L 603 3500 
z
M 603 4863 
L 1178 4863 
L 1178 4134 
L 603 4134 
L 603 4863 
z
" transform="scale(0.015625)"/>
       <path id="DejaVuSans-74" d="M 1172 4494 
L 1172 3500 
L 2356 3500 
L 2356 3053 
L 1172 3053 
L 1172 1153 
Q 1172 725 1289 603 
Q 1406 481 1766 481 
L 2356 481 
L 2356 0 
L 1766 0 
Q 1100 0 847 248 
Q 594 497 594 1153 
L 594 3053 
L 172 3053 
L 172 3500 
L 594 3500 
L 594 4494 
L 1172 4494 
z
" transform="scale(0.015625)"/>
       <path id="DejaVuSans-6f" d="M 1959 3097 
Q 1497 3097 1228 2736 
Q 959 2375 959 1747 
Q 959 1119 1226 758 
Q 1494 397 1959 397 
Q 2419 397 2687 759 
Q 2956 1122 2956 1747 
Q 2956 2369 2687 2733 
Q 2419 3097 1959 3097 
z
M 1959 3584 
Q 2709 3584 3137 3096 
Q 3566 2609 3566 1747 
Q 3566 888 3137 398 
Q 2709 -91 1959 -91 
Q 1206 -91 779 398 
Q 353 888 353 1747 
Q 353 2609 779 3096 
Q 1206 3584 1959 3584 
z
" transform="scale(0.015625)"/>
       <path id="DejaVuSans-20" transform="scale(0.015625)"/>
       <path id="DejaVuSans-75" d="M 544 1381 
L 544 3500 
L 1119 3500 
L 1119 1403 
Q 1119 906 1312 657 
Q 1506 409 1894 409 
Q 2359 409 2629 706 
Q 2900 1003 2900 1516 
L 2900 3500 
L 3475 3500 
L 3475 0 
L 2900 0 
L 2900 538 
Q 2691 219 2414 64 
Q 2138 -91 1772 -91 
Q 1169 -91 856 284 
Q 544 659 544 1381 
z
M 1991 3584 
L 1991 3584 
z
" transform="scale(0.015625)"/>
       <path id="DejaVuSans-6d" d="M 3328 2828 
Q 3544 3216 3844 3400 
Q 4144 3584 4550 3584 
Q 5097 3584 5394 3201 
Q 5691 2819 5691 2113 
L 5691 0 
L 5113 0 
L 5113 2094 
Q 5113 2597 4934 2840 
Q 4756 3084 4391 3084 
Q 3944 3084 3684 2787 
Q 3425 2491 3425 1978 
L 3425 0 
L 2847 0 
L 2847 2094 
Q 2847 2600 2669 2842 
Q 2491 3084 2119 3084 
Q 1678 3084 1418 2786 
Q 1159 2488 1159 1978 
L 1159 0 
L 581 0 
L 581 3500 
L 1159 3500 
L 1159 2956 
Q 1356 3278 1631 3431 
Q 1906 3584 2284 3584 
Q 2666 3584 2933 3390 
Q 3200 3197 3328 2828 
z
" transform="scale(0.015625)"/>
       <path id="DejaVuSans-62" d="M 3116 1747 
Q 3116 2381 2855 2742 
Q 2594 3103 2138 3103 
Q 1681 3103 1420 2742 
Q 1159 2381 1159 1747 
Q 1159 1113 1420 752 
Q 1681 391 2138 391 
Q 2594 391 2855 752 
Q 3116 1113 3116 1747 
z
M 1159 2969 
Q 1341 3281 1617 3432 
Q 1894 3584 2278 3584 
Q 2916 3584 3314 3078 
Q 3713 2572 3713 1747 
Q 3713 922 3314 415 
Q 2916 -91 2278 -91 
Q 1894 -91 1617 61 
Q 1341 213 1159 525 
L 1159 0 
L 581 0 
L 581 4863 
L 1159 4863 
L 1159 2969 
z
" transform="scale(0.015625)"/>
       <path id="DejaVuSans-72" d="M 2631 2963 
Q 2534 3019 2420 3045 
Q 2306 3072 2169 3072 
Q 1681 3072 1420 2755 
Q 1159 2438 1159 1844 
L 1159 0 
L 581 0 
L 581 3500 
L 1159 3500 
L 1159 2956 
Q 1341 3275 1631 3429 
Q 1922 3584 2338 3584 
Q 2397 3584 2469 3576 
Q 2541 3569 2628 3553 
L 2631 2963 
z
" transform="scale(0.015625)"/>
      </defs>
      <use xlink:href="#DejaVuSans-52"/>
      <use xlink:href="#DejaVuSans-65" x="64.982422"/>
      <use xlink:href="#DejaVuSans-6e" x="126.505859"/>
      <use xlink:href="#DejaVuSans-64" x="189.884766"/>
      <use xlink:href="#DejaVuSans-69" x="253.361328"/>
      <use xlink:href="#DejaVuSans-74" x="281.144531"/>
      <use xlink:href="#DejaVuSans-69" x="320.353516"/>
      <use xlink:href="#DejaVuSans-6f" x="348.136719"/>
      <use xlink:href="#DejaVuSans-6e" x="409.318359"/>
      <use xlink:href="#DejaVuSans-20" x="472.697266"/>
      <use xlink:href="#DejaVuSans-6e" x="504.484375"/>
      <use xlink:href="#DejaVuSans-75" x="567.863281"/>
      <use xlink:href="#DejaVuSans-6d" x="631.242188"/>
      <use xlink:href="#DejaVuSans-62" x="728.654297"/>
      <use xlink:href="#DejaVuSans-65" x="792.130859"/>
      <use xlink:href="#DejaVuSans-72" x="853.654297"/>
     </g>
    </g>
   </g>
   <g id="matplotlib.axis_2">
    <g id="ytick_1">
     <g id="line2d_8">
      <defs>
       <path id="m19ecc76257" d="M 0 0 
L -3.5 0 
" style="stroke: #000000; stroke-width: 0.8"/>
      </defs>
      <g>
       <use xlink:href="#m19ecc76257" x="60.085" y="218.04" style="stroke: #000000; stroke-width: 0.8"/>
      </g>
     </g>
     <g id="text_8">
      <!-- 0.0 -->
      <g transform="translate(30.820625 223.358906) scale(0.14 -0.14)">
       <defs>
        <path id="DejaVuSans-2e" d="M 684 794 
L 1344 794 
L 1344 0 
L 684 0 
L 684 794 
z
" transform="scale(0.015625)"/>
       </defs>
       <use xlink:href="#DejaVuSans-30"/>
       <use xlink:href="#DejaVuSans-2e" x="63.623047"/>
       <use xlink:href="#DejaVuSans-30" x="95.410156"/>
      </g>
     </g>
    </g>
    <g id="ytick_2">
     <g id="line2d_9">
      <g>
       <use xlink:href="#m19ecc76257" x="60.085" y="178.86506" style="stroke: #000000; stroke-width: 0.8"/>
      </g>
     </g>
     <g id="text_9">
      <!-- 0.2 -->
      <g transform="translate(30.820625 184.183966) scale(0.14 -0.14)">
       <defs>
        <path id="DejaVuSans-32" d="M 1228 531 
L 3431 531 
L 3431 0 
L 469 0 
L 469 531 
Q 828 903 1448 1529 
Q 2069 2156 2228 2338 
Q 2531 2678 2651 2914 
Q 2772 3150 2772 3378 
Q 2772 3750 2511 3984 
Q 2250 4219 1831 4219 
Q 1534 4219 1204 4116 
Q 875 4013 500 3803 
L 500 4441 
Q 881 4594 1212 4672 
Q 1544 4750 1819 4750 
Q 2544 4750 2975 4387 
Q 3406 4025 3406 3419 
Q 3406 3131 3298 2873 
Q 3191 2616 2906 2266 
Q 2828 2175 2409 1742 
Q 1991 1309 1228 531 
z
" transform="scale(0.015625)"/>
       </defs>
       <use xlink:href="#DejaVuSans-30"/>
       <use xlink:href="#DejaVuSans-2e" x="63.623047"/>
       <use xlink:href="#DejaVuSans-32" x="95.410156"/>
      </g>
     </g>
    </g>
    <g id="ytick_3">
     <g id="line2d_10">
      <g>
       <use xlink:href="#m19ecc76257" x="60.085" y="139.69012" style="stroke: #000000; stroke-width: 0.8"/>
      </g>
     </g>
     <g id="text_10">
      <!-- 0.4 -->
      <g transform="translate(30.820625 145.009026) scale(0.14 -0.14)">
       <use xlink:href="#DejaVuSans-30"/>
       <use xlink:href="#DejaVuSans-2e" x="63.623047"/>
       <use xlink:href="#DejaVuSans-34" x="95.410156"/>
      </g>
     </g>
    </g>
    <g id="ytick_4">
     <g id="line2d_11">
      <g>
       <use xlink:href="#m19ecc76257" x="60.085" y="100.51518" style="stroke: #000000; stroke-width: 0.8"/>
      </g>
     </g>
     <g id="text_11">
      <!-- 0.6 -->
      <g transform="translate(30.820625 105.834086) scale(0.14 -0.14)">
       <defs>
        <path id="DejaVuSans-36" d="M 2113 2584 
Q 1688 2584 1439 2293 
Q 1191 2003 1191 1497 
Q 1191 994 1439 701 
Q 1688 409 2113 409 
Q 2538 409 2786 701 
Q 3034 994 3034 1497 
Q 3034 2003 2786 2293 
Q 2538 2584 2113 2584 
z
M 3366 4563 
L 3366 3988 
Q 3128 4100 2886 4159 
Q 2644 4219 2406 4219 
Q 1781 4219 1451 3797 
Q 1122 3375 1075 2522 
Q 1259 2794 1537 2939 
Q 1816 3084 2150 3084 
Q 2853 3084 3261 2657 
Q 3669 2231 3669 1497 
Q 3669 778 3244 343 
Q 2819 -91 2113 -91 
Q 1303 -91 875 529 
Q 447 1150 447 2328 
Q 447 3434 972 4092 
Q 1497 4750 2381 4750 
Q 2619 4750 2861 4703 
Q 3103 4656 3366 4563 
z
" transform="scale(0.015625)"/>
       </defs>
       <use xlink:href="#DejaVuSans-30"/>
       <use xlink:href="#DejaVuSans-2e" x="63.623047"/>
       <use xlink:href="#DejaVuSans-36" x="95.410156"/>
      </g>
     </g>
    </g>
    <g id="ytick_5">
     <g id="line2d_12">
      <g>
       <use xlink:href="#m19ecc76257" x="60.085" y="61.34024" style="stroke: #000000; stroke-width: 0.8"/>
      </g>
     </g>
     <g id="text_12">
      <!-- 0.8 -->
      <g transform="translate(30.820625 66.659146) scale(0.14 -0.14)">
       <defs>
        <path id="DejaVuSans-38" d="M 2034 2216 
Q 1584 2216 1326 1975 
Q 1069 1734 1069 1313 
Q 1069 891 1326 650 
Q 1584 409 2034 409 
Q 2484 409 2743 651 
Q 3003 894 3003 1313 
Q 3003 1734 2745 1975 
Q 2488 2216 2034 2216 
z
M 1403 2484 
Q 997 2584 770 2862 
Q 544 3141 544 3541 
Q 544 4100 942 4425 
Q 1341 4750 2034 4750 
Q 2731 4750 3128 4425 
Q 3525 4100 3525 3541 
Q 3525 3141 3298 2862 
Q 3072 2584 2669 2484 
Q 3125 2378 3379 2068 
Q 3634 1759 3634 1313 
Q 3634 634 3220 271 
Q 2806 -91 2034 -91 
Q 1263 -91 848 271 
Q 434 634 434 1313 
Q 434 1759 690 2068 
Q 947 2378 1403 2484 
z
M 1172 3481 
Q 1172 3119 1398 2916 
Q 1625 2713 2034 2713 
Q 2441 2713 2670 2916 
Q 2900 3119 2900 3481 
Q 2900 3844 2670 4047 
Q 2441 4250 2034 4250 
Q 1625 4250 1398 4047 
Q 1172 3844 1172 3481 
z
" transform="scale(0.015625)"/>
       </defs>
       <use xlink:href="#DejaVuSans-30"/>
       <use xlink:href="#DejaVuSans-2e" x="63.623047"/>
       <use xlink:href="#DejaVuSans-38" x="95.410156"/>
      </g>
     </g>
    </g>
    <g id="ytick_6">
     <g id="line2d_13">
      <g>
       <use xlink:href="#m19ecc76257" x="60.085" y="22.165299" style="stroke: #000000; stroke-width: 0.8"/>
      </g>
     </g>
     <g id="text_13">
      <!-- 1.0 -->
      <g transform="translate(30.820625 27.484206) scale(0.14 -0.14)">
       <defs>
        <path id="DejaVuSans-31" d="M 794 531 
L 1825 531 
L 1825 4091 
L 703 3866 
L 703 4441 
L 1819 4666 
L 2450 4666 
L 2450 531 
L 3481 531 
L 3481 0 
L 794 0 
L 794 531 
z
" transform="scale(0.015625)"/>
       </defs>
       <use xlink:href="#DejaVuSans-31"/>
       <use xlink:href="#DejaVuSans-2e" x="63.623047"/>
       <use xlink:href="#DejaVuSans-30" x="95.410156"/>
      </g>
     </g>
    </g>
    <g id="text_14">
     <!-- Mean excitatory activity -->
     <g transform="translate(23.909063 199.905781) rotate(-90) scale(0.14 -0.14)">
      <defs>
       <path id="DejaVuSans-4d" d="M 628 4666 
L 1569 4666 
L 2759 1491 
L 3956 4666 
L 4897 4666 
L 4897 0 
L 4281 0 
L 4281 4097 
L 3078 897 
L 2444 897 
L 1241 4097 
L 1241 0 
L 628 0 
L 628 4666 
z
" transform="scale(0.015625)"/>
       <path id="DejaVuSans-61" d="M 2194 1759 
Q 1497 1759 1228 1600 
Q 959 1441 959 1056 
Q 959 750 1161 570 
Q 1363 391 1709 391 
Q 2188 391 2477 730 
Q 2766 1069 2766 1631 
L 2766 1759 
L 2194 1759 
z
M 3341 1997 
L 3341 0 
L 2766 0 
L 2766 531 
Q 2569 213 2275 61 
Q 1981 -91 1556 -91 
Q 1019 -91 701 211 
Q 384 513 384 1019 
Q 384 1609 779 1909 
Q 1175 2209 1959 2209 
L 2766 2209 
L 2766 2266 
Q 2766 2663 2505 2880 
Q 2244 3097 1772 3097 
Q 1472 3097 1187 3025 
Q 903 2953 641 2809 
L 641 3341 
Q 956 3463 1253 3523 
Q 1550 3584 1831 3584 
Q 2591 3584 2966 3190 
Q 3341 2797 3341 1997 
z
" transform="scale(0.015625)"/>
       <path id="DejaVuSans-78" d="M 3513 3500 
L 2247 1797 
L 3578 0 
L 2900 0 
L 1881 1375 
L 863 0 
L 184 0 
L 1544 1831 
L 300 3500 
L 978 3500 
L 1906 2253 
L 2834 3500 
L 3513 3500 
z
" transform="scale(0.015625)"/>
       <path id="DejaVuSans-63" d="M 3122 3366 
L 3122 2828 
Q 2878 2963 2633 3030 
Q 2388 3097 2138 3097 
Q 1578 3097 1268 2742 
Q 959 2388 959 1747 
Q 959 1106 1268 751 
Q 1578 397 2138 397 
Q 2388 397 2633 464 
Q 2878 531 3122 666 
L 3122 134 
Q 2881 22 2623 -34 
Q 2366 -91 2075 -91 
Q 1284 -91 818 406 
Q 353 903 353 1747 
Q 353 2603 823 3093 
Q 1294 3584 2113 3584 
Q 2378 3584 2631 3529 
Q 2884 3475 3122 3366 
z
" transform="scale(0.015625)"/>
       <path id="DejaVuSans-79" d="M 2059 -325 
Q 1816 -950 1584 -1140 
Q 1353 -1331 966 -1331 
L 506 -1331 
L 506 -850 
L 844 -850 
Q 1081 -850 1212 -737 
Q 1344 -625 1503 -206 
L 1606 56 
L 191 3500 
L 800 3500 
L 1894 763 
L 2988 3500 
L 3597 3500 
L 2059 -325 
z
" transform="scale(0.015625)"/>
       <path id="DejaVuSans-76" d="M 191 3500 
L 800 3500 
L 1894 563 
L 2988 3500 
L 3597 3500 
L 2284 0 
L 1503 0 
L 191 3500 
z
" transform="scale(0.015625)"/>
      </defs>
      <use xlink:href="#DejaVuSans-4d"/>
      <use xlink:href="#DejaVuSans-65" x="86.279297"/>
      <use xlink:href="#DejaVuSans-61" x="147.802734"/>
      <use xlink:href="#DejaVuSans-6e" x="209.082031"/>
      <use xlink:href="#DejaVuSans-20" x="272.460938"/>
      <use xlink:href="#DejaVuSans-65" x="304.248047"/>
      <use xlink:href="#DejaVuSans-78" x="364.021484"/>
      <use xlink:href="#DejaVuSans-63" x="421.451172"/>
      <use xlink:href="#DejaVuSans-69" x="476.431641"/>
      <use xlink:href="#DejaVuSans-74" x="504.214844"/>
      <use xlink:href="#DejaVuSans-61" x="543.423828"/>
      <use xlink:href="#DejaVuSans-74" x="604.703125"/>
      <use xlink:href="#DejaVuSans-6f" x="643.912109"/>
      <use xlink:href="#DejaVuSans-72" x="705.09375"/>
      <use xlink:href="#DejaVuSans-79" x="746.207031"/>
      <use xlink:href="#DejaVuSans-20" x="805.386719"/>
      <use xlink:href="#DejaVuSans-61" x="837.173828"/>
      <use xlink:href="#DejaVuSans-63" x="898.453125"/>
      <use xlink:href="#DejaVuSans-74" x="953.433594"/>
      <use xlink:href="#DejaVuSans-69" x="992.642578"/>
      <use xlink:href="#DejaVuSans-76" x="1020.425781"/>
      <use xlink:href="#DejaVuSans-69" x="1079.605469"/>
      <use xlink:href="#DejaVuSans-74" x="1107.388672"/>
      <use xlink:href="#DejaVuSans-79" x="1146.597656"/>
     </g>
    </g>
   </g>
   <g id="patch_3">
    <path d="M 60.085 218.04 
L 60.085 12.96 
" style="fill: none; stroke: #000000; stroke-width: 3; stroke-linejoin: miter; stroke-linecap: square"/>
   </g>
   <g id="patch_4">
    <path d="M 60.085 218.04 
L 317.52 218.04 
" style="fill: none; stroke: #000000; stroke-width: 3; stroke-linejoin: miter; stroke-linecap: square"/>
   </g>
  </g>
  <g id="axes_2">
   <g id="patch_5">
    <path d="M 377.605 218.04 
L 635.04 218.04 
L 635.04 12.96 
L 377.605 12.96 
z
" style="fill: #ffffff"/>
   </g>
   <g id="PolyCollection_2">
    <defs>
     <path id="m89225bcc71" d="M 377.605 -248.009191 
L 377.605 -242.623496 
L 378.399552 -249.330044 
L 379.194105 -244.683629 
L 379.988657 -248.079497 
L 380.78321 -245.68356 
L 381.577762 -244.586519 
L 382.372315 -245.06491 
L 383.166867 -245.02525 
L 383.96142 -243.049547 
L 384.755972 -240.902662 
L 385.550525 -246.963331 
L 386.345077 -242.600247 
L 387.13963 -250.007004 
L 387.934182 -225.985078 
L 388.728735 -245.573484 
L 389.523287 -240.387157 
L 390.31784 -246.453464 
L 391.112392 -245.010022 
L 391.906944 -240.366866 
L 392.701497 -239.596968 
L 393.496049 -250.08097 
L 394.290602 -247.785393 
L 395.085154 -247.469409 
L 395.879707 -248.523559 
L 396.674259 -247.013291 
L 397.468812 -236.515747 
L 397.548267 -231.603528 
L 397.627722 -225.493751 
L 397.707177 -226.33306 
L 397.786633 -222.327444 
L 397.866088 -224.739775 
L 397.945543 -225.672623 
L 398.024998 -226.460186 
L 398.104454 -227.950353 
L 398.183909 -228.439211 
L 398.263364 -231.766874 
L 398.342819 -230.105238 
L 398.422275 -230.881693 
L 398.50173 -231.823788 
L 398.581185 -229.906748 
L 398.66064 -231.758364 
L 398.740096 -234.646324 
L 398.819551 -233.712993 
L 398.899006 -229.729927 
L 398.978461 -234.5446 
L 397.468812 -236.515747 
L 398.263364 -231.766874 
L 399.057917 -232.783244 
L 399.852469 -231.616023 
L 400.647022 -234.069027 
L 401.441574 -231.935651 
L 402.236127 -237.509013 
L 403.030679 -238.68319 
L 403.825231 -242.072323 
L 404.619784 -239.356675 
L 405.414336 -238.032588 
L 406.208889 -240.091632 
L 407.003441 -238.86277 
L 407.797994 -242.912575 
L 408.592546 -239.906262 
L 409.387099 -236.73983 
L 410.181651 -240.216905 
L 410.976204 -239.521635 
L 411.770756 -242.642775 
L 412.565309 -244.638146 
L 413.359861 -242.403585 
L 414.154414 -241.524796 
L 414.948966 -242.155631 
L 415.743519 -235.261052 
L 416.538071 -243.131897 
L 417.332623 -239.045824 
L 418.127176 -242.431171 
L 418.921728 -238.21238 
L 419.716281 -238.992679 
L 420.510833 -237.165777 
L 421.305386 -238.496725 
L 422.099938 -238.983858 
L 422.894491 -243.254345 
L 423.689043 -239.041904 
L 424.483596 -239.525719 
L 425.278148 -232.6052 
L 426.072701 -236.336208 
L 426.867253 -237.925976 
L 427.661806 -237.347404 
L 428.456358 -237.905446 
L 429.25091 -241.375646 
L 430.045463 -240.640325 
L 430.840015 -238.663732 
L 431.634568 -240.441682 
L 432.42912 -238.506095 
L 433.223673 -239.149857 
L 434.018225 -239.694747 
L 434.812778 -241.953202 
L 435.60733 -237.60918 
L 436.401883 -239.386698 
L 437.196435 -242.486902 
L 437.990988 -239.718183 
L 438.78554 -241.028781 
L 439.580093 -237.611395 
L 440.374645 -237.347529 
L 441.169198 -236.35067 
L 441.96375 -232.707761 
L 442.758302 -239.713701 
L 443.552855 -243.417279 
L 444.347407 -234.074566 
L 445.14196 -239.412946 
L 445.936512 -241.175898 
L 446.731065 -242.878996 
L 447.525617 -235.890346 
L 448.32017 -229.536693 
L 449.114722 -243.620678 
L 449.909275 -242.19003 
L 450.703827 -236.044964 
L 451.49838 -233.693996 
L 452.292932 -238.701144 
L 453.087485 -236.789001 
L 453.882037 -234.390847 
L 454.67659 -243.473405 
L 455.471142 -237.114205 
L 456.265694 -235.709186 
L 457.060247 -235.04745 
L 457.854799 -242.349098 
L 458.649352 -238.17987 
L 459.443904 -240.22145 
L 460.238457 -239.488181 
L 461.033009 -237.23614 
L 461.827562 -234.331899 
L 462.622114 -235.169331 
L 463.416667 -234.983444 
L 464.211219 -241.882406 
L 465.005772 -241.109103 
L 465.800324 -237.369539 
L 466.594877 -233.829033 
L 467.389429 -239.524954 
L 468.183981 -236.292619 
L 468.978534 -235.104777 
L 469.773086 -239.63495 
L 470.567639 -236.154078 
L 471.362191 -233.218177 
L 472.156744 -239.925283 
L 472.951296 -237.144359 
L 473.745849 -233.897804 
L 474.540401 -234.627325 
L 475.334954 -238.721586 
L 476.129506 -234.822802 
L 476.924059 -237.245804 
L 477.718611 -237.318397 
L 478.513164 -233.231314 
L 479.307716 -240.17311 
L 480.102269 -241.957923 
L 480.896821 -239.183017 
L 481.691373 -234.135627 
L 482.485926 -233.558744 
L 483.280478 -232.601187 
L 484.075031 -235.653697 
L 484.869583 -237.297016 
L 485.664136 -229.789458 
L 486.458688 -240.198452 
L 487.253241 -241.020131 
L 488.047793 -237.162718 
L 488.842346 -233.739032 
L 489.636898 -242.245259 
L 490.431451 -237.45678 
L 491.226003 -241.817195 
L 492.020556 -238.417692 
L 492.815108 -236.804596 
L 493.60966 -242.629837 
L 494.404213 -234.421598 
L 495.198765 -238.159357 
L 495.993318 -238.305628 
L 496.78787 -235.93298 
L 497.582423 -234.04061 
L 498.376975 -240.214918 
L 499.171528 -234.831365 
L 499.96608 -239.764545 
L 500.760633 -235.291239 
L 501.555185 -235.108087 
L 502.349738 -238.390646 
L 503.14429 -237.180675 
L 503.938843 -240.660349 
L 504.733395 -237.084454 
L 505.527948 -243.09814 
L 506.3225 -237.929895 
L 507.117052 -239.345375 
L 507.911605 -228.641311 
L 508.706157 -248.788594 
L 509.50071 -237.406852 
L 510.295262 -241.616438 
L 511.089815 -237.444252 
L 511.884367 -239.316211 
L 512.67892 -236.417095 
L 513.473472 -233.882432 
L 514.268025 -240.48559 
L 515.062577 -238.980157 
L 515.85713 -238.548311 
L 516.651682 -239.856466 
L 517.446235 -245.598578 
L 518.240787 -236.205098 
L 519.03534 -234.8147 
L 519.829892 -241.34389 
L 520.624444 -237.648745 
L 521.418997 -239.905642 
L 522.213549 -235.064173 
L 523.008102 -229.807856 
L 523.802654 -239.034142 
L 524.597207 -235.128339 
L 525.391759 -233.190369 
L 526.186312 -240.621608 
L 526.980864 -235.741248 
L 527.775417 -241.026219 
L 528.569969 -230.812841 
L 529.364522 -244.438664 
L 530.159074 -235.216449 
L 530.953627 -240.350426 
L 531.748179 -235.866105 
L 532.542731 -235.443295 
L 533.337284 -236.6278 
L 534.131836 -239.432006 
L 534.926389 -237.352268 
L 535.720941 -236.326182 
L 536.515494 -239.436409 
L 537.310046 -237.226039 
L 538.104599 -231.004253 
L 538.899151 -237.898978 
L 539.693704 -235.881755 
L 540.488256 -240.50754 
L 541.282809 -239.944804 
L 542.077361 -241.471722 
L 542.871914 -238.991912 
L 543.666466 -243.963922 
L 544.461019 -239.584164 
L 545.255571 -232.580615 
L 546.050123 -237.762797 
L 546.844676 -238.073572 
L 547.639228 -238.010607 
L 548.433781 -239.229987 
L 549.228333 -238.494757 
L 550.022886 -238.684584 
L 550.817438 -241.70363 
L 551.611991 -241.372453 
L 552.406543 -238.909003 
L 553.201096 -236.46189 
L 553.995648 -240.907639 
L 554.790201 -230.318422 
L 555.584753 -246.421568 
L 556.379306 -237.578786 
L 557.173858 -234.861158 
L 557.96841 -241.989314 
L 558.762963 -234.606399 
L 559.557515 -236.320708 
L 560.352068 -233.856114 
L 561.14662 -238.034208 
L 561.941173 -236.526052 
L 562.735725 -241.314399 
L 563.530278 -241.907722 
L 564.32483 -240.957037 
L 565.119383 -237.707818 
L 565.913935 -235.69536 
L 566.708488 -240.257989 
L 567.50304 -234.963017 
L 568.297593 -239.178412 
L 569.092145 -242.113334 
L 569.886698 -240.457612 
L 570.68125 -242.189363 
L 571.475802 -235.456492 
L 572.270355 -242.256626 
L 573.064907 -240.616963 
L 573.85946 -236.436664 
L 574.654012 -243.279255 
L 575.448565 -239.615345 
L 576.243117 -240.773371 
L 577.03767 -241.63426 
L 577.832222 -234.995421 
L 578.626775 -235.345854 
L 579.421327 -234.401852 
L 580.21588 -237.694729 
L 581.010432 -236.328327 
L 581.804985 -238.070389 
L 582.599537 -233.891086 
L 583.39409 -237.803525 
L 584.188642 -240.167794 
L 584.983194 -238.503578 
L 585.777747 -239.239584 
L 586.572299 -240.968195 
L 587.366852 -239.818274 
L 588.161404 -238.585892 
L 588.955957 -244.268657 
L 589.750509 -240.304081 
L 590.545062 -236.748042 
L 591.339614 -240.721742 
L 592.134167 -240.771256 
L 592.928719 -238.43051 
L 593.723272 -229.08578 
L 594.517824 -235.045389 
L 595.312377 -236.793284 
L 596.106929 -239.007328 
L 596.901481 -237.988051 
L 597.696034 -234.893172 
L 598.490586 -240.508793 
L 599.285139 -236.149042 
L 600.079691 -238.634321 
L 600.874244 -239.292833 
L 601.668796 -244.503054 
L 602.463349 -235.130058 
L 603.257901 -238.507501 
L 604.052454 -236.743304 
L 604.847006 -244.380209 
L 605.641559 -241.329443 
L 606.436111 -235.56357 
L 607.230664 -242.838431 
L 608.025216 -232.733284 
L 608.819769 -238.923019 
L 609.614321 -238.224557 
L 610.408873 -239.060959 
L 611.203426 -235.283795 
L 611.997978 -241.78716 
L 612.792531 -231.896448 
L 613.587083 -238.738292 
L 614.381636 -239.373286 
L 615.176188 -236.805638 
L 615.970741 -241.713194 
L 616.765293 -232.492087 
L 617.559846 -234.701314 
L 618.354398 -238.000315 
L 619.148951 -239.9884 
L 619.943503 -236.713963 
L 620.738056 -232.066058 
L 621.532608 -233.099265 
L 622.32716 -242.355813 
L 623.121713 -235.080552 
L 623.916265 -239.321062 
L 624.710818 -239.369791 
L 625.50537 -241.284557 
L 626.299923 -234.666656 
L 627.094475 -237.438511 
L 627.889028 -236.958053 
L 628.68358 -235.96102 
L 629.478133 -239.808318 
L 630.272685 -234.345354 
L 631.067238 -231.099409 
L 631.86179 -239.29177 
L 632.656343 -241.162543 
L 633.450895 -241.131708 
L 634.245448 -238.306705 
L 635.04 -236.086519 
L 635.04 -245.241056 
L 635.04 -245.241056 
L 634.245448 -244.968199 
L 633.450895 -246.464473 
L 632.656343 -246.695342 
L 631.86179 -245.851741 
L 631.067238 -239.627892 
L 630.272685 -244.296146 
L 629.478133 -245.755693 
L 628.68358 -243.973157 
L 627.889028 -245.851508 
L 627.094475 -244.142562 
L 626.299923 -241.919446 
L 625.50537 -249.348425 
L 624.710818 -245.150115 
L 623.916265 -246.129384 
L 623.121713 -243.900113 
L 622.32716 -249.775646 
L 621.532608 -238.165656 
L 620.738056 -239.048172 
L 619.943503 -244.421549 
L 619.148951 -246.466904 
L 618.354398 -246.137803 
L 617.559846 -242.381904 
L 616.765293 -239.125484 
L 615.970741 -245.28159 
L 615.176188 -241.256263 
L 614.381636 -246.854298 
L 613.587083 -242.844009 
L 612.792531 -241.26331 
L 611.997978 -248.612969 
L 611.203426 -244.209423 
L 610.408873 -248.284423 
L 609.614321 -245.744838 
L 608.819769 -245.200658 
L 608.025216 -242.948032 
L 607.230664 -249.313293 
L 606.436111 -241.663301 
L 605.641559 -248.342442 
L 604.847006 -249.270759 
L 604.052454 -244.532378 
L 603.257901 -245.623729 
L 602.463349 -239.527063 
L 601.668796 -253.969898 
L 600.874244 -245.6188 
L 600.079691 -243.911533 
L 599.285139 -243.827963 
L 598.490586 -247.155897 
L 597.696034 -242.135758 
L 596.901481 -246.012312 
L 596.106929 -244.229731 
L 595.312377 -242.793784 
L 594.517824 -243.256103 
L 593.723272 -238.706521 
L 592.928719 -248.423189 
L 592.134167 -248.274488 
L 591.339614 -249.376888 
L 590.545062 -244.504267 
L 589.750509 -245.814861 
L 588.955957 -252.556367 
L 588.161404 -246.299954 
L 587.366852 -246.691191 
L 586.572299 -246.309465 
L 585.777747 -244.816322 
L 584.983194 -244.340693 
L 584.188642 -248.045149 
L 583.39409 -243.015126 
L 582.599537 -240.138083 
L 581.804985 -244.17036 
L 581.010432 -244.234316 
L 580.21588 -247.682134 
L 579.421327 -243.057362 
L 578.626775 -243.700558 
L 577.832222 -241.379142 
L 577.03767 -246.147837 
L 576.243117 -246.867038 
L 575.448565 -245.462038 
L 574.654012 -249.818169 
L 573.85946 -244.202492 
L 573.064907 -248.848271 
L 572.270355 -249.728359 
L 571.475802 -240.763316 
L 570.68125 -247.479083 
L 569.886698 -244.756643 
L 569.092145 -249.222407 
L 568.297593 -246.070632 
L 567.50304 -244.326826 
L 566.708488 -244.502571 
L 565.913935 -242.221881 
L 565.119383 -243.736455 
L 564.32483 -246.436224 
L 563.530278 -249.044108 
L 562.735725 -244.458505 
L 561.941173 -243.026257 
L 561.14662 -245.298735 
L 560.352068 -242.158564 
L 559.557515 -241.105329 
L 558.762963 -243.877193 
L 557.96841 -246.821267 
L 557.173858 -241.508093 
L 556.379306 -243.73358 
L 555.584753 -250.599119 
L 554.790201 -236.484197 
L 553.995648 -245.726353 
L 553.201096 -244.70618 
L 552.406543 -245.240655 
L 551.611991 -247.843281 
L 550.817438 -250.116186 
L 550.022886 -245.613033 
L 549.228333 -243.393895 
L 548.433781 -243.796139 
L 547.639228 -242.780967 
L 546.844676 -243.596795 
L 546.050123 -243.593314 
L 545.255571 -239.643951 
L 544.461019 -244.09432 
L 543.666466 -248.242762 
L 542.871914 -250.763511 
L 542.077361 -248.091057 
L 541.282809 -244.430739 
L 540.488256 -246.185127 
L 539.693704 -240.785096 
L 538.899151 -244.774304 
L 538.104599 -240.004515 
L 537.310046 -245.532104 
L 536.515494 -246.321202 
L 535.720941 -244.412085 
L 534.926389 -246.695705 
L 534.131836 -248.973961 
L 533.337284 -244.251504 
L 532.542731 -242.890206 
L 531.748179 -241.811368 
L 530.953627 -247.612511 
L 530.159074 -242.819477 
L 529.364522 -251.691582 
L 528.569969 -236.273529 
L 527.775417 -248.601415 
L 526.980864 -242.425896 
L 526.186312 -247.981764 
L 525.391759 -237.424984 
L 524.597207 -244.256594 
L 523.802654 -247.074526 
L 523.008102 -237.436814 
L 522.213549 -239.298257 
L 521.418997 -247.962158 
L 520.624444 -246.593497 
L 519.829892 -248.87457 
L 519.03534 -241.721835 
L 518.240787 -242.956646 
L 517.446235 -250.812942 
L 516.651682 -247.223059 
L 515.85713 -247.825364 
L 515.062577 -245.934679 
L 514.268025 -247.431607 
L 513.473472 -240.843683 
L 512.67892 -245.339822 
L 511.884367 -247.175386 
L 511.089815 -245.782556 
L 510.295262 -247.85368 
L 509.50071 -243.86512 
L 508.706157 -254.020731 
L 507.911605 -236.792531 
L 507.117052 -245.699388 
L 506.3225 -244.030331 
L 505.527948 -248.383438 
L 504.733395 -242.277714 
L 503.938843 -247.886923 
L 503.14429 -244.230254 
L 502.349738 -245.760329 
L 501.555185 -243.13072 
L 500.760633 -241.19081 
L 499.96608 -246.148081 
L 499.171528 -241.538387 
L 498.376975 -245.217484 
L 497.582423 -240.527317 
L 496.78787 -245.960992 
L 495.993318 -244.150046 
L 495.198765 -243.939294 
L 494.404213 -242.422556 
L 493.60966 -248.178511 
L 492.815108 -246.505678 
L 492.020556 -245.016062 
L 491.226003 -246.293616 
L 490.431451 -240.581455 
L 489.636898 -249.06669 
L 488.842346 -240.337778 
L 488.047793 -243.896368 
L 487.253241 -248.173277 
L 486.458688 -245.664037 
L 485.664136 -239.072654 
L 484.869583 -245.761126 
L 484.075031 -241.850048 
L 483.280478 -239.567248 
L 482.485926 -241.98507 
L 481.691373 -240.962927 
L 480.896821 -243.53416 
L 480.102269 -247.386387 
L 479.307716 -245.764761 
L 478.513164 -240.41883 
L 477.718611 -242.920785 
L 476.924059 -245.788798 
L 476.129506 -242.934469 
L 475.334954 -245.088881 
L 474.540401 -240.722556 
L 473.745849 -241.997698 
L 472.951296 -241.019692 
L 472.156744 -243.194199 
L 471.362191 -241.601609 
L 470.567639 -244.265478 
L 469.773086 -246.196781 
L 468.978534 -239.845472 
L 468.183981 -244.881845 
L 467.389429 -248.208262 
L 466.594877 -243.185618 
L 465.800324 -243.593883 
L 465.005772 -246.147688 
L 464.211219 -246.037415 
L 463.416667 -240.931461 
L 462.622114 -243.92875 
L 461.827562 -240.993723 
L 461.033009 -243.225495 
L 460.238457 -244.804959 
L 459.443904 -246.870519 
L 458.649352 -244.796959 
L 457.854799 -247.393258 
L 457.060247 -243.356582 
L 456.265694 -243.691046 
L 455.471142 -242.552773 
L 454.67659 -250.875918 
L 453.882037 -240.777023 
L 453.087485 -245.177011 
L 452.292932 -244.522699 
L 451.49838 -239.573872 
L 450.703827 -241.525475 
L 449.909275 -249.150457 
L 449.114722 -249.46088 
L 448.32017 -237.280418 
L 447.525617 -242.371081 
L 446.731065 -248.91078 
L 445.936512 -247.272207 
L 445.14196 -246.311369 
L 444.347407 -240.301946 
L 443.552855 -247.864929 
L 442.758302 -246.177097 
L 441.96375 -241.057608 
L 441.169198 -246.508924 
L 440.374645 -244.943418 
L 439.580093 -243.155225 
L 438.78554 -245.310879 
L 437.990988 -245.998079 
L 437.196435 -249.02625 
L 436.401883 -247.928542 
L 435.60733 -243.985714 
L 434.812778 -247.775291 
L 434.018225 -244.740758 
L 433.223673 -245.844892 
L 432.42912 -243.267643 
L 431.634568 -247.284649 
L 430.840015 -244.686611 
L 430.045463 -245.762274 
L 429.25091 -248.011223 
L 428.456358 -246.450032 
L 427.661806 -242.500878 
L 426.867253 -246.055998 
L 426.072701 -245.195583 
L 425.278148 -237.99889 
L 424.483596 -246.934599 
L 423.689043 -245.127687 
L 422.894491 -248.973691 
L 422.099938 -246.57006 
L 421.305386 -244.977477 
L 420.510833 -243.757331 
L 419.716281 -247.174846 
L 418.921728 -247.879622 
L 418.127176 -249.366171 
L 417.332623 -244.083952 
L 416.538071 -248.712857 
L 415.743519 -242.110511 
L 414.948966 -248.949493 
L 414.154414 -249.201043 
L 413.359861 -247.574781 
L 412.565309 -250.680408 
L 411.770756 -249.761307 
L 410.976204 -245.686033 
L 410.181651 -246.379818 
L 409.387099 -243.69327 
L 408.592546 -245.888346 
L 407.797994 -250.672855 
L 407.003441 -244.595803 
L 406.208889 -248.180135 
L 405.414336 -243.230219 
L 404.619784 -245.838496 
L 403.825231 -248.386279 
L 403.030679 -245.497645 
L 402.236127 -244.091817 
L 401.441574 -237.941514 
L 400.647022 -241.543776 
L 399.852469 -236.897936 
L 399.057917 -238.83279 
L 398.263364 -238.299856 
L 397.468812 -242.309972 
L 398.978461 -240.286207 
L 398.899006 -236.563353 
L 398.819551 -238.714058 
L 398.740096 -240.010825 
L 398.66064 -238.779476 
L 398.581185 -236.105553 
L 398.50173 -236.221448 
L 398.422275 -237.101676 
L 398.342819 -233.986486 
L 398.263364 -238.299856 
L 398.183909 -235.095755 
L 398.104454 -234.308668 
L 398.024998 -231.123903 
L 397.945543 -231.050525 
L 397.866088 -230.156446 
L 397.786633 -227.924839 
L 397.707177 -231.579465 
L 397.627722 -233.533671 
L 397.548267 -237.711715 
L 397.468812 -242.309972 
L 396.674259 -250.673764 
L 395.879707 -251.455524 
L 395.085154 -251.707477 
L 394.290602 -254.112959 
L 393.496049 -255.024746 
L 392.701497 -243.435557 
L 391.906944 -244.40531 
L 391.112392 -250.495312 
L 390.31784 -250.539933 
L 389.523287 -244.235042 
L 388.728735 -249.535457 
L 387.934182 -248.25893 
L 387.13963 -255.387021 
L 386.345077 -247.097727 
L 385.550525 -252.182156 
L 384.755972 -245.666643 
L 383.96142 -250.897119 
L 383.166867 -249.607824 
L 382.372315 -249.807488 
L 381.577762 -251.443751 
L 380.78321 -251.59302 
L 379.988657 -252.096523 
L 379.194105 -249.944424 
L 378.399552 -253.932499 
L 377.605 -248.009191 
z
" style="stroke: #8180ff; stroke-opacity: 0.2"/>
    </defs>
    <g clip-path="url(#p5d020ae7b2)">
     <use xlink:href="#m89225bcc71" x="0" y="270" style="fill: #8180ff; fill-opacity: 0.2; stroke: #8180ff; stroke-opacity: 0.2"/>
    </g>
   </g>
   <g id="line2d_14">
    <path d="M 377.605 24.683656 
L 378.399552 18.368728 
L 379.194105 22.685973 
L 379.988657 19.91199 
L 380.78321 21.36171 
L 382.372315 22.563801 
L 383.166867 22.683463 
L 383.96142 23.026667 
L 384.755972 26.715347 
L 385.550525 20.427256 
L 386.345077 25.151013 
L 387.13963 17.302988 
L 387.934182 32.877996 
L 388.728735 22.445529 
L 389.523287 27.6889 
L 390.31784 21.503301 
L 391.112392 22.247333 
L 391.906944 27.613912 
L 392.701497 28.483738 
L 393.496049 17.447142 
L 395.085154 20.411557 
L 395.879707 20.010459 
L 396.674259 21.156473 
L 397.468812 30.587141 
L 397.786633 44.873859 
L 397.945543 41.638426 
L 398.024998 41.207955 
L 398.263364 34.966635 
L 398.342819 37.954138 
L 398.50173 35.977382 
L 398.581185 36.993849 
L 398.740096 32.671425 
L 398.819551 33.786474 
L 398.899006 36.85336 
L 398.978461 32.584597 
L 397.468812 30.587141 
L 398.263364 34.966635 
L 399.057917 34.191983 
L 399.852469 35.743021 
L 400.647022 32.193599 
L 401.441574 35.061417 
L 402.236127 29.199585 
L 403.030679 27.909582 
L 403.825231 24.770699 
L 404.619784 27.402415 
L 405.414336 29.368597 
L 406.208889 25.864116 
L 407.003441 28.270714 
L 407.797994 23.207285 
L 408.592546 27.102696 
L 409.387099 29.78345 
L 410.181651 26.701639 
L 410.976204 27.396166 
L 411.770756 23.797959 
L 412.565309 22.340723 
L 413.359861 25.010817 
L 414.154414 24.63708 
L 414.948966 24.447438 
L 415.743519 31.314219 
L 416.538071 24.077623 
L 417.332623 28.435112 
L 418.127176 24.101329 
L 418.921728 26.953999 
L 419.716281 26.916238 
L 420.510833 29.538446 
L 421.305386 28.262899 
L 422.099938 27.223041 
L 422.894491 23.885982 
L 423.689043 27.915205 
L 424.483596 26.769841 
L 425.278148 34.697955 
L 426.072701 29.234105 
L 426.867253 28.009013 
L 427.661806 30.075859 
L 429.25091 25.306565 
L 430.840015 28.324828 
L 431.634568 26.136834 
L 432.42912 29.113131 
L 433.223673 27.502625 
L 434.018225 27.782248 
L 434.812778 25.135753 
L 435.60733 29.202553 
L 436.401883 26.34238 
L 437.196435 24.243424 
L 437.990988 27.141869 
L 438.78554 26.83017 
L 439.580093 29.61669 
L 440.374645 28.854526 
L 441.169198 28.570203 
L 441.96375 33.117315 
L 442.758302 27.054601 
L 443.552855 24.358896 
L 444.347407 32.811744 
L 445.14196 27.137842 
L 445.936512 25.775947 
L 446.731065 24.105112 
L 447.525617 30.869287 
L 448.32017 36.591444 
L 449.114722 23.459221 
L 449.909275 24.329757 
L 450.703827 31.21478 
L 451.49838 33.366066 
L 452.292932 28.388078 
L 453.087485 29.016994 
L 453.882037 32.416065 
L 454.67659 22.825338 
L 455.471142 30.166511 
L 456.265694 30.299884 
L 457.060247 30.797984 
L 457.854799 25.128822 
L 458.649352 28.511585 
L 459.443904 26.454015 
L 460.238457 27.85343 
L 461.033009 29.769183 
L 461.827562 32.337189 
L 462.622114 30.45096 
L 463.416667 32.042548 
L 464.211219 26.04009 
L 465.005772 26.371604 
L 465.800324 29.518289 
L 466.594877 31.492675 
L 467.389429 26.133392 
L 468.978534 32.524876 
L 469.773086 27.084134 
L 471.362191 32.590107 
L 472.156744 28.440259 
L 472.951296 30.917974 
L 473.745849 32.052249 
L 474.540401 32.325059 
L 475.334954 28.094767 
L 476.129506 31.121365 
L 476.924059 28.482699 
L 477.718611 29.880409 
L 478.513164 33.174928 
L 479.307716 27.031064 
L 480.102269 25.327845 
L 480.896821 28.641411 
L 481.691373 32.450723 
L 482.485926 32.228093 
L 483.280478 33.915782 
L 484.869583 28.470929 
L 485.664136 35.568944 
L 486.458688 27.068756 
L 487.253241 25.403296 
L 488.842346 32.961595 
L 489.636898 24.344026 
L 490.431451 30.980883 
L 491.226003 25.944594 
L 492.020556 28.283123 
L 492.815108 28.344863 
L 493.60966 24.595826 
L 494.404213 31.577923 
L 495.198765 28.950674 
L 495.993318 28.772163 
L 496.78787 29.053014 
L 497.582423 32.716036 
L 498.376975 27.283799 
L 499.171528 31.815124 
L 499.96608 27.043687 
L 500.760633 31.758975 
L 501.555185 30.880596 
L 502.349738 27.924512 
L 503.14429 29.294536 
L 503.938843 25.726364 
L 504.733395 30.318916 
L 505.527948 24.259211 
L 506.3225 29.019887 
L 507.117052 27.477618 
L 507.911605 37.283079 
L 508.706157 18.595338 
L 509.50071 29.364014 
L 510.295262 25.264941 
L 511.089815 28.386596 
L 511.884367 26.754201 
L 512.67892 29.121542 
L 513.473472 32.636943 
L 514.268025 26.041401 
L 515.062577 27.542582 
L 515.85713 26.813162 
L 516.651682 26.460238 
L 517.446235 21.79424 
L 518.240787 30.419128 
L 519.03534 31.731733 
L 519.829892 24.89077 
L 520.624444 27.878879 
L 521.418997 26.0661 
L 522.213549 32.818785 
L 523.008102 36.377665 
L 523.802654 26.945666 
L 524.597207 30.307534 
L 525.391759 34.692323 
L 526.186312 25.698314 
L 526.980864 30.916428 
L 527.775417 25.186183 
L 528.569969 36.456815 
L 529.364522 21.934877 
L 530.159074 30.982037 
L 530.953627 26.018532 
L 531.748179 31.161264 
L 532.542731 30.83325 
L 533.337284 29.560348 
L 534.131836 25.797016 
L 534.926389 27.976014 
L 535.720941 29.630866 
L 536.515494 27.121194 
L 537.310046 28.620928 
L 538.104599 34.495616 
L 538.899151 28.663359 
L 539.693704 31.666575 
L 540.488256 26.653666 
L 541.282809 27.812228 
L 542.077361 25.218611 
L 542.871914 25.122288 
L 543.666466 23.896658 
L 544.461019 28.160758 
L 545.255571 33.887717 
L 546.050123 29.321944 
L 546.844676 29.164817 
L 547.639228 29.604213 
L 548.433781 28.486937 
L 549.228333 29.055674 
L 550.022886 27.851191 
L 550.817438 24.090092 
L 551.611991 25.392133 
L 552.406543 27.925171 
L 553.201096 29.415965 
L 553.995648 26.683004 
L 554.790201 36.598691 
L 555.584753 21.489657 
L 556.379306 29.343817 
L 557.173858 31.815375 
L 557.96841 25.594709 
L 558.762963 30.758204 
L 559.557515 31.286982 
L 560.352068 31.992661 
L 561.14662 28.333529 
L 561.941173 30.223846 
L 562.735725 27.113548 
L 563.530278 24.524085 
L 564.32483 26.30337 
L 565.119383 29.277863 
L 565.913935 31.041379 
L 566.708488 27.61972 
L 567.50304 30.355079 
L 569.092145 24.33213 
L 569.886698 27.392873 
L 570.68125 25.165777 
L 571.475802 31.890096 
L 572.270355 24.007507 
L 573.064907 25.267383 
L 573.85946 29.680422 
L 574.654012 23.451288 
L 575.448565 27.461309 
L 576.243117 26.179796 
L 577.03767 26.108952 
L 577.832222 31.812719 
L 578.626775 30.476794 
L 579.421327 31.270393 
L 580.21588 27.311569 
L 581.010432 29.718679 
L 581.804985 28.879626 
L 582.599537 32.985415 
L 584.188642 25.893528 
L 584.983194 28.577864 
L 585.777747 27.972047 
L 586.572299 26.36117 
L 587.366852 26.745267 
L 588.161404 27.557077 
L 588.955957 21.587488 
L 589.750509 26.940529 
L 590.545062 29.373845 
L 591.339614 24.950685 
L 592.134167 25.477128 
L 592.928719 26.573151 
L 593.723272 36.103849 
L 594.517824 30.849254 
L 595.312377 30.206466 
L 596.106929 28.381471 
L 596.901481 27.999818 
L 597.696034 31.485535 
L 598.490586 26.167655 
L 599.285139 30.011498 
L 600.874244 27.544184 
L 601.668796 20.763524 
L 602.463349 32.67144 
L 603.257901 27.934385 
L 604.052454 29.362159 
L 604.847006 23.174516 
L 605.641559 25.164057 
L 606.436111 31.386565 
L 607.230664 23.924138 
L 608.025216 32.159342 
L 608.819769 27.938162 
L 609.614321 28.015302 
L 610.408873 26.327309 
L 611.203426 30.253391 
L 611.997978 24.799936 
L 612.792531 33.420121 
L 613.587083 29.20885 
L 614.381636 26.886208 
L 615.176188 30.969049 
L 615.970741 26.502608 
L 616.765293 34.191214 
L 617.559846 31.458391 
L 618.354398 27.930941 
L 619.148951 26.772348 
L 619.943503 29.432244 
L 620.738056 34.442885 
L 621.532608 34.367539 
L 622.32716 23.93427 
L 623.121713 30.509668 
L 623.916265 27.274777 
L 624.710818 27.740047 
L 625.50537 24.683509 
L 626.299923 31.706949 
L 627.094475 29.209463 
L 627.889028 28.595219 
L 628.68358 30.032911 
L 629.478133 27.217995 
L 631.067238 34.63635 
L 631.86179 27.428245 
L 632.656343 26.071057 
L 633.450895 26.20191 
L 634.245448 28.362548 
L 635.04 29.336213 
L 635.04 29.336213 
" clip-path="url(#p5d020ae7b2)" style="fill: none; stroke: #8180ff; stroke-width: 1.5; stroke-linecap: square"/>
   </g>
   <g id="matplotlib.axis_3">
    <g id="xtick_7">
     <g id="line2d_15">
      <g>
       <use xlink:href="#m2694275236" x="397.468812" y="218.04" style="stroke: #000000; stroke-width: 0.8"/>
      </g>
     </g>
     <g id="text_15">
      <!-- 3000 -->
      <g transform="translate(379.653812 235.677813) scale(0.14 -0.14)">
       <use xlink:href="#DejaVuSans-33"/>
       <use xlink:href="#DejaVuSans-30" x="63.623047"/>
       <use xlink:href="#DejaVuSans-30" x="127.246094"/>
       <use xlink:href="#DejaVuSans-30" x="190.869141"/>
      </g>
     </g>
    </g>
    <g id="xtick_8">
     <g id="line2d_16">
      <g>
       <use xlink:href="#m2694275236" x="437.196435" y="218.04" style="stroke: #000000; stroke-width: 0.8"/>
      </g>
     </g>
     <g id="text_16">
      <!-- 3500 -->
      <g transform="translate(419.381435 235.677813) scale(0.14 -0.14)">
       <use xlink:href="#DejaVuSans-33"/>
       <use xlink:href="#DejaVuSans-35" x="63.623047"/>
       <use xlink:href="#DejaVuSans-30" x="127.246094"/>
       <use xlink:href="#DejaVuSans-30" x="190.869141"/>
      </g>
     </g>
    </g>
    <g id="xtick_9">
     <g id="line2d_17">
      <g>
       <use xlink:href="#m2694275236" x="476.924059" y="218.04" style="stroke: #000000; stroke-width: 0.8"/>
      </g>
     </g>
     <g id="text_17">
      <!-- 4000 -->
      <g transform="translate(459.109059 235.677813) scale(0.14 -0.14)">
       <use xlink:href="#DejaVuSans-34"/>
       <use xlink:href="#DejaVuSans-30" x="63.623047"/>
       <use xlink:href="#DejaVuSans-30" x="127.246094"/>
       <use xlink:href="#DejaVuSans-30" x="190.869141"/>
      </g>
     </g>
    </g>
    <g id="xtick_10">
     <g id="line2d_18">
      <g>
       <use xlink:href="#m2694275236" x="516.651682" y="218.04" style="stroke: #000000; stroke-width: 0.8"/>
      </g>
     </g>
     <g id="text_18">
      <!-- 4500 -->
      <g transform="translate(498.836682 235.677813) scale(0.14 -0.14)">
       <use xlink:href="#DejaVuSans-34"/>
       <use xlink:href="#DejaVuSans-35" x="63.623047"/>
       <use xlink:href="#DejaVuSans-30" x="127.246094"/>
       <use xlink:href="#DejaVuSans-30" x="190.869141"/>
      </g>
     </g>
    </g>
    <g id="xtick_11">
     <g id="line2d_19">
      <g>
       <use xlink:href="#m2694275236" x="556.379306" y="218.04" style="stroke: #000000; stroke-width: 0.8"/>
      </g>
     </g>
     <g id="text_19">
      <!-- 5000 -->
      <g transform="translate(538.564306 235.677813) scale(0.14 -0.14)">
       <use xlink:href="#DejaVuSans-35"/>
       <use xlink:href="#DejaVuSans-30" x="63.623047"/>
       <use xlink:href="#DejaVuSans-30" x="127.246094"/>
       <use xlink:href="#DejaVuSans-30" x="190.869141"/>
      </g>
     </g>
    </g>
    <g id="xtick_12">
     <g id="line2d_20">
      <g>
       <use xlink:href="#m2694275236" x="596.106929" y="218.04" style="stroke: #000000; stroke-width: 0.8"/>
      </g>
     </g>
     <g id="text_20">
      <!-- 5500 -->
      <g transform="translate(578.291929 235.677813) scale(0.14 -0.14)">
       <use xlink:href="#DejaVuSans-35"/>
       <use xlink:href="#DejaVuSans-35" x="63.623047"/>
       <use xlink:href="#DejaVuSans-30" x="127.246094"/>
       <use xlink:href="#DejaVuSans-30" x="190.869141"/>
      </g>
     </g>
    </g>
    <g id="text_21">
     <!-- Rendition number -->
     <g transform="translate(443.688906 253.227188) scale(0.14 -0.14)">
      <use xlink:href="#DejaVuSans-52"/>
      <use xlink:href="#DejaVuSans-65" x="64.982422"/>
      <use xlink:href="#DejaVuSans-6e" x="126.505859"/>
      <use xlink:href="#DejaVuSans-64" x="189.884766"/>
      <use xlink:href="#DejaVuSans-69" x="253.361328"/>
      <use xlink:href="#DejaVuSans-74" x="281.144531"/>
      <use xlink:href="#DejaVuSans-69" x="320.353516"/>
      <use xlink:href="#DejaVuSans-6f" x="348.136719"/>
      <use xlink:href="#DejaVuSans-6e" x="409.318359"/>
      <use xlink:href="#DejaVuSans-20" x="472.697266"/>
      <use xlink:href="#DejaVuSans-6e" x="504.484375"/>
      <use xlink:href="#DejaVuSans-75" x="567.863281"/>
      <use xlink:href="#DejaVuSans-6d" x="631.242188"/>
      <use xlink:href="#DejaVuSans-62" x="728.654297"/>
      <use xlink:href="#DejaVuSans-65" x="792.130859"/>
      <use xlink:href="#DejaVuSans-72" x="853.654297"/>
     </g>
    </g>
   </g>
   <g id="matplotlib.axis_4">
    <g id="ytick_7">
     <g id="line2d_21">
      <g>
       <use xlink:href="#m19ecc76257" x="377.605" y="218.04" style="stroke: #000000; stroke-width: 0.8"/>
      </g>
     </g>
     <g id="text_22">
      <!-- 0.0 -->
      <g transform="translate(348.340625 223.358906) scale(0.14 -0.14)">
       <use xlink:href="#DejaVuSans-30"/>
       <use xlink:href="#DejaVuSans-2e" x="63.623047"/>
       <use xlink:href="#DejaVuSans-30" x="95.410156"/>
      </g>
     </g>
    </g>
    <g id="ytick_8">
     <g id="line2d_22">
      <g>
       <use xlink:href="#m19ecc76257" x="377.605" y="178.944273" style="stroke: #000000; stroke-width: 0.8"/>
      </g>
     </g>
     <g id="text_23">
      <!-- 0.2 -->
      <g transform="translate(348.340625 184.263179) scale(0.14 -0.14)">
       <use xlink:href="#DejaVuSans-30"/>
       <use xlink:href="#DejaVuSans-2e" x="63.623047"/>
       <use xlink:href="#DejaVuSans-32" x="95.410156"/>
      </g>
     </g>
    </g>
    <g id="ytick_9">
     <g id="line2d_23">
      <g>
       <use xlink:href="#m19ecc76257" x="377.605" y="139.848546" style="stroke: #000000; stroke-width: 0.8"/>
      </g>
     </g>
     <g id="text_24">
      <!-- 0.4 -->
      <g transform="translate(348.340625 145.167452) scale(0.14 -0.14)">
       <use xlink:href="#DejaVuSans-30"/>
       <use xlink:href="#DejaVuSans-2e" x="63.623047"/>
       <use xlink:href="#DejaVuSans-34" x="95.410156"/>
      </g>
     </g>
    </g>
    <g id="ytick_10">
     <g id="line2d_24">
      <g>
       <use xlink:href="#m19ecc76257" x="377.605" y="100.752818" style="stroke: #000000; stroke-width: 0.8"/>
      </g>
     </g>
     <g id="text_25">
      <!-- 0.6 -->
      <g transform="translate(348.340625 106.071725) scale(0.14 -0.14)">
       <use xlink:href="#DejaVuSans-30"/>
       <use xlink:href="#DejaVuSans-2e" x="63.623047"/>
       <use xlink:href="#DejaVuSans-36" x="95.410156"/>
      </g>
     </g>
    </g>
    <g id="ytick_11">
     <g id="line2d_25">
      <g>
       <use xlink:href="#m19ecc76257" x="377.605" y="61.657091" style="stroke: #000000; stroke-width: 0.8"/>
      </g>
     </g>
     <g id="text_26">
      <!-- 0.8 -->
      <g transform="translate(348.340625 66.975997) scale(0.14 -0.14)">
       <use xlink:href="#DejaVuSans-30"/>
       <use xlink:href="#DejaVuSans-2e" x="63.623047"/>
       <use xlink:href="#DejaVuSans-38" x="95.410156"/>
      </g>
     </g>
    </g>
    <g id="ytick_12">
     <g id="line2d_26">
      <g>
       <use xlink:href="#m19ecc76257" x="377.605" y="22.561364" style="stroke: #000000; stroke-width: 0.8"/>
      </g>
     </g>
     <g id="text_27">
      <!-- 1.0 -->
      <g transform="translate(348.340625 27.88027) scale(0.14 -0.14)">
       <use xlink:href="#DejaVuSans-31"/>
       <use xlink:href="#DejaVuSans-2e" x="63.623047"/>
       <use xlink:href="#DejaVuSans-30" x="95.410156"/>
      </g>
     </g>
    </g>
    <g id="text_28">
     <!-- Mean inhibitory activity -->
     <g transform="translate(341.429062 198.023438) rotate(-90) scale(0.14 -0.14)">
      <defs>
       <path id="DejaVuSans-68" d="M 3513 2113 
L 3513 0 
L 2938 0 
L 2938 2094 
Q 2938 2591 2744 2837 
Q 2550 3084 2163 3084 
Q 1697 3084 1428 2787 
Q 1159 2491 1159 1978 
L 1159 0 
L 581 0 
L 581 4863 
L 1159 4863 
L 1159 2956 
Q 1366 3272 1645 3428 
Q 1925 3584 2291 3584 
Q 2894 3584 3203 3211 
Q 3513 2838 3513 2113 
z
" transform="scale(0.015625)"/>
      </defs>
      <use xlink:href="#DejaVuSans-4d"/>
      <use xlink:href="#DejaVuSans-65" x="86.279297"/>
      <use xlink:href="#DejaVuSans-61" x="147.802734"/>
      <use xlink:href="#DejaVuSans-6e" x="209.082031"/>
      <use xlink:href="#DejaVuSans-20" x="272.460938"/>
      <use xlink:href="#DejaVuSans-69" x="304.248047"/>
      <use xlink:href="#DejaVuSans-6e" x="332.03125"/>
      <use xlink:href="#DejaVuSans-68" x="395.410156"/>
      <use xlink:href="#DejaVuSans-69" x="458.789062"/>
      <use xlink:href="#DejaVuSans-62" x="486.572266"/>
      <use xlink:href="#DejaVuSans-69" x="550.048828"/>
      <use xlink:href="#DejaVuSans-74" x="577.832031"/>
      <use xlink:href="#DejaVuSans-6f" x="617.041016"/>
      <use xlink:href="#DejaVuSans-72" x="678.222656"/>
      <use xlink:href="#DejaVuSans-79" x="719.335938"/>
      <use xlink:href="#DejaVuSans-20" x="778.515625"/>
      <use xlink:href="#DejaVuSans-61" x="810.302734"/>
      <use xlink:href="#DejaVuSans-63" x="871.582031"/>
      <use xlink:href="#DejaVuSans-74" x="926.5625"/>
      <use xlink:href="#DejaVuSans-69" x="965.771484"/>
      <use xlink:href="#DejaVuSans-76" x="993.554688"/>
      <use xlink:href="#DejaVuSans-69" x="1052.734375"/>
      <use xlink:href="#DejaVuSans-74" x="1080.517578"/>
      <use xlink:href="#DejaVuSans-79" x="1119.726562"/>
     </g>
    </g>
   </g>
   <g id="patch_6">
    <path d="M 377.605 218.04 
L 377.605 12.96 
" style="fill: none; stroke: #000000; stroke-width: 3; stroke-linejoin: miter; stroke-linecap: square"/>
   </g>
   <g id="patch_7">
    <path d="M 377.605 218.04 
L 635.04 218.04 
" style="fill: none; stroke: #000000; stroke-width: 3; stroke-linejoin: miter; stroke-linecap: square"/>
   </g>
  </g>
 </g>
 <defs>
  <clipPath id="p877a00c2b2">
   <rect x="60.085" y="12.96" width="257.435" height="205.08"/>
  </clipPath>
  <clipPath id="p5d020ae7b2">
   <rect x="377.605" y="12.96" width="257.435" height="205.08"/>
  </clipPath>
 </defs>
</svg>
