<?xml version="1.0" encoding="utf-8" standalone="no"?>
<!DOCTYPE svg PUBLIC "-//W3C//DTD SVG 1.1//EN"
  "http://www.w3.org/Graphics/SVG/1.1/DTD/svg11.dtd">
<svg xmlns:xlink="http://www.w3.org/1999/xlink" width="648pt" height="270pt" viewBox="0 0 648 270" xmlns="http://www.w3.org/2000/svg" version="1.1">
 <metadata>
  <rdf:RDF xmlns:dc="http://purl.org/dc/elements/1.1/" xmlns:cc="http://creativecommons.org/ns#" xmlns:rdf="http://www.w3.org/1999/02/22-rdf-syntax-ns#">
   <cc:Work>
    <dc:type rdf:resource="http://purl.org/dc/dcmitype/StillImage"/>
    <dc:date>2023-04-17T11:32:58.657918</dc:date>
    <dc:format>image/svg+xml</dc:format>
    <dc:creator>
     <cc:Agent>
      <dc:title>Matplotlib v3.6.3, https://matplotlib.org/</dc:title>
     </cc:Agent>
    </dc:creator>
   </cc:Work>
  </rdf:RDF>
 </metadata>
 <defs>
  <style type="text/css">*{stroke-linejoin: round; stroke-linecap: butt}</style>
 </defs>
 <g id="figure_1">
  <g id="patch_1">
   <path d="M 0 270 
L 648 270 
L 648 0 
L 0 0 
L 0 270 
z
" style="fill: none"/>
  </g>
  <g id="axes_1">
   <g id="patch_2">
    <path d="M 60.085 218.04 
L 317.52 218.04 
L 317.52 12.96 
L 60.085 12.96 
z
" style="fill: #ffffff"/>
   </g>
   <g id="PolyCollection_1">
    <defs>
     <path id="m6231d49fcf" d="M 60.085 -243.845804 
L 60.085 -240.254301 
L 60.879552 -242.649793 
L 61.674105 -240.152993 
L 62.468657 -242.408056 
L 63.26321 -241.305599 
L 64.057762 -241.021569 
L 64.852315 -240.664444 
L 65.646867 -241.549053 
L 66.44142 -240.156499 
L 67.235972 -236.988137 
L 68.030525 -242.363141 
L 68.825077 -239.144771 
L 69.61963 -244.117474 
L 70.414182 -217.208709 
L 71.208735 -242.623948 
L 72.003287 -237.94211 
L 72.79784 -241.312251 
L 73.592392 -239.190759 
L 74.386944 -239.36782 
L 75.181497 -236.629307 
L 75.976049 -246.172986 
L 76.770602 -242.855 
L 77.565154 -243.018313 
L 78.359707 -243.835576 
L 79.154259 -240.374894 
L 79.948812 -191.039365 
L 80.028267 -166.430127 
L 80.107722 -170.963928 
L 80.187177 -121.488999 
L 80.266633 -92.754208 
L 80.346088 -111.864821 
L 80.425543 -105.626759 
L 80.504998 -113.706152 
L 80.584454 -114.618313 
L 80.663909 -125.872379 
L 80.743364 -127.083488 
L 80.822819 -120.217726 
L 80.902275 -128.77774 
L 80.98173 -130.759855 
L 81.061185 -131.031157 
L 81.14064 -131.958894 
L 81.220096 -133.517529 
L 81.299551 -135.954145 
L 81.379006 -141.573959 
L 81.458461 -136.129868 
L 79.948812 -191.039365 
L 80.743364 -127.083488 
L 81.537917 -139.785889 
L 82.332469 -152.358652 
L 83.127022 -166.378924 
L 83.921574 -172.235961 
L 84.716127 -167.836662 
L 85.510679 -181.70109 
L 86.305231 -184.174696 
L 87.099784 -185.729143 
L 87.894336 -177.619161 
L 88.688889 -186.660048 
L 89.483441 -182.119483 
L 90.277994 -188.299875 
L 91.072546 -177.023457 
L 91.867099 -177.977251 
L 92.661651 -177.653509 
L 93.456204 -187.85711 
L 94.250756 -180.865541 
L 95.045309 -193.215248 
L 95.839861 -188.71312 
L 96.634414 -191.256162 
L 97.428966 -187.200999 
L 98.223519 -189.131248 
L 99.018071 -193.217308 
L 99.812623 -192.520639 
L 100.607176 -190.756941 
L 101.401728 -189.795001 
L 102.196281 -190.948628 
L 102.990833 -170.899573 
L 103.785386 -190.856563 
L 104.579938 -186.911442 
L 105.374491 -177.291453 
L 106.169043 -187.320599 
L 106.963596 -194.394477 
L 107.758148 -184.991968 
L 108.552701 -184.196084 
L 109.347253 -188.407044 
L 110.141806 -185.791604 
L 110.936358 -180.005942 
L 111.73091 -176.513858 
L 112.525463 -189.008247 
L 113.320015 -192.975896 
L 114.114568 -187.396217 
L 114.90912 -190.576016 
L 115.703673 -179.054272 
L 116.498225 -192.708114 
L 117.292778 -172.550705 
L 118.08733 -179.242882 
L 118.881883 -194.906281 
L 119.676435 -188.349021 
L 120.470988 -189.977085 
L 121.26554 -188.335399 
L 122.060093 -179.358337 
L 122.854645 -178.115629 
L 123.649198 -182.244872 
L 124.44375 -186.864134 
L 125.238302 -188.749644 
L 126.032855 -188.516834 
L 126.827407 -193.505101 
L 127.62196 -184.879346 
L 128.416512 -187.433309 
L 129.211065 -193.408616 
L 130.005617 -186.066143 
L 130.80017 -189.722719 
L 131.594722 -195.017821 
L 132.389275 -188.666043 
L 133.183827 -191.12508 
L 133.97838 -185.764377 
L 134.772932 -189.735766 
L 135.567485 -180.916245 
L 136.362037 -184.806214 
L 137.15659 -192.005102 
L 137.951142 -185.19719 
L 138.745694 -184.872147 
L 139.540247 -187.117982 
L 140.334799 -180.970124 
L 141.129352 -191.561681 
L 141.923904 -183.060204 
L 142.718457 -185.727385 
L 143.513009 -186.177332 
L 144.307562 -186.460724 
L 145.102114 -181.27914 
L 145.896667 -184.623725 
L 146.691219 -179.324763 
L 147.485772 -191.57477 
L 148.280324 -191.549319 
L 149.074877 -189.681213 
L 149.869429 -189.254845 
L 150.663981 -190.326181 
L 151.458534 -175.723255 
L 152.253086 -183.801702 
L 153.047639 -193.208389 
L 153.842191 -192.006155 
L 154.636744 -184.343378 
L 155.431296 -192.01766 
L 156.225849 -189.956198 
L 157.020401 -186.394006 
L 157.814954 -181.813229 
L 158.609506 -167.34888 
L 159.404059 -191.417126 
L 160.198611 -188.380762 
L 160.993164 -189.967017 
L 161.787716 -186.608746 
L 162.582269 -186.368539 
L 163.376821 -183.167915 
L 164.171373 -183.446125 
L 164.965926 -188.794993 
L 165.760478 -186.599526 
L 166.555031 -188.618831 
L 167.349583 -182.512682 
L 168.144136 -176.058407 
L 168.938688 -188.034554 
L 169.733241 -187.083429 
L 170.527793 -185.237551 
L 171.322346 -182.602496 
L 172.116898 -185.955618 
L 172.911451 -190.569728 
L 173.706003 -186.753411 
L 174.500556 -175.723077 
L 175.295108 -187.546409 
L 176.08966 -187.87932 
L 176.884213 -186.675589 
L 177.678765 -181.33927 
L 178.473318 -171.192475 
L 179.26787 -186.622676 
L 180.062423 -178.224727 
L 180.856975 -185.880384 
L 181.651528 -183.679812 
L 182.44608 -183.771908 
L 183.240633 -184.3296 
L 184.035185 -186.529126 
L 184.829738 -184.382242 
L 185.62429 -192.290767 
L 186.418843 -186.490149 
L 187.213395 -183.96737 
L 188.007948 -186.405725 
L 188.8025 -189.176373 
L 189.597052 -190.758857 
L 190.391605 -169.354102 
L 191.186157 -189.80783 
L 191.98071 -186.450733 
L 192.775262 -184.28329 
L 193.569815 -184.39777 
L 194.364367 -186.394931 
L 195.15892 -187.783374 
L 195.953472 -187.160876 
L 196.748025 -183.926852 
L 197.542577 -187.854795 
L 198.33713 -187.315333 
L 199.131682 -188.819372 
L 199.926235 -183.51069 
L 200.720787 -187.258662 
L 201.51534 -191.14414 
L 202.309892 -184.919558 
L 203.104444 -188.696211 
L 203.898997 -189.324037 
L 204.693549 -174.671361 
L 205.488102 -184.312068 
L 206.282654 -186.330228 
L 207.077207 -187.335217 
L 207.871759 -185.237658 
L 208.666312 -185.325497 
L 209.460864 -187.49889 
L 210.255417 -183.386039 
L 211.049969 -186.786364 
L 211.844522 -188.966646 
L 212.639074 -185.938747 
L 213.433627 -188.378574 
L 214.228179 -186.208451 
L 215.022731 -180.019706 
L 215.817284 -184.46391 
L 216.611836 -194.60753 
L 217.406389 -188.749343 
L 218.200941 -185.109754 
L 218.995494 -189.382254 
L 219.790046 -186.069992 
L 220.584599 -187.123603 
L 221.379151 -186.367334 
L 222.173704 -186.669198 
L 222.968256 -185.381787 
L 223.762809 -187.41261 
L 224.557361 -189.846757 
L 225.351914 -188.576448 
L 226.146466 -189.06338 
L 226.941019 -183.183212 
L 227.735571 -185.203243 
L 228.530123 -182.204953 
L 229.324676 -185.093116 
L 230.119228 -185.131344 
L 230.913781 -184.442259 
L 231.708333 -182.847695 
L 232.502886 -180.273893 
L 233.297438 -182.871674 
L 234.091991 -184.120601 
L 234.886543 -181.675771 
L 235.681096 -187.419011 
L 236.475648 -183.55989 
L 237.270201 -181.688721 
L 238.064753 -187.281713 
L 238.859306 -183.692641 
L 239.653858 -185.004367 
L 240.44841 -186.244356 
L 241.242963 -182.941166 
L 242.037515 -186.031503 
L 242.832068 -184.588369 
L 243.62662 -186.475832 
L 244.421173 -179.788548 
L 245.215725 -185.822359 
L 246.010278 -186.455723 
L 246.80483 -180.624509 
L 247.599383 -181.72571 
L 248.393935 -182.495023 
L 249.188488 -186.317125 
L 249.98304 -184.622672 
L 250.777593 -181.525825 
L 251.572145 -184.79928 
L 252.366698 -186.394041 
L 253.16125 -187.798356 
L 253.955802 -186.154235 
L 254.750355 -182.412323 
L 255.544907 -185.105148 
L 256.33946 -183.416912 
L 257.134012 -179.611403 
L 257.928565 -182.62099 
L 258.723117 -184.442776 
L 259.51767 -189.304959 
L 260.312222 -186.57492 
L 261.106775 -183.675491 
L 261.901327 -166.324372 
L 262.69588 -181.788578 
L 263.490432 -183.107387 
L 264.284985 -183.89112 
L 265.079537 -184.050671 
L 265.87409 -182.957865 
L 266.668642 -188.046287 
L 267.463194 -183.554844 
L 268.257747 -185.286124 
L 269.052299 -187.390895 
L 269.846852 -187.33908 
L 270.641404 -185.845183 
L 271.435957 -186.992272 
L 272.230509 -182.558788 
L 273.025062 -185.156851 
L 273.819614 -184.497581 
L 274.614167 -183.847257 
L 275.408719 -186.490538 
L 276.203272 -185.621448 
L 276.997824 -184.543355 
L 277.792377 -187.406916 
L 278.586929 -182.714529 
L 279.381481 -187.275973 
L 280.176034 -181.586366 
L 280.970586 -183.983613 
L 281.765139 -186.336362 
L 282.559691 -177.392772 
L 283.354244 -182.599383 
L 284.148796 -181.541895 
L 284.943349 -178.8054 
L 285.737901 -190.739366 
L 286.532454 -188.353996 
L 287.327006 -186.943126 
L 288.121559 -181.884381 
L 288.916111 -171.982116 
L 289.710664 -181.973367 
L 290.505216 -182.178125 
L 291.299769 -177.159765 
L 292.094321 -185.547203 
L 292.888873 -185.710594 
L 293.683426 -183.107961 
L 294.477978 -184.041172 
L 295.272531 -182.414855 
L 296.067083 -188.800985 
L 296.861636 -187.511641 
L 297.656188 -186.93635 
L 298.450741 -186.375271 
L 299.245293 -186.180208 
L 300.039846 -187.48918 
L 300.834398 -187.1611 
L 301.628951 -185.670774 
L 302.423503 -184.765202 
L 303.218056 -187.959065 
L 304.012608 -190.090825 
L 304.80716 -180.849541 
L 305.601713 -185.739634 
L 306.396265 -186.070063 
L 307.190818 -183.332049 
L 307.98537 -188.057571 
L 308.779923 -186.354262 
L 309.574475 -184.914852 
L 310.369028 -181.727719 
L 311.16358 -186.055593 
L 311.958133 -186.715602 
L 312.752685 -184.733061 
L 313.547238 -190.265227 
L 314.34179 -181.152036 
L 315.136343 -184.426837 
L 315.930895 -185.087205 
L 316.725448 -186.18996 
L 317.52 -183.549496 
L 317.52 -191.86194 
L 317.52 -191.86194 
L 316.725448 -195.441851 
L 315.930895 -193.993914 
L 315.136343 -193.447551 
L 314.34179 -190.670431 
L 313.547238 -197.577851 
L 312.752685 -196.146747 
L 311.958133 -194.952964 
L 311.16358 -193.047915 
L 310.369028 -189.487461 
L 309.574475 -194.948664 
L 308.779923 -193.88086 
L 307.98537 -198.074729 
L 307.190818 -194.425754 
L 306.396265 -195.4225 
L 305.601713 -193.748712 
L 304.80716 -192.658581 
L 304.012608 -200.414865 
L 303.218056 -196.15717 
L 302.423503 -192.276475 
L 301.628951 -192.360342 
L 300.834398 -194.979623 
L 300.039846 -197.537835 
L 299.245293 -194.50283 
L 298.450741 -194.483425 
L 297.656188 -192.337687 
L 296.861636 -195.55821 
L 296.067083 -196.94212 
L 295.272531 -190.232742 
L 294.477978 -194.071815 
L 293.683426 -191.901445 
L 292.888873 -193.313018 
L 292.094321 -194.925302 
L 291.299769 -192.599452 
L 290.505216 -190.790878 
L 289.710664 -190.754488 
L 288.916111 -187.099823 
L 288.121559 -190.056575 
L 287.327006 -195.548895 
L 286.532454 -196.158936 
L 285.737901 -198.696306 
L 284.943349 -190.709817 
L 284.148796 -191.200565 
L 283.354244 -192.461508 
L 282.559691 -194.856745 
L 281.765139 -194.27303 
L 280.970586 -193.241133 
L 280.176034 -191.535434 
L 279.381481 -195.115401 
L 278.586929 -193.506364 
L 277.792377 -197.836474 
L 276.997824 -193.612527 
L 276.203272 -194.962428 
L 275.408719 -198.334545 
L 274.614167 -194.063916 
L 273.819614 -192.520384 
L 273.025062 -193.324836 
L 272.230509 -190.914758 
L 271.435957 -196.640692 
L 270.641404 -193.50683 
L 269.846852 -196.17617 
L 269.052299 -195.671822 
L 268.257747 -195.719989 
L 267.463194 -191.781989 
L 266.668642 -195.429817 
L 265.87409 -192.744828 
L 265.079537 -193.613167 
L 264.284985 -190.195051 
L 263.490432 -191.81039 
L 262.69588 -191.089144 
L 261.901327 -189.401467 
L 261.106775 -194.31219 
L 260.312222 -194.886383 
L 259.51767 -196.614876 
L 258.723117 -191.19791 
L 257.928565 -191.411542 
L 257.134012 -188.389161 
L 256.33946 -194.00338 
L 255.544907 -194.189029 
L 254.750355 -191.733744 
L 253.955802 -194.238582 
L 253.16125 -197.143207 
L 252.366698 -193.173423 
L 251.572145 -193.901534 
L 250.777593 -191.520115 
L 249.98304 -193.426287 
L 249.188488 -193.40204 
L 248.393935 -191.307649 
L 247.599383 -190.422525 
L 246.80483 -189.675317 
L 246.010278 -191.986519 
L 245.215725 -193.831639 
L 244.421173 -189.489851 
L 243.62662 -196.887259 
L 242.832068 -194.245725 
L 242.037515 -192.514179 
L 241.242963 -191.606607 
L 240.44841 -195.460644 
L 239.653858 -193.261847 
L 238.859306 -191.760062 
L 238.064753 -194.65329 
L 237.270201 -192.434021 
L 236.475648 -191.868123 
L 235.681096 -198.155709 
L 234.886543 -190.245326 
L 234.091991 -195.93045 
L 233.297438 -192.958235 
L 232.502886 -189.777958 
L 231.708333 -192.184662 
L 230.913781 -191.814092 
L 230.119228 -195.009623 
L 229.324676 -195.536505 
L 228.530123 -190.082689 
L 227.735571 -192.02952 
L 226.941019 -192.406242 
L 226.146466 -195.63487 
L 225.351914 -195.507568 
L 224.557361 -198.089509 
L 223.762809 -194.617126 
L 222.968256 -194.184154 
L 222.173704 -194.246112 
L 221.379151 -193.897866 
L 220.584599 -196.492519 
L 219.790046 -196.460715 
L 218.995494 -197.752279 
L 218.200941 -192.726565 
L 217.406389 -194.842253 
L 216.611836 -203.632786 
L 215.817284 -192.248796 
L 215.022731 -189.707202 
L 214.228179 -193.111384 
L 213.433627 -194.227193 
L 212.639074 -195.490024 
L 211.844522 -196.011858 
L 211.049969 -194.907752 
L 210.255417 -191.436597 
L 209.460864 -193.781601 
L 208.666312 -192.179022 
L 207.871759 -191.552133 
L 207.077207 -193.978933 
L 206.282654 -194.385541 
L 205.488102 -193.668493 
L 204.693549 -192.794079 
L 203.898997 -197.274669 
L 203.104444 -197.135308 
L 202.309892 -191.60757 
L 201.51534 -198.788203 
L 200.720787 -196.772825 
L 199.926235 -192.637869 
L 199.131682 -195.915116 
L 198.33713 -196.1861 
L 197.542577 -195.023203 
L 196.748025 -191.686612 
L 195.953472 -194.549351 
L 195.15892 -193.530734 
L 194.364367 -195.056146 
L 193.569815 -192.674897 
L 192.775262 -194.899296 
L 191.98071 -196.518104 
L 191.186157 -196.848771 
L 190.391605 -186.790723 
L 189.597052 -200.114336 
L 188.8025 -198.13712 
L 188.007948 -196.842041 
L 187.213395 -192.663157 
L 186.418843 -195.463585 
L 185.62429 -204.74999 
L 184.829738 -194.749531 
L 184.035185 -194.796614 
L 183.240633 -192.684787 
L 182.44608 -191.897581 
L 181.651528 -192.122846 
L 180.856975 -193.641258 
L 180.062423 -197.055561 
L 179.26787 -196.377161 
L 178.473318 -190.916984 
L 177.678765 -188.811282 
L 176.884213 -195.550684 
L 176.08966 -196.138637 
L 175.295108 -198.114979 
L 174.500556 -186.714051 
L 173.706003 -193.455932 
L 172.911451 -198.343706 
L 172.116898 -191.306539 
L 171.322346 -189.462452 
L 170.527793 -194.997753 
L 169.733241 -196.869609 
L 168.938688 -196.195723 
L 168.144136 -193.815447 
L 167.349583 -191.086932 
L 166.555031 -194.158899 
L 165.760478 -196.533869 
L 164.965926 -197.761274 
L 164.171373 -194.228723 
L 163.376821 -194.182688 
L 162.582269 -194.855974 
L 161.787716 -194.00783 
L 160.993164 -198.650997 
L 160.198611 -194.270237 
L 159.404059 -198.686451 
L 158.609506 -183.946328 
L 157.814954 -193.266086 
L 157.020401 -196.798733 
L 156.225849 -195.330088 
L 155.431296 -203.99095 
L 154.636744 -192.181017 
L 153.842191 -199.383778 
L 153.047639 -201.190131 
L 152.253086 -192.559842 
L 151.458534 -192.374052 
L 150.663981 -200.734035 
L 149.869429 -197.68896 
L 149.074877 -196.553242 
L 148.280324 -199.104703 
L 147.485772 -200.170738 
L 146.691219 -188.519085 
L 145.896667 -190.868178 
L 145.102114 -191.595836 
L 144.307562 -197.693535 
L 143.513009 -195.460685 
L 142.718457 -193.077043 
L 141.923904 -192.158797 
L 141.129352 -204.767025 
L 140.334799 -189.531834 
L 139.540247 -195.762782 
L 138.745694 -194.751066 
L 137.951142 -192.041502 
L 137.15659 -200.605522 
L 136.362037 -194.837999 
L 135.567485 -189.033471 
L 134.772932 -197.949808 
L 133.97838 -194.029944 
L 133.183827 -200.569255 
L 132.389275 -197.010004 
L 131.594722 -206.405217 
L 130.80017 -201.482578 
L 130.005617 -195.33873 
L 129.211065 -201.727968 
L 128.416512 -198.569072 
L 127.62196 -195.86947 
L 126.827407 -202.199632 
L 126.032855 -196.35572 
L 125.238302 -202.262458 
L 124.44375 -197.622206 
L 123.649198 -193.192786 
L 122.854645 -189.568793 
L 122.060093 -194.835239 
L 121.26554 -197.878634 
L 120.470988 -203.297077 
L 119.676435 -197.926483 
L 118.881883 -203.446183 
L 118.08733 -189.833271 
L 117.292778 -191.210463 
L 116.498225 -201.725507 
L 115.703673 -190.029365 
L 114.90912 -198.862795 
L 114.114568 -198.321608 
L 113.320015 -198.991104 
L 112.525463 -198.015433 
L 111.73091 -193.662313 
L 110.936358 -199.348223 
L 110.141806 -198.310604 
L 109.347253 -195.617747 
L 108.552701 -194.816362 
L 107.758148 -191.662249 
L 106.963596 -203.974429 
L 106.169043 -196.375284 
L 105.374491 -192.94942 
L 104.579938 -199.042094 
L 103.785386 -199.52383 
L 102.990833 -189.033721 
L 102.196281 -200.343033 
L 101.401728 -194.499007 
L 100.607176 -198.560341 
L 99.812623 -198.801801 
L 99.018071 -202.184247 
L 98.223519 -199.646056 
L 97.428966 -196.539002 
L 96.634414 -200.394506 
L 95.839861 -197.61915 
L 95.045309 -202.030909 
L 94.250756 -195.690852 
L 93.456204 -197.455112 
L 92.661651 -193.281777 
L 91.867099 -194.910401 
L 91.072546 -191.354886 
L 90.277994 -199.954381 
L 89.483441 -194.389585 
L 88.688889 -197.732715 
L 87.894336 -191.902934 
L 87.099784 -192.764961 
L 86.305231 -193.815878 
L 85.510679 -187.410768 
L 84.716127 -184.265272 
L 83.921574 -179.181494 
L 83.127022 -175.294694 
L 82.332469 -167.741019 
L 81.537917 -157.886322 
L 80.743364 -143.877823 
L 79.948812 -212.590122 
L 81.458461 -155.5793 
L 81.379006 -155.016317 
L 81.299551 -154.765023 
L 81.220096 -151.900591 
L 81.14064 -150.614019 
L 81.061185 -148.190362 
L 80.98173 -148.684658 
L 80.902275 -146.449526 
L 80.822819 -141.864905 
L 80.743364 -143.877823 
L 80.663909 -142.85072 
L 80.584454 -135.025794 
L 80.504998 -133.320487 
L 80.425543 -128.195695 
L 80.346088 -131.11236 
L 80.266633 -115.728403 
L 80.187177 -141.837748 
L 80.107722 -173.618108 
L 80.028267 -189.103689 
L 79.948812 -212.590122 
L 79.154259 -243.713312 
L 78.359707 -246.240185 
L 77.565154 -246.356789 
L 76.770602 -246.80281 
L 75.976049 -249.216867 
L 75.181497 -238.137281 
L 74.386944 -242.219263 
L 73.592392 -243.983621 
L 72.79784 -245.457341 
L 72.003287 -241.111736 
L 71.208735 -245.921584 
L 70.414182 -243.699128 
L 69.61963 -247.893366 
L 68.825077 -242.670784 
L 68.030525 -245.792573 
L 67.235972 -239.712549 
L 66.44142 -244.366293 
L 65.646867 -245.059807 
L 64.852315 -244.546141 
L 64.057762 -244.994676 
L 63.26321 -245.914478 
L 62.468657 -245.894452 
L 61.674105 -244.256407 
L 60.879552 -246.609896 
L 60.085 -243.845804 
z
" style="stroke: #ee82ee; stroke-opacity: 0.2"/>
    </defs>
    <g clip-path="url(#pce54966f11)">
     <use xlink:href="#m6231d49fcf" x="0" y="270" style="fill: #ee82ee; fill-opacity: 0.2; stroke: #ee82ee; stroke-opacity: 0.2"/>
    </g>
   </g>
   <g id="line2d_1">
    <path d="M 60.085 27.949948 
L 60.879552 25.370155 
L 61.674105 27.7953 
L 62.468657 25.848746 
L 64.852315 27.394707 
L 65.646867 26.69557 
L 66.44142 27.738604 
L 67.235972 31.649657 
L 68.030525 25.922143 
L 68.825077 29.092222 
L 69.61963 23.99458 
L 70.414182 39.546082 
L 71.208735 25.727234 
L 72.003287 30.473077 
L 72.79784 26.615204 
L 73.592392 28.41281 
L 74.386944 29.206458 
L 75.181497 32.616706 
L 75.976049 22.305073 
L 76.770602 25.171095 
L 77.565154 25.312449 
L 78.359707 24.96212 
L 79.154259 27.955897 
L 79.948812 68.185257 
L 80.266633 165.758694 
L 80.346088 148.51141 
L 80.425543 153.088773 
L 80.743364 134.519345 
L 80.822819 138.958685 
L 80.98173 130.277743 
L 81.061185 130.389241 
L 81.379006 121.704862 
L 81.458461 124.145416 
L 79.948812 68.185257 
L 80.743364 134.519345 
L 81.537917 121.163895 
L 83.127022 99.163191 
L 83.921574 94.291272 
L 84.716127 93.949033 
L 85.510679 85.444071 
L 86.305231 81.004713 
L 87.099784 80.752948 
L 87.894336 85.238953 
L 88.688889 77.803619 
L 89.483441 81.745466 
L 90.277994 75.872872 
L 91.072546 85.810829 
L 91.867099 83.556174 
L 92.661651 84.532357 
L 93.456204 77.343889 
L 94.250756 81.721803 
L 95.045309 72.376922 
L 95.839861 76.833865 
L 96.634414 74.174666 
L 97.428966 78.129999 
L 98.223519 75.611348 
L 99.018071 72.299223 
L 99.812623 74.33878 
L 100.607176 75.341359 
L 101.401728 77.852996 
L 102.196281 74.354169 
L 102.990833 90.033353 
L 103.785386 74.809804 
L 104.579938 77.023232 
L 105.374491 84.879563 
L 106.963596 70.815547 
L 107.758148 81.672891 
L 108.552701 80.493777 
L 109.347253 77.987604 
L 110.141806 77.948896 
L 110.936358 80.322918 
L 111.73091 84.911914 
L 112.525463 76.48816 
L 113.320015 74.0165 
L 114.114568 77.141087 
L 114.90912 75.280594 
L 115.703673 85.458182 
L 116.498225 72.783189 
L 117.292778 88.119416 
L 118.08733 85.461923 
L 118.881883 70.823768 
L 119.676435 76.862248 
L 120.470988 73.362919 
L 121.26554 76.892984 
L 122.060093 82.903212 
L 122.854645 86.157789 
L 123.649198 82.281171 
L 124.44375 77.75683 
L 125.238302 74.493949 
L 126.032855 77.563723 
L 126.827407 72.147634 
L 127.62196 79.625592 
L 128.416512 76.99881 
L 129.211065 72.431708 
L 130.005617 79.297563 
L 131.594722 69.288481 
L 132.389275 77.161977 
L 133.183827 74.152833 
L 133.97838 80.102839 
L 134.772932 76.157213 
L 135.567485 85.025142 
L 136.362037 80.177894 
L 137.15659 73.694688 
L 137.951142 81.380654 
L 138.745694 80.188394 
L 139.540247 78.559618 
L 140.334799 84.749021 
L 141.129352 71.835647 
L 141.923904 82.3905 
L 142.718457 80.597786 
L 144.307562 77.922871 
L 145.102114 83.562512 
L 145.896667 82.254048 
L 146.691219 86.078076 
L 147.485772 74.127246 
L 148.280324 74.672989 
L 149.074877 76.882773 
L 149.869429 76.528098 
L 150.663981 74.469892 
L 151.458534 85.951346 
L 152.253086 81.819228 
L 153.047639 72.80074 
L 153.842191 74.305034 
L 154.636744 81.737803 
L 155.431296 71.995695 
L 156.225849 77.356857 
L 157.020401 78.403631 
L 157.814954 82.460342 
L 158.609506 94.352396 
L 159.404059 74.948211 
L 160.198611 78.6745 
L 160.993164 75.690993 
L 161.787716 79.691712 
L 162.582269 79.387743 
L 163.376821 81.324699 
L 164.171373 81.162576 
L 164.965926 76.721867 
L 165.760478 78.433303 
L 166.555031 78.611135 
L 167.349583 83.200193 
L 168.144136 85.063073 
L 168.938688 77.884861 
L 169.733241 78.023481 
L 170.527793 79.882348 
L 171.322346 83.967526 
L 172.116898 81.368922 
L 172.911451 75.543283 
L 173.706003 79.895328 
L 174.500556 88.781436 
L 175.295108 77.169306 
L 176.884213 78.886863 
L 177.678765 84.924724 
L 178.473318 88.945271 
L 179.26787 78.500081 
L 180.062423 82.359856 
L 180.856975 80.239179 
L 181.651528 82.098671 
L 182.44608 82.165255 
L 183.240633 81.492806 
L 184.035185 79.33713 
L 184.829738 80.434113 
L 185.62429 71.479621 
L 186.418843 79.023133 
L 187.213395 81.684736 
L 188.007948 78.376117 
L 189.597052 74.563403 
L 190.391605 91.927587 
L 191.186157 76.6717 
L 192.775262 80.408707 
L 193.569815 81.463666 
L 194.364367 79.274461 
L 195.15892 79.342946 
L 195.953472 79.144887 
L 196.748025 82.193268 
L 197.542577 78.561001 
L 198.33713 78.249283 
L 199.131682 77.632756 
L 199.926235 81.925721 
L 200.720787 77.984257 
L 201.51534 75.033829 
L 202.309892 81.736436 
L 203.104444 77.08424 
L 203.898997 76.700647 
L 204.693549 86.26728 
L 205.488102 81.009719 
L 206.282654 79.642115 
L 207.077207 79.342925 
L 207.871759 81.605105 
L 208.666312 81.24774 
L 209.460864 79.359755 
L 210.255417 82.588682 
L 211.049969 79.152942 
L 211.844522 77.510748 
L 212.639074 79.285615 
L 213.433627 78.697116 
L 214.228179 80.340082 
L 215.022731 85.136546 
L 215.817284 81.643647 
L 216.611836 70.879842 
L 217.406389 78.204202 
L 218.200941 81.08184 
L 218.995494 76.432734 
L 219.790046 78.734646 
L 220.584599 78.191939 
L 221.379151 79.8674 
L 222.173704 79.542345 
L 222.968256 80.217029 
L 223.762809 78.985132 
L 224.557361 76.031867 
L 225.351914 77.957992 
L 226.146466 77.650875 
L 226.941019 82.205273 
L 227.735571 81.383618 
L 228.530123 83.856179 
L 229.324676 79.685189 
L 230.119228 79.929516 
L 230.913781 81.871824 
L 231.708333 82.483821 
L 232.502886 84.974075 
L 233.297438 82.085046 
L 234.091991 79.974475 
L 234.886543 84.039451 
L 235.681096 77.21264 
L 236.475648 82.285994 
L 237.270201 82.938629 
L 238.064753 79.032498 
L 238.859306 82.273649 
L 239.653858 80.866893 
L 240.44841 79.1475 
L 241.242963 82.726113 
L 242.037515 80.727159 
L 242.832068 80.582953 
L 243.62662 78.318455 
L 244.421173 85.360801 
L 245.215725 80.173001 
L 246.010278 80.778879 
L 246.80483 84.850087 
L 248.393935 83.098664 
L 249.188488 80.140417 
L 249.98304 80.975521 
L 250.777593 83.47703 
L 251.572145 80.649593 
L 252.366698 80.216268 
L 253.16125 77.529218 
L 253.955802 79.803592 
L 254.750355 82.926967 
L 255.544907 80.352911 
L 256.33946 81.289854 
L 257.134012 85.999718 
L 257.928565 82.983734 
L 258.723117 82.179657 
L 259.51767 77.040082 
L 260.312222 79.269348 
L 261.106775 81.00616 
L 261.901327 92.137081 
L 262.69588 83.561139 
L 263.490432 82.541111 
L 264.284985 82.956915 
L 265.079537 81.168081 
L 265.87409 82.148654 
L 266.668642 78.261948 
L 267.463194 82.331583 
L 268.257747 79.496943 
L 269.052299 78.468641 
L 269.846852 78.242375 
L 270.641404 80.323993 
L 271.435957 78.183518 
L 272.230509 83.263227 
L 273.025062 80.759156 
L 273.819614 81.491018 
L 274.614167 81.044413 
L 275.408719 77.587459 
L 276.203272 79.708062 
L 276.997824 80.922059 
L 277.792377 77.378305 
L 278.586929 81.889554 
L 279.381481 78.804313 
L 280.176034 83.4391 
L 280.970586 81.387627 
L 281.765139 79.695304 
L 282.559691 83.875241 
L 283.354244 82.469554 
L 284.148796 83.62877 
L 284.943349 85.242392 
L 285.737901 75.282164 
L 286.532454 77.743534 
L 287.327006 78.753989 
L 288.121559 84.029522 
L 288.916111 90.459031 
L 289.710664 83.636072 
L 290.505216 83.515499 
L 291.299769 85.120392 
L 292.094321 79.763747 
L 292.888873 80.488194 
L 293.683426 82.495297 
L 294.477978 80.943507 
L 295.272531 83.676201 
L 296.067083 77.128448 
L 296.861636 78.465075 
L 297.656188 80.362982 
L 298.450741 79.570652 
L 299.245293 79.658481 
L 300.039846 77.486492 
L 300.834398 78.929638 
L 301.628951 80.984442 
L 302.423503 81.479162 
L 304.012608 74.747155 
L 304.80716 83.245939 
L 305.601713 80.255827 
L 306.396265 79.253719 
L 307.190818 81.121099 
L 307.98537 76.93385 
L 308.779923 79.882439 
L 309.574475 80.068242 
L 310.369028 84.39241 
L 311.16358 80.448246 
L 311.958133 79.165717 
L 312.752685 79.560096 
L 313.547238 76.078461 
L 314.34179 84.088766 
L 315.136343 81.062806 
L 315.930895 80.45944 
L 316.725448 79.184094 
L 317.52 82.294282 
L 317.52 82.294282 
" clip-path="url(#pce54966f11)" style="fill: none; stroke: #ee82ee; stroke-width: 1.5; stroke-linecap: square"/>
   </g>
   <g id="matplotlib.axis_1">
    <g id="xtick_1">
     <g id="line2d_2">
      <defs>
       <path id="mdbfa45c16b" d="M 0 0 
L 0 3.5 
" style="stroke: #000000; stroke-width: 0.8"/>
      </defs>
      <g>
       <use xlink:href="#mdbfa45c16b" x="79.948812" y="218.04" style="stroke: #000000; stroke-width: 0.8"/>
      </g>
     </g>
     <g id="text_1">
      <!-- 3000 -->
      <g transform="translate(62.133812 235.677813) scale(0.14 -0.14)">
       <defs>
        <path id="DejaVuSans-33" d="M 2597 2516 
Q 3050 2419 3304 2112 
Q 3559 1806 3559 1356 
Q 3559 666 3084 287 
Q 2609 -91 1734 -91 
Q 1441 -91 1130 -33 
Q 819 25 488 141 
L 488 750 
Q 750 597 1062 519 
Q 1375 441 1716 441 
Q 2309 441 2620 675 
Q 2931 909 2931 1356 
Q 2931 1769 2642 2001 
Q 2353 2234 1838 2234 
L 1294 2234 
L 1294 2753 
L 1863 2753 
Q 2328 2753 2575 2939 
Q 2822 3125 2822 3475 
Q 2822 3834 2567 4026 
Q 2313 4219 1838 4219 
Q 1578 4219 1281 4162 
Q 984 4106 628 3988 
L 628 4550 
Q 988 4650 1302 4700 
Q 1616 4750 1894 4750 
Q 2613 4750 3031 4423 
Q 3450 4097 3450 3541 
Q 3450 3153 3228 2886 
Q 3006 2619 2597 2516 
z
" transform="scale(0.015625)"/>
        <path id="DejaVuSans-30" d="M 2034 4250 
Q 1547 4250 1301 3770 
Q 1056 3291 1056 2328 
Q 1056 1369 1301 889 
Q 1547 409 2034 409 
Q 2525 409 2770 889 
Q 3016 1369 3016 2328 
Q 3016 3291 2770 3770 
Q 2525 4250 2034 4250 
z
M 2034 4750 
Q 2819 4750 3233 4129 
Q 3647 3509 3647 2328 
Q 3647 1150 3233 529 
Q 2819 -91 2034 -91 
Q 1250 -91 836 529 
Q 422 1150 422 2328 
Q 422 3509 836 4129 
Q 1250 4750 2034 4750 
z
" transform="scale(0.015625)"/>
       </defs>
       <use xlink:href="#DejaVuSans-33"/>
       <use xlink:href="#DejaVuSans-30" x="63.623047"/>
       <use xlink:href="#DejaVuSans-30" x="127.246094"/>
       <use xlink:href="#DejaVuSans-30" x="190.869141"/>
      </g>
     </g>
    </g>
    <g id="xtick_2">
     <g id="line2d_3">
      <g>
       <use xlink:href="#mdbfa45c16b" x="119.676435" y="218.04" style="stroke: #000000; stroke-width: 0.8"/>
      </g>
     </g>
     <g id="text_2">
      <!-- 3500 -->
      <g transform="translate(101.861435 235.677813) scale(0.14 -0.14)">
       <defs>
        <path id="DejaVuSans-35" d="M 691 4666 
L 3169 4666 
L 3169 4134 
L 1269 4134 
L 1269 2991 
Q 1406 3038 1543 3061 
Q 1681 3084 1819 3084 
Q 2600 3084 3056 2656 
Q 3513 2228 3513 1497 
Q 3513 744 3044 326 
Q 2575 -91 1722 -91 
Q 1428 -91 1123 -41 
Q 819 9 494 109 
L 494 744 
Q 775 591 1075 516 
Q 1375 441 1709 441 
Q 2250 441 2565 725 
Q 2881 1009 2881 1497 
Q 2881 1984 2565 2268 
Q 2250 2553 1709 2553 
Q 1456 2553 1204 2497 
Q 953 2441 691 2322 
L 691 4666 
z
" transform="scale(0.015625)"/>
       </defs>
       <use xlink:href="#DejaVuSans-33"/>
       <use xlink:href="#DejaVuSans-35" x="63.623047"/>
       <use xlink:href="#DejaVuSans-30" x="127.246094"/>
       <use xlink:href="#DejaVuSans-30" x="190.869141"/>
      </g>
     </g>
    </g>
    <g id="xtick_3">
     <g id="line2d_4">
      <g>
       <use xlink:href="#mdbfa45c16b" x="159.404059" y="218.04" style="stroke: #000000; stroke-width: 0.8"/>
      </g>
     </g>
     <g id="text_3">
      <!-- 4000 -->
      <g transform="translate(141.589059 235.677813) scale(0.14 -0.14)">
       <defs>
        <path id="DejaVuSans-34" d="M 2419 4116 
L 825 1625 
L 2419 1625 
L 2419 4116 
z
M 2253 4666 
L 3047 4666 
L 3047 1625 
L 3713 1625 
L 3713 1100 
L 3047 1100 
L 3047 0 
L 2419 0 
L 2419 1100 
L 313 1100 
L 313 1709 
L 2253 4666 
z
" transform="scale(0.015625)"/>
       </defs>
       <use xlink:href="#DejaVuSans-34"/>
       <use xlink:href="#DejaVuSans-30" x="63.623047"/>
       <use xlink:href="#DejaVuSans-30" x="127.246094"/>
       <use xlink:href="#DejaVuSans-30" x="190.869141"/>
      </g>
     </g>
    </g>
    <g id="xtick_4">
     <g id="line2d_5">
      <g>
       <use xlink:href="#mdbfa45c16b" x="199.131682" y="218.04" style="stroke: #000000; stroke-width: 0.8"/>
      </g>
     </g>
     <g id="text_4">
      <!-- 4500 -->
      <g transform="translate(181.316682 235.677813) scale(0.14 -0.14)">
       <use xlink:href="#DejaVuSans-34"/>
       <use xlink:href="#DejaVuSans-35" x="63.623047"/>
       <use xlink:href="#DejaVuSans-30" x="127.246094"/>
       <use xlink:href="#DejaVuSans-30" x="190.869141"/>
      </g>
     </g>
    </g>
    <g id="xtick_5">
     <g id="line2d_6">
      <g>
       <use xlink:href="#mdbfa45c16b" x="238.859306" y="218.04" style="stroke: #000000; stroke-width: 0.8"/>
      </g>
     </g>
     <g id="text_5">
      <!-- 5000 -->
      <g transform="translate(221.044306 235.677813) scale(0.14 -0.14)">
       <use xlink:href="#DejaVuSans-35"/>
       <use xlink:href="#DejaVuSans-30" x="63.623047"/>
       <use xlink:href="#DejaVuSans-30" x="127.246094"/>
       <use xlink:href="#DejaVuSans-30" x="190.869141"/>
      </g>
     </g>
    </g>
    <g id="xtick_6">
     <g id="line2d_7">
      <g>
       <use xlink:href="#mdbfa45c16b" x="278.586929" y="218.04" style="stroke: #000000; stroke-width: 0.8"/>
      </g>
     </g>
     <g id="text_6">
      <!-- 5500 -->
      <g transform="translate(260.771929 235.677813) scale(0.14 -0.14)">
       <use xlink:href="#DejaVuSans-35"/>
       <use xlink:href="#DejaVuSans-35" x="63.623047"/>
       <use xlink:href="#DejaVuSans-30" x="127.246094"/>
       <use xlink:href="#DejaVuSans-30" x="190.869141"/>
      </g>
     </g>
    </g>
    <g id="text_7">
     <!-- Rendition number -->
     <g transform="translate(126.168906 253.227188) scale(0.14 -0.14)">
      <defs>
       <path id="DejaVuSans-52" d="M 2841 2188 
Q 3044 2119 3236 1894 
Q 3428 1669 3622 1275 
L 4263 0 
L 3584 0 
L 2988 1197 
Q 2756 1666 2539 1819 
Q 2322 1972 1947 1972 
L 1259 1972 
L 1259 0 
L 628 0 
L 628 4666 
L 2053 4666 
Q 2853 4666 3247 4331 
Q 3641 3997 3641 3322 
Q 3641 2881 3436 2590 
Q 3231 2300 2841 2188 
z
M 1259 4147 
L 1259 2491 
L 2053 2491 
Q 2509 2491 2742 2702 
Q 2975 2913 2975 3322 
Q 2975 3731 2742 3939 
Q 2509 4147 2053 4147 
L 1259 4147 
z
" transform="scale(0.015625)"/>
       <path id="DejaVuSans-65" d="M 3597 1894 
L 3597 1613 
L 953 1613 
Q 991 1019 1311 708 
Q 1631 397 2203 397 
Q 2534 397 2845 478 
Q 3156 559 3463 722 
L 3463 178 
Q 3153 47 2828 -22 
Q 2503 -91 2169 -91 
Q 1331 -91 842 396 
Q 353 884 353 1716 
Q 353 2575 817 3079 
Q 1281 3584 2069 3584 
Q 2775 3584 3186 3129 
Q 3597 2675 3597 1894 
z
M 3022 2063 
Q 3016 2534 2758 2815 
Q 2500 3097 2075 3097 
Q 1594 3097 1305 2825 
Q 1016 2553 972 2059 
L 3022 2063 
z
" transform="scale(0.015625)"/>
       <path id="DejaVuSans-6e" d="M 3513 2113 
L 3513 0 
L 2938 0 
L 2938 2094 
Q 2938 2591 2744 2837 
Q 2550 3084 2163 3084 
Q 1697 3084 1428 2787 
Q 1159 2491 1159 1978 
L 1159 0 
L 581 0 
L 581 3500 
L 1159 3500 
L 1159 2956 
Q 1366 3272 1645 3428 
Q 1925 3584 2291 3584 
Q 2894 3584 3203 3211 
Q 3513 2838 3513 2113 
z
" transform="scale(0.015625)"/>
       <path id="DejaVuSans-64" d="M 2906 2969 
L 2906 4863 
L 3481 4863 
L 3481 0 
L 2906 0 
L 2906 525 
Q 2725 213 2448 61 
Q 2172 -91 1784 -91 
Q 1150 -91 751 415 
Q 353 922 353 1747 
Q 353 2572 751 3078 
Q 1150 3584 1784 3584 
Q 2172 3584 2448 3432 
Q 2725 3281 2906 2969 
z
M 947 1747 
Q 947 1113 1208 752 
Q 1469 391 1925 391 
Q 2381 391 2643 752 
Q 2906 1113 2906 1747 
Q 2906 2381 2643 2742 
Q 2381 3103 1925 3103 
Q 1469 3103 1208 2742 
Q 947 2381 947 1747 
z
" transform="scale(0.015625)"/>
       <path id="DejaVuSans-69" d="M 603 3500 
L 1178 3500 
L 1178 0 
L 603 0 
L 603 3500 
z
M 603 4863 
L 1178 4863 
L 1178 4134 
L 603 4134 
L 603 4863 
z
" transform="scale(0.015625)"/>
       <path id="DejaVuSans-74" d="M 1172 4494 
L 1172 3500 
L 2356 3500 
L 2356 3053 
L 1172 3053 
L 1172 1153 
Q 1172 725 1289 603 
Q 1406 481 1766 481 
L 2356 481 
L 2356 0 
L 1766 0 
Q 1100 0 847 248 
Q 594 497 594 1153 
L 594 3053 
L 172 3053 
L 172 3500 
L 594 3500 
L 594 4494 
L 1172 4494 
z
" transform="scale(0.015625)"/>
       <path id="DejaVuSans-6f" d="M 1959 3097 
Q 1497 3097 1228 2736 
Q 959 2375 959 1747 
Q 959 1119 1226 758 
Q 1494 397 1959 397 
Q 2419 397 2687 759 
Q 2956 1122 2956 1747 
Q 2956 2369 2687 2733 
Q 2419 3097 1959 3097 
z
M 1959 3584 
Q 2709 3584 3137 3096 
Q 3566 2609 3566 1747 
Q 3566 888 3137 398 
Q 2709 -91 1959 -91 
Q 1206 -91 779 398 
Q 353 888 353 1747 
Q 353 2609 779 3096 
Q 1206 3584 1959 3584 
z
" transform="scale(0.015625)"/>
       <path id="DejaVuSans-20" transform="scale(0.015625)"/>
       <path id="DejaVuSans-75" d="M 544 1381 
L 544 3500 
L 1119 3500 
L 1119 1403 
Q 1119 906 1312 657 
Q 1506 409 1894 409 
Q 2359 409 2629 706 
Q 2900 1003 2900 1516 
L 2900 3500 
L 3475 3500 
L 3475 0 
L 2900 0 
L 2900 538 
Q 2691 219 2414 64 
Q 2138 -91 1772 -91 
Q 1169 -91 856 284 
Q 544 659 544 1381 
z
M 1991 3584 
L 1991 3584 
z
" transform="scale(0.015625)"/>
       <path id="DejaVuSans-6d" d="M 3328 2828 
Q 3544 3216 3844 3400 
Q 4144 3584 4550 3584 
Q 5097 3584 5394 3201 
Q 5691 2819 5691 2113 
L 5691 0 
L 5113 0 
L 5113 2094 
Q 5113 2597 4934 2840 
Q 4756 3084 4391 3084 
Q 3944 3084 3684 2787 
Q 3425 2491 3425 1978 
L 3425 0 
L 2847 0 
L 2847 2094 
Q 2847 2600 2669 2842 
Q 2491 3084 2119 3084 
Q 1678 3084 1418 2786 
Q 1159 2488 1159 1978 
L 1159 0 
L 581 0 
L 581 3500 
L 1159 3500 
L 1159 2956 
Q 1356 3278 1631 3431 
Q 1906 3584 2284 3584 
Q 2666 3584 2933 3390 
Q 3200 3197 3328 2828 
z
" transform="scale(0.015625)"/>
       <path id="DejaVuSans-62" d="M 3116 1747 
Q 3116 2381 2855 2742 
Q 2594 3103 2138 3103 
Q 1681 3103 1420 2742 
Q 1159 2381 1159 1747 
Q 1159 1113 1420 752 
Q 1681 391 2138 391 
Q 2594 391 2855 752 
Q 3116 1113 3116 1747 
z
M 1159 2969 
Q 1341 3281 1617 3432 
Q 1894 3584 2278 3584 
Q 2916 3584 3314 3078 
Q 3713 2572 3713 1747 
Q 3713 922 3314 415 
Q 2916 -91 2278 -91 
Q 1894 -91 1617 61 
Q 1341 213 1159 525 
L 1159 0 
L 581 0 
L 581 4863 
L 1159 4863 
L 1159 2969 
z
" transform="scale(0.015625)"/>
       <path id="DejaVuSans-72" d="M 2631 2963 
Q 2534 3019 2420 3045 
Q 2306 3072 2169 3072 
Q 1681 3072 1420 2755 
Q 1159 2438 1159 1844 
L 1159 0 
L 581 0 
L 581 3500 
L 1159 3500 
L 1159 2956 
Q 1341 3275 1631 3429 
Q 1922 3584 2338 3584 
Q 2397 3584 2469 3576 
Q 2541 3569 2628 3553 
L 2631 2963 
z
" transform="scale(0.015625)"/>
      </defs>
      <use xlink:href="#DejaVuSans-52"/>
      <use xlink:href="#DejaVuSans-65" x="64.982422"/>
      <use xlink:href="#DejaVuSans-6e" x="126.505859"/>
      <use xlink:href="#DejaVuSans-64" x="189.884766"/>
      <use xlink:href="#DejaVuSans-69" x="253.361328"/>
      <use xlink:href="#DejaVuSans-74" x="281.144531"/>
      <use xlink:href="#DejaVuSans-69" x="320.353516"/>
      <use xlink:href="#DejaVuSans-6f" x="348.136719"/>
      <use xlink:href="#DejaVuSans-6e" x="409.318359"/>
      <use xlink:href="#DejaVuSans-20" x="472.697266"/>
      <use xlink:href="#DejaVuSans-6e" x="504.484375"/>
      <use xlink:href="#DejaVuSans-75" x="567.863281"/>
      <use xlink:href="#DejaVuSans-6d" x="631.242188"/>
      <use xlink:href="#DejaVuSans-62" x="728.654297"/>
      <use xlink:href="#DejaVuSans-65" x="792.130859"/>
      <use xlink:href="#DejaVuSans-72" x="853.654297"/>
     </g>
    </g>
   </g>
   <g id="matplotlib.axis_2">
    <g id="ytick_1">
     <g id="line2d_8">
      <defs>
       <path id="m53a7184fe1" d="M 0 0 
L -3.5 0 
" style="stroke: #000000; stroke-width: 0.8"/>
      </defs>
      <g>
       <use xlink:href="#m53a7184fe1" x="60.085" y="218.04" style="stroke: #000000; stroke-width: 0.8"/>
      </g>
     </g>
     <g id="text_8">
      <!-- 0.0 -->
      <g transform="translate(30.820625 223.358906) scale(0.14 -0.14)">
       <defs>
        <path id="DejaVuSans-2e" d="M 684 794 
L 1344 794 
L 1344 0 
L 684 0 
L 684 794 
z
" transform="scale(0.015625)"/>
       </defs>
       <use xlink:href="#DejaVuSans-30"/>
       <use xlink:href="#DejaVuSans-2e" x="63.623047"/>
       <use xlink:href="#DejaVuSans-30" x="95.410156"/>
      </g>
     </g>
    </g>
    <g id="ytick_2">
     <g id="line2d_9">
      <g>
       <use xlink:href="#m53a7184fe1" x="60.085" y="179.892618" style="stroke: #000000; stroke-width: 0.8"/>
      </g>
     </g>
     <g id="text_9">
      <!-- 0.2 -->
      <g transform="translate(30.820625 185.211524) scale(0.14 -0.14)">
       <defs>
        <path id="DejaVuSans-32" d="M 1228 531 
L 3431 531 
L 3431 0 
L 469 0 
L 469 531 
Q 828 903 1448 1529 
Q 2069 2156 2228 2338 
Q 2531 2678 2651 2914 
Q 2772 3150 2772 3378 
Q 2772 3750 2511 3984 
Q 2250 4219 1831 4219 
Q 1534 4219 1204 4116 
Q 875 4013 500 3803 
L 500 4441 
Q 881 4594 1212 4672 
Q 1544 4750 1819 4750 
Q 2544 4750 2975 4387 
Q 3406 4025 3406 3419 
Q 3406 3131 3298 2873 
Q 3191 2616 2906 2266 
Q 2828 2175 2409 1742 
Q 1991 1309 1228 531 
z
" transform="scale(0.015625)"/>
       </defs>
       <use xlink:href="#DejaVuSans-30"/>
       <use xlink:href="#DejaVuSans-2e" x="63.623047"/>
       <use xlink:href="#DejaVuSans-32" x="95.410156"/>
      </g>
     </g>
    </g>
    <g id="ytick_3">
     <g id="line2d_10">
      <g>
       <use xlink:href="#m53a7184fe1" x="60.085" y="141.745236" style="stroke: #000000; stroke-width: 0.8"/>
      </g>
     </g>
     <g id="text_10">
      <!-- 0.4 -->
      <g transform="translate(30.820625 147.064142) scale(0.14 -0.14)">
       <use xlink:href="#DejaVuSans-30"/>
       <use xlink:href="#DejaVuSans-2e" x="63.623047"/>
       <use xlink:href="#DejaVuSans-34" x="95.410156"/>
      </g>
     </g>
    </g>
    <g id="ytick_4">
     <g id="line2d_11">
      <g>
       <use xlink:href="#m53a7184fe1" x="60.085" y="103.597853" style="stroke: #000000; stroke-width: 0.8"/>
      </g>
     </g>
     <g id="text_11">
      <!-- 0.6 -->
      <g transform="translate(30.820625 108.91676) scale(0.14 -0.14)">
       <defs>
        <path id="DejaVuSans-36" d="M 2113 2584 
Q 1688 2584 1439 2293 
Q 1191 2003 1191 1497 
Q 1191 994 1439 701 
Q 1688 409 2113 409 
Q 2538 409 2786 701 
Q 3034 994 3034 1497 
Q 3034 2003 2786 2293 
Q 2538 2584 2113 2584 
z
M 3366 4563 
L 3366 3988 
Q 3128 4100 2886 4159 
Q 2644 4219 2406 4219 
Q 1781 4219 1451 3797 
Q 1122 3375 1075 2522 
Q 1259 2794 1537 2939 
Q 1816 3084 2150 3084 
Q 2853 3084 3261 2657 
Q 3669 2231 3669 1497 
Q 3669 778 3244 343 
Q 2819 -91 2113 -91 
Q 1303 -91 875 529 
Q 447 1150 447 2328 
Q 447 3434 972 4092 
Q 1497 4750 2381 4750 
Q 2619 4750 2861 4703 
Q 3103 4656 3366 4563 
z
" transform="scale(0.015625)"/>
       </defs>
       <use xlink:href="#DejaVuSans-30"/>
       <use xlink:href="#DejaVuSans-2e" x="63.623047"/>
       <use xlink:href="#DejaVuSans-36" x="95.410156"/>
      </g>
     </g>
    </g>
    <g id="ytick_5">
     <g id="line2d_12">
      <g>
       <use xlink:href="#m53a7184fe1" x="60.085" y="65.450471" style="stroke: #000000; stroke-width: 0.8"/>
      </g>
     </g>
     <g id="text_12">
      <!-- 0.8 -->
      <g transform="translate(30.820625 70.769377) scale(0.14 -0.14)">
       <defs>
        <path id="DejaVuSans-38" d="M 2034 2216 
Q 1584 2216 1326 1975 
Q 1069 1734 1069 1313 
Q 1069 891 1326 650 
Q 1584 409 2034 409 
Q 2484 409 2743 651 
Q 3003 894 3003 1313 
Q 3003 1734 2745 1975 
Q 2488 2216 2034 2216 
z
M 1403 2484 
Q 997 2584 770 2862 
Q 544 3141 544 3541 
Q 544 4100 942 4425 
Q 1341 4750 2034 4750 
Q 2731 4750 3128 4425 
Q 3525 4100 3525 3541 
Q 3525 3141 3298 2862 
Q 3072 2584 2669 2484 
Q 3125 2378 3379 2068 
Q 3634 1759 3634 1313 
Q 3634 634 3220 271 
Q 2806 -91 2034 -91 
Q 1263 -91 848 271 
Q 434 634 434 1313 
Q 434 1759 690 2068 
Q 947 2378 1403 2484 
z
M 1172 3481 
Q 1172 3119 1398 2916 
Q 1625 2713 2034 2713 
Q 2441 2713 2670 2916 
Q 2900 3119 2900 3481 
Q 2900 3844 2670 4047 
Q 2441 4250 2034 4250 
Q 1625 4250 1398 4047 
Q 1172 3844 1172 3481 
z
" transform="scale(0.015625)"/>
       </defs>
       <use xlink:href="#DejaVuSans-30"/>
       <use xlink:href="#DejaVuSans-2e" x="63.623047"/>
       <use xlink:href="#DejaVuSans-38" x="95.410156"/>
      </g>
     </g>
    </g>
    <g id="ytick_6">
     <g id="line2d_13">
      <g>
       <use xlink:href="#m53a7184fe1" x="60.085" y="27.303089" style="stroke: #000000; stroke-width: 0.8"/>
      </g>
     </g>
     <g id="text_13">
      <!-- 1.0 -->
      <g transform="translate(30.820625 32.621995) scale(0.14 -0.14)">
       <defs>
        <path id="DejaVuSans-31" d="M 794 531 
L 1825 531 
L 1825 4091 
L 703 3866 
L 703 4441 
L 1819 4666 
L 2450 4666 
L 2450 531 
L 3481 531 
L 3481 0 
L 794 0 
L 794 531 
z
" transform="scale(0.015625)"/>
       </defs>
       <use xlink:href="#DejaVuSans-31"/>
       <use xlink:href="#DejaVuSans-2e" x="63.623047"/>
       <use xlink:href="#DejaVuSans-30" x="95.410156"/>
      </g>
     </g>
    </g>
    <g id="text_14">
     <!-- Mean excitatory activity -->
     <g transform="translate(23.909063 199.905781) rotate(-90) scale(0.14 -0.14)">
      <defs>
       <path id="DejaVuSans-4d" d="M 628 4666 
L 1569 4666 
L 2759 1491 
L 3956 4666 
L 4897 4666 
L 4897 0 
L 4281 0 
L 4281 4097 
L 3078 897 
L 2444 897 
L 1241 4097 
L 1241 0 
L 628 0 
L 628 4666 
z
" transform="scale(0.015625)"/>
       <path id="DejaVuSans-61" d="M 2194 1759 
Q 1497 1759 1228 1600 
Q 959 1441 959 1056 
Q 959 750 1161 570 
Q 1363 391 1709 391 
Q 2188 391 2477 730 
Q 2766 1069 2766 1631 
L 2766 1759 
L 2194 1759 
z
M 3341 1997 
L 3341 0 
L 2766 0 
L 2766 531 
Q 2569 213 2275 61 
Q 1981 -91 1556 -91 
Q 1019 -91 701 211 
Q 384 513 384 1019 
Q 384 1609 779 1909 
Q 1175 2209 1959 2209 
L 2766 2209 
L 2766 2266 
Q 2766 2663 2505 2880 
Q 2244 3097 1772 3097 
Q 1472 3097 1187 3025 
Q 903 2953 641 2809 
L 641 3341 
Q 956 3463 1253 3523 
Q 1550 3584 1831 3584 
Q 2591 3584 2966 3190 
Q 3341 2797 3341 1997 
z
" transform="scale(0.015625)"/>
       <path id="DejaVuSans-78" d="M 3513 3500 
L 2247 1797 
L 3578 0 
L 2900 0 
L 1881 1375 
L 863 0 
L 184 0 
L 1544 1831 
L 300 3500 
L 978 3500 
L 1906 2253 
L 2834 3500 
L 3513 3500 
z
" transform="scale(0.015625)"/>
       <path id="DejaVuSans-63" d="M 3122 3366 
L 3122 2828 
Q 2878 2963 2633 3030 
Q 2388 3097 2138 3097 
Q 1578 3097 1268 2742 
Q 959 2388 959 1747 
Q 959 1106 1268 751 
Q 1578 397 2138 397 
Q 2388 397 2633 464 
Q 2878 531 3122 666 
L 3122 134 
Q 2881 22 2623 -34 
Q 2366 -91 2075 -91 
Q 1284 -91 818 406 
Q 353 903 353 1747 
Q 353 2603 823 3093 
Q 1294 3584 2113 3584 
Q 2378 3584 2631 3529 
Q 2884 3475 3122 3366 
z
" transform="scale(0.015625)"/>
       <path id="DejaVuSans-79" d="M 2059 -325 
Q 1816 -950 1584 -1140 
Q 1353 -1331 966 -1331 
L 506 -1331 
L 506 -850 
L 844 -850 
Q 1081 -850 1212 -737 
Q 1344 -625 1503 -206 
L 1606 56 
L 191 3500 
L 800 3500 
L 1894 763 
L 2988 3500 
L 3597 3500 
L 2059 -325 
z
" transform="scale(0.015625)"/>
       <path id="DejaVuSans-76" d="M 191 3500 
L 800 3500 
L 1894 563 
L 2988 3500 
L 3597 3500 
L 2284 0 
L 1503 0 
L 191 3500 
z
" transform="scale(0.015625)"/>
      </defs>
      <use xlink:href="#DejaVuSans-4d"/>
      <use xlink:href="#DejaVuSans-65" x="86.279297"/>
      <use xlink:href="#DejaVuSans-61" x="147.802734"/>
      <use xlink:href="#DejaVuSans-6e" x="209.082031"/>
      <use xlink:href="#DejaVuSans-20" x="272.460938"/>
      <use xlink:href="#DejaVuSans-65" x="304.248047"/>
      <use xlink:href="#DejaVuSans-78" x="364.021484"/>
      <use xlink:href="#DejaVuSans-63" x="421.451172"/>
      <use xlink:href="#DejaVuSans-69" x="476.431641"/>
      <use xlink:href="#DejaVuSans-74" x="504.214844"/>
      <use xlink:href="#DejaVuSans-61" x="543.423828"/>
      <use xlink:href="#DejaVuSans-74" x="604.703125"/>
      <use xlink:href="#DejaVuSans-6f" x="643.912109"/>
      <use xlink:href="#DejaVuSans-72" x="705.09375"/>
      <use xlink:href="#DejaVuSans-79" x="746.207031"/>
      <use xlink:href="#DejaVuSans-20" x="805.386719"/>
      <use xlink:href="#DejaVuSans-61" x="837.173828"/>
      <use xlink:href="#DejaVuSans-63" x="898.453125"/>
      <use xlink:href="#DejaVuSans-74" x="953.433594"/>
      <use xlink:href="#DejaVuSans-69" x="992.642578"/>
      <use xlink:href="#DejaVuSans-76" x="1020.425781"/>
      <use xlink:href="#DejaVuSans-69" x="1079.605469"/>
      <use xlink:href="#DejaVuSans-74" x="1107.388672"/>
      <use xlink:href="#DejaVuSans-79" x="1146.597656"/>
     </g>
    </g>
   </g>
   <g id="patch_3">
    <path d="M 60.085 218.04 
L 60.085 12.96 
" style="fill: none; stroke: #000000; stroke-width: 3; stroke-linejoin: miter; stroke-linecap: square"/>
   </g>
   <g id="patch_4">
    <path d="M 60.085 218.04 
L 317.52 218.04 
" style="fill: none; stroke: #000000; stroke-width: 3; stroke-linejoin: miter; stroke-linecap: square"/>
   </g>
  </g>
  <g id="axes_2">
   <g id="patch_5">
    <path d="M 377.605 218.04 
L 635.04 218.04 
L 635.04 12.96 
L 377.605 12.96 
z
" style="fill: #ffffff"/>
   </g>
   <g id="PolyCollection_2">
    <defs>
     <path id="m7bc98ae6b9" d="M 377.605 -241.514706 
L 377.605 -236.307422 
L 378.399552 -242.791803 
L 379.194105 -238.299309 
L 379.988657 -241.582682 
L 380.78321 -239.266116 
L 381.577762 -238.205416 
L 382.372315 -238.66796 
L 383.166867 -238.629613 
L 383.96142 -236.719359 
L 384.755972 -234.643593 
L 385.550525 -240.503492 
L 386.345077 -236.284943 
L 387.13963 -243.446337 
L 387.934182 -220.220182 
L 388.728735 -239.159686 
L 389.523287 -234.145166 
L 390.31784 -240.010516 
L 391.112392 -238.61489 
L 391.906944 -234.125547 
L 392.701497 -233.381153 
L 393.496049 -243.517854 
L 394.290602 -241.298321 
L 395.085154 -240.992805 
L 395.879707 -242.012035 
L 396.674259 -240.551797 
L 397.468812 -183.411026 
L 397.548267 -146.740128 
L 397.627722 -142.818831 
L 397.707177 -102.025505 
L 397.786633 -80.810772 
L 397.866088 -91.927325 
L 397.945543 -89.967543 
L 398.024998 -93.853537 
L 398.104454 -94.017261 
L 398.183909 -101.621924 
L 398.263364 -104.953102 
L 398.342819 -100.791699 
L 398.422275 -105.194924 
L 398.50173 -107.124351 
L 398.581185 -105.534421 
L 398.66064 -107.892517 
L 398.740096 -108.716643 
L 398.819551 -111.866482 
L 398.899006 -111.685586 
L 398.978461 -111.354147 
L 397.468812 -183.411026 
L 398.263364 -104.953102 
L 399.057917 -112.927238 
L 399.852469 -117.279786 
L 400.647022 -124.649308 
L 401.441574 -125.405672 
L 402.236127 -120.925553 
L 403.030679 -126.376755 
L 403.825231 -126.51495 
L 404.619784 -128.460757 
L 405.414336 -124.558104 
L 406.208889 -129.839117 
L 407.003441 -130.836269 
L 407.797994 -131.300752 
L 408.592546 -125.717973 
L 409.387099 -127.763281 
L 410.181651 -126.545211 
L 410.976204 -133.996758 
L 411.770756 -129.314708 
L 412.565309 -135.553667 
L 413.359861 -134.478083 
L 414.154414 -137.21429 
L 414.948966 -134.956282 
L 415.743519 -139.921041 
L 416.538071 -140.22086 
L 417.332623 -139.351646 
L 418.127176 -140.120718 
L 418.921728 -142.789686 
L 419.716281 -143.284381 
L 420.510833 -134.098912 
L 421.305386 -144.355404 
L 422.099938 -143.000862 
L 422.894491 -137.799556 
L 423.689043 -144.304865 
L 424.483596 -146.2897 
L 425.278148 -144.11363 
L 426.072701 -142.005657 
L 426.867253 -146.139129 
L 427.661806 -146.743658 
L 428.456358 -139.911938 
L 429.25091 -141.755438 
L 430.045463 -150.479364 
L 430.840015 -148.572762 
L 431.634568 -152.043817 
L 432.42912 -149.480224 
L 433.223673 -151.138643 
L 434.018225 -153.861363 
L 434.812778 -142.861119 
L 435.60733 -148.493735 
L 436.401883 -154.827766 
L 437.196435 -153.833586 
L 437.990988 -147.617825 
L 438.78554 -154.256343 
L 439.580093 -151.835488 
L 440.374645 -152.842266 
L 441.169198 -151.535404 
L 441.96375 -154.076765 
L 442.758302 -158.842606 
L 443.552855 -157.95332 
L 444.347407 -156.802993 
L 445.14196 -155.649563 
L 445.936512 -158.078358 
L 446.731065 -160.029139 
L 447.525617 -156.268519 
L 448.32017 -160.590163 
L 449.114722 -160.123784 
L 449.909275 -158.239408 
L 450.703827 -157.842389 
L 451.49838 -158.004046 
L 452.292932 -159.128598 
L 453.087485 -158.127049 
L 453.882037 -161.648803 
L 454.67659 -160.55835 
L 455.471142 -156.382766 
L 456.265694 -159.004732 
L 457.060247 -161.765671 
L 457.854799 -155.075766 
L 458.649352 -159.170311 
L 459.443904 -156.072537 
L 460.238457 -158.771984 
L 461.033009 -161.591111 
L 461.827562 -159.758915 
L 462.622114 -157.325987 
L 463.416667 -162.705644 
L 464.211219 -161.445854 
L 465.005772 -164.227623 
L 465.800324 -164.392919 
L 466.594877 -164.126891 
L 467.389429 -166.496127 
L 468.183981 -163.130309 
L 468.978534 -157.087828 
L 469.773086 -163.233267 
L 470.567639 -164.825296 
L 471.362191 -165.339535 
L 472.156744 -163.647402 
L 472.951296 -168.0047 
L 473.745849 -163.689917 
L 474.540401 -165.482743 
L 475.334954 -165.850256 
L 476.129506 -156.875537 
L 476.924059 -166.522073 
L 477.718611 -164.761552 
L 478.513164 -166.814877 
L 479.307716 -166.834382 
L 480.102269 -162.196531 
L 480.896821 -167.472026 
L 481.691373 -162.094616 
L 482.485926 -168.778286 
L 483.280478 -166.902745 
L 484.075031 -162.811661 
L 484.869583 -166.007226 
L 485.664136 -156.132411 
L 486.458688 -167.266007 
L 487.253241 -167.804507 
L 488.047793 -164.905002 
L 488.842346 -160.201967 
L 489.636898 -166.397499 
L 490.431451 -167.90039 
L 491.226003 -165.073648 
L 492.020556 -158.117942 
L 492.815108 -167.17098 
L 493.60966 -171.183541 
L 494.404213 -167.871681 
L 495.198765 -164.141834 
L 495.993318 -160.509521 
L 496.78787 -168.645298 
L 497.582423 -162.014885 
L 498.376975 -165.327337 
L 499.171528 -163.626586 
L 499.96608 -164.86814 
L 500.760633 -163.838652 
L 501.555185 -170.565402 
L 502.349738 -165.525546 
L 503.14429 -168.71936 
L 503.938843 -170.923576 
L 504.733395 -166.91272 
L 505.527948 -169.948488 
L 506.3225 -173.578651 
L 507.117052 -168.376078 
L 507.911605 -161.237736 
L 508.706157 -169.380166 
L 509.50071 -172.64528 
L 510.295262 -169.518935 
L 511.089815 -169.689649 
L 511.884367 -168.637522 
L 512.67892 -167.466518 
L 513.473472 -167.939689 
L 514.268025 -173.581398 
L 515.062577 -167.469381 
L 515.85713 -170.476323 
L 516.651682 -171.749336 
L 517.446235 -171.097211 
L 518.240787 -170.945201 
L 519.03534 -173.453699 
L 519.829892 -170.74012 
L 520.624444 -173.281825 
L 521.418997 -167.156704 
L 522.213549 -163.27216 
L 523.008102 -170.29702 
L 523.802654 -172.02813 
L 524.597207 -173.614766 
L 525.391759 -171.13754 
L 526.186312 -173.042467 
L 526.980864 -168.28535 
L 527.775417 -169.514182 
L 528.569969 -172.13945 
L 529.364522 -172.996882 
L 530.159074 -170.185379 
L 530.953627 -171.992184 
L 531.748179 -168.401803 
L 532.542731 -167.5867 
L 533.337284 -172.523928 
L 534.131836 -175.333685 
L 534.926389 -172.0557 
L 535.720941 -172.836266 
L 536.515494 -171.147741 
L 537.310046 -175.654879 
L 538.104599 -170.914713 
L 538.899151 -173.338373 
L 539.693704 -170.940133 
L 540.488256 -170.4344 
L 541.282809 -171.77972 
L 542.077361 -173.317957 
L 542.871914 -171.258794 
L 543.666466 -172.015247 
L 544.461019 -169.482774 
L 545.255571 -169.93238 
L 546.050123 -168.257669 
L 546.844676 -168.625408 
L 547.639228 -172.576523 
L 548.433781 -175.658741 
L 549.228333 -173.188877 
L 550.022886 -166.850166 
L 550.817438 -169.586249 
L 551.611991 -168.007513 
L 552.406543 -172.916062 
L 553.201096 -170.348269 
L 553.995648 -169.343952 
L 554.790201 -172.742287 
L 555.584753 -175.004044 
L 556.379306 -171.148573 
L 557.173858 -173.519401 
L 557.96841 -174.438829 
L 558.762963 -174.57329 
L 559.557515 -171.668638 
L 560.352068 -173.377183 
L 561.14662 -172.938375 
L 561.941173 -171.018406 
L 562.735725 -174.137368 
L 563.530278 -172.551473 
L 564.32483 -169.534332 
L 565.119383 -171.582706 
L 565.913935 -173.886742 
L 566.708488 -173.085874 
L 567.50304 -175.343835 
L 568.297593 -169.306419 
L 569.092145 -169.311001 
L 569.886698 -173.204057 
L 570.68125 -175.160446 
L 571.475802 -173.248797 
L 572.270355 -168.627995 
L 573.064907 -175.417143 
L 573.85946 -173.688187 
L 574.654012 -165.630822 
L 575.448565 -175.514407 
L 576.243117 -172.094475 
L 577.03767 -178.714497 
L 577.832222 -177.722946 
L 578.626775 -171.08232 
L 579.421327 -160.694771 
L 580.21588 -173.037571 
L 581.010432 -171.088773 
L 581.804985 -176.585115 
L 582.599537 -172.815479 
L 583.39409 -170.259727 
L 584.188642 -174.038673 
L 584.983194 -174.741259 
L 585.777747 -173.121754 
L 586.572299 -179.668696 
L 587.366852 -174.885099 
L 588.161404 -176.464481 
L 588.955957 -177.275122 
L 589.750509 -172.394337 
L 590.545062 -175.588775 
L 591.339614 -175.440202 
L 592.134167 -177.090274 
L 592.928719 -172.218334 
L 593.723272 -176.051595 
L 594.517824 -173.577279 
L 595.312377 -178.406373 
L 596.106929 -173.936927 
L 596.901481 -177.508325 
L 597.696034 -172.735539 
L 598.490586 -172.686774 
L 599.285139 -177.722152 
L 600.079691 -170.843303 
L 600.874244 -175.750622 
L 601.668796 -175.583514 
L 602.463349 -169.070578 
L 603.257901 -180.022061 
L 604.052454 -179.870021 
L 604.847006 -178.144135 
L 605.641559 -170.006236 
L 606.436111 -171.057724 
L 607.230664 -175.342824 
L 608.025216 -174.381819 
L 608.819769 -166.798192 
L 609.614321 -178.19375 
L 610.408873 -176.396454 
L 611.203426 -175.421331 
L 611.997978 -175.503421 
L 612.792531 -178.287037 
L 613.587083 -177.796273 
L 614.381636 -179.629579 
L 615.176188 -176.093986 
L 615.970741 -178.817663 
L 616.765293 -174.488224 
L 617.559846 -175.944558 
L 618.354398 -176.842323 
L 619.148951 -172.542683 
L 619.943503 -174.337975 
L 620.738056 -178.968977 
L 621.532608 -179.912151 
L 622.32716 -173.907549 
L 623.121713 -178.350434 
L 623.916265 -177.334993 
L 624.710818 -173.16567 
L 625.50537 -178.585419 
L 626.299923 -176.49404 
L 627.094475 -171.957064 
L 627.889028 -176.701751 
L 628.68358 -177.007938 
L 629.478133 -179.365873 
L 630.272685 -179.683152 
L 631.067238 -179.210762 
L 631.86179 -176.382137 
L 632.656343 -176.856462 
L 633.450895 -175.016484 
L 634.245448 -176.993949 
L 635.04 -176.523489 
L 635.04 -186.381762 
L 635.04 -186.381762 
L 634.245448 -189.596848 
L 633.450895 -189.310222 
L 632.656343 -189.948901 
L 631.86179 -188.67226 
L 631.067238 -190.312713 
L 630.272685 -190.924246 
L 629.478133 -190.276858 
L 628.68358 -188.192834 
L 627.889028 -188.584462 
L 627.094475 -187.526864 
L 626.299923 -187.378286 
L 625.50537 -190.436452 
L 624.710818 -185.89447 
L 623.916265 -189.223672 
L 623.121713 -190.244713 
L 622.32716 -191.162701 
L 621.532608 -190.974538 
L 620.738056 -191.583219 
L 619.943503 -188.403674 
L 619.148951 -184.097887 
L 618.354398 -187.758983 
L 617.559846 -188.702273 
L 616.765293 -188.248032 
L 615.970741 -189.438126 
L 615.176188 -186.985167 
L 614.381636 -189.715775 
L 613.587083 -188.778634 
L 612.792531 -190.311123 
L 611.997978 -187.747591 
L 611.203426 -187.505987 
L 610.408873 -188.881786 
L 609.614321 -190.523418 
L 608.819769 -183.669921 
L 608.025216 -188.011689 
L 607.230664 -189.02175 
L 606.436111 -190.050686 
L 605.641559 -185.205887 
L 604.847006 -188.749871 
L 604.052454 -191.955222 
L 603.257901 -191.233828 
L 602.463349 -186.365886 
L 601.668796 -188.816326 
L 600.874244 -188.408936 
L 600.079691 -188.761676 
L 599.285139 -188.644959 
L 598.490586 -187.230296 
L 597.696034 -184.0261 
L 596.901481 -188.496725 
L 596.106929 -186.560825 
L 595.312377 -190.071055 
L 594.517824 -186.96279 
L 593.723272 -187.293471 
L 592.928719 -185.040258 
L 592.134167 -188.018931 
L 591.339614 -187.62115 
L 590.545062 -186.726727 
L 589.750509 -184.879816 
L 588.955957 -187.590301 
L 588.161404 -188.177381 
L 587.366852 -186.598459 
L 586.572299 -190.61539 
L 585.777747 -189.264503 
L 584.983194 -187.08118 
L 584.188642 -186.31024 
L 583.39409 -185.214936 
L 582.599537 -184.897707 
L 581.804985 -190.376957 
L 581.010432 -185.048945 
L 580.21588 -186.158837 
L 579.421327 -184.574948 
L 578.626775 -184.305639 
L 577.832222 -188.534096 
L 577.03767 -190.138664 
L 576.243117 -185.233413 
L 575.448565 -189.920358 
L 574.654012 -181.43142 
L 573.85946 -187.399707 
L 573.064907 -187.563516 
L 572.270355 -184.122078 
L 571.475802 -185.719734 
L 570.68125 -187.863479 
L 569.886698 -186.486544 
L 569.092145 -182.970448 
L 568.297593 -181.719516 
L 567.50304 -188.115614 
L 566.708488 -188.341995 
L 565.913935 -185.731486 
L 565.119383 -186.092464 
L 564.32483 -184.314962 
L 563.530278 -184.324692 
L 562.735725 -186.504785 
L 561.941173 -184.569931 
L 561.14662 -185.658257 
L 560.352068 -185.557795 
L 559.557515 -184.712922 
L 558.762963 -187.538259 
L 557.96841 -186.016719 
L 557.173858 -185.021132 
L 556.379306 -184.221017 
L 555.584753 -187.324477 
L 554.790201 -187.634666 
L 553.995648 -184.888542 
L 553.201096 -182.885602 
L 552.406543 -186.905743 
L 551.611991 -183.725391 
L 550.817438 -183.250907 
L 550.022886 -182.219839 
L 549.228333 -187.856798 
L 548.433781 -188.669506 
L 547.639228 -183.433889 
L 546.844676 -183.796355 
L 546.050123 -182.249325 
L 545.255571 -184.306137 
L 544.461019 -181.754193 
L 543.666466 -183.743749 
L 542.871914 -186.039763 
L 542.077361 -185.234612 
L 541.282809 -184.051135 
L 540.488256 -183.853396 
L 539.693704 -183.032633 
L 538.899151 -185.520276 
L 538.104599 -184.352593 
L 537.310046 -186.898971 
L 536.515494 -182.755528 
L 535.720941 -184.938088 
L 534.926389 -185.186601 
L 534.131836 -189.06587 
L 533.337284 -185.410581 
L 532.542731 -182.208599 
L 531.748179 -183.493508 
L 530.953627 -184.436661 
L 530.159074 -181.977328 
L 529.364522 -184.495908 
L 528.569969 -185.176003 
L 527.775417 -181.927747 
L 526.980864 -181.846066 
L 526.186312 -184.945361 
L 525.391759 -184.00419 
L 524.597207 -186.802786 
L 523.802654 -184.671846 
L 523.008102 -185.397295 
L 522.213549 -184.659298 
L 521.418997 -179.543106 
L 520.624444 -185.704598 
L 519.829892 -182.531199 
L 519.03534 -186.885539 
L 518.240787 -183.528083 
L 517.446235 -185.018935 
L 516.651682 -185.043304 
L 515.85713 -181.714771 
L 515.062577 -182.716357 
L 514.268025 -185.332946 
L 513.473472 -180.6752 
L 512.67892 -182.916156 
L 511.884367 -181.92315 
L 511.089815 -183.958388 
L 510.295262 -182.535738 
L 509.50071 -184.033885 
L 508.706157 -181.610471 
L 507.911605 -180.804828 
L 507.117052 -182.267053 
L 506.3225 -187.643209 
L 505.527948 -182.851598 
L 504.733395 -181.402277 
L 503.938843 -183.832524 
L 503.14429 -180.673583 
L 502.349738 -181.019254 
L 501.555185 -180.989255 
L 500.760633 -179.422807 
L 499.96608 -177.957184 
L 499.171528 -178.749 
L 498.376975 -179.470608 
L 497.582423 -181.394059 
L 496.78787 -181.579798 
L 495.993318 -180.577832 
L 495.198765 -179.838023 
L 494.404213 -180.557189 
L 493.60966 -183.399849 
L 492.815108 -179.843029 
L 492.020556 -174.656198 
L 491.226003 -177.558553 
L 490.431451 -182.368735 
L 489.636898 -177.703409 
L 488.842346 -176.468883 
L 488.047793 -178.945221 
L 487.253241 -181.654027 
L 486.458688 -178.617569 
L 485.664136 -175.317888 
L 484.869583 -179.708851 
L 484.075031 -176.510954 
L 483.280478 -179.227485 
L 482.485926 -180.064316 
L 481.691373 -178.262723 
L 480.896821 -180.522219 
L 480.102269 -178.410556 
L 479.307716 -179.718988 
L 478.513164 -181.975769 
L 477.718611 -177.996943 
L 476.924059 -178.888699 
L 476.129506 -177.581092 
L 475.334954 -179.377577 
L 474.540401 -177.666998 
L 473.745849 -179.234226 
L 472.951296 -179.495106 
L 472.156744 -176.781182 
L 471.362191 -179.496147 
L 470.567639 -177.699705 
L 469.773086 -175.168053 
L 468.978534 -175.495256 
L 468.183981 -177.474253 
L 467.389429 -177.25846 
L 466.594877 -175.910457 
L 465.800324 -175.899315 
L 465.005772 -178.25061 
L 464.211219 -174.565163 
L 463.416667 -175.385969 
L 462.622114 -172.545709 
L 461.827562 -175.381965 
L 461.033009 -174.796978 
L 460.238457 -174.034648 
L 459.443904 -168.638533 
L 458.649352 -171.94573 
L 457.854799 -170.577542 
L 457.060247 -173.836398 
L 456.265694 -176.282863 
L 455.471142 -168.965896 
L 454.67659 -172.349521 
L 453.882037 -176.426411 
L 453.087485 -171.984643 
L 452.292932 -171.369496 
L 451.49838 -171.504938 
L 450.703827 -171.687575 
L 449.909275 -172.124185 
L 449.114722 -172.885001 
L 448.32017 -172.421852 
L 447.525617 -168.400212 
L 446.731065 -171.374009 
L 445.936512 -169.886696 
L 445.14196 -167.694074 
L 444.347407 -168.634295 
L 443.552855 -171.896048 
L 442.758302 -169.990155 
L 441.96375 -165.198073 
L 441.169198 -165.782238 
L 440.374645 -164.950671 
L 439.580093 -167.784632 
L 438.78554 -165.565661 
L 437.990988 -163.491099 
L 437.196435 -165.946697 
L 436.401883 -166.694086 
L 435.60733 -160.873781 
L 434.812778 -161.535889 
L 434.018225 -164.733062 
L 433.223673 -164.506089 
L 432.42912 -161.369702 
L 431.634568 -162.729293 
L 430.840015 -159.878754 
L 430.045463 -162.129349 
L 429.25091 -158.539544 
L 428.456358 -156.100028 
L 427.661806 -158.481323 
L 426.867253 -158.564292 
L 426.072701 -156.976758 
L 425.278148 -157.44579 
L 424.483596 -157.13105 
L 423.689043 -156.696225 
L 422.894491 -155.113468 
L 422.099938 -154.307353 
L 421.305386 -156.223664 
L 420.510833 -150.977677 
L 419.716281 -154.318405 
L 418.921728 -154.177476 
L 418.127176 -151.254571 
L 417.332623 -151.106105 
L 416.538071 -151.83975 
L 415.743519 -150.680444 
L 414.948966 -147.907983 
L 414.154414 -147.255487 
L 413.359861 -146.880091 
L 412.565309 -146.812852 
L 411.770756 -143.813693 
L 410.976204 -144.197039 
L 410.181651 -141.300722 
L 409.387099 -139.358855 
L 408.592546 -139.521817 
L 407.797994 -140.222757 
L 407.003441 -139.490094 
L 406.208889 -138.815259 
L 405.414336 -136.260989 
L 404.619784 -138.750524 
L 403.825231 -134.239978 
L 403.030679 -133.999236 
L 402.236127 -132.998961 
L 401.441574 -132.385606 
L 400.647022 -132.377975 
L 399.852469 -128.585627 
L 399.057917 -124.569616 
L 398.263364 -116.257702 
L 397.468812 -199.028412 
L 398.978461 -123.631678 
L 398.899006 -121.265239 
L 398.819551 -123.854458 
L 398.740096 -120.410293 
L 398.66064 -120.248516 
L 398.581185 -117.784876 
L 398.50173 -118.224079 
L 398.422275 -117.47426 
L 398.342819 -114.948979 
L 398.263364 -116.257702 
L 398.183909 -112.648332 
L 398.104454 -106.008908 
L 398.024998 -105.777969 
L 397.945543 -104.300423 
L 397.866088 -102.748464 
L 397.786633 -93.628406 
L 397.707177 -114.519292 
L 397.627722 -147.804778 
L 397.548267 -168.47632 
L 397.468812 -199.028412 
L 396.674259 -244.09101 
L 395.879707 -244.846872 
L 395.085154 -245.09048 
L 394.290602 -247.416275 
L 393.496049 -248.297858 
L 392.701497 -237.092582 
L 391.906944 -238.03021 
L 391.112392 -243.91847 
L 390.31784 -243.961612 
L 389.523287 -237.865583 
L 388.728735 -242.990412 
L 387.934182 -241.756172 
L 387.13963 -248.648132 
L 386.345077 -240.633436 
L 385.550525 -245.549434 
L 384.755972 -239.249759 
L 383.96142 -244.306966 
L 383.166867 -243.060382 
L 382.372315 -243.253431 
L 381.577762 -244.83549 
L 380.78321 -244.979814 
L 379.988657 -245.466637 
L 379.194105 -243.385831 
L 378.399552 -247.241794 
L 377.605 -241.514706 
z
" style="stroke: #8180ff; stroke-opacity: 0.2"/>
    </defs>
    <g clip-path="url(#pfb5ed95451)">
     <use xlink:href="#m7bc98ae6b9" x="0" y="270" style="fill: #8180ff; fill-opacity: 0.2; stroke: #8180ff; stroke-opacity: 0.2"/>
    </g>
   </g>
   <g id="line2d_14">
    <path d="M 377.605 31.088936 
L 378.399552 24.983202 
L 379.194105 29.15743 
L 379.988657 26.47534 
L 380.78321 27.877035 
L 382.372315 29.039304 
L 383.166867 29.155003 
L 383.96142 29.486837 
L 384.755972 33.053324 
L 385.550525 26.973537 
L 386.345077 31.54081 
L 387.13963 23.952765 
L 387.934182 39.011823 
L 388.728735 28.924951 
L 389.523287 33.994626 
L 390.31784 28.013936 
L 391.112392 28.73332 
L 391.906944 33.922121 
L 392.701497 34.763133 
L 393.496049 24.092144 
L 395.085154 26.958358 
L 395.879707 26.570546 
L 396.674259 27.678597 
L 397.468812 78.780281 
L 397.786633 182.780411 
L 397.866088 172.662105 
L 397.945543 172.866017 
L 398.50173 157.325785 
L 398.581185 158.340352 
L 398.819551 152.13953 
L 398.899006 153.524588 
L 398.978461 152.507088 
L 397.468812 78.780281 
L 398.263364 159.394598 
L 399.057917 151.251573 
L 399.852469 147.067293 
L 400.647022 141.486359 
L 401.441574 141.104361 
L 402.236127 143.037743 
L 403.030679 139.812005 
L 403.825231 139.622536 
L 404.619784 136.394359 
L 405.414336 139.590453 
L 406.208889 135.672812 
L 407.003441 134.836818 
L 407.797994 134.238246 
L 408.592546 137.380105 
L 409.387099 136.438932 
L 410.181651 136.077033 
L 410.976204 130.903102 
L 411.770756 133.4358 
L 412.565309 128.81674 
L 413.359861 129.320913 
L 414.154414 127.765111 
L 414.948966 128.567867 
L 415.743519 124.699258 
L 416.538071 123.969695 
L 417.332623 124.771125 
L 418.127176 124.312355 
L 418.921728 121.516419 
L 419.716281 121.198607 
L 420.510833 127.461705 
L 421.305386 119.710466 
L 422.099938 121.345893 
L 422.894491 123.543488 
L 423.689043 119.499455 
L 424.483596 118.289625 
L 425.278148 119.22029 
L 426.072701 120.508793 
L 426.867253 117.64829 
L 427.661806 117.387509 
L 428.456358 121.994017 
L 429.25091 119.852509 
L 430.045463 113.695644 
L 430.840015 115.774242 
L 431.634568 112.613445 
L 432.42912 114.575037 
L 433.223673 112.177634 
L 434.018225 110.702787 
L 434.812778 117.801496 
L 435.60733 115.316242 
L 436.401883 109.239074 
L 437.196435 110.109859 
L 437.990988 114.445538 
L 438.78554 110.088998 
L 439.580093 110.18994 
L 440.374645 111.103531 
L 441.169198 111.341179 
L 441.96375 110.362581 
L 442.758302 105.58362 
L 443.552855 105.075316 
L 444.347407 107.281356 
L 445.14196 108.328182 
L 445.936512 106.017473 
L 446.731065 104.298426 
L 447.525617 107.665635 
L 448.32017 103.493993 
L 449.114722 103.495607 
L 449.909275 104.818204 
L 450.703827 105.235018 
L 451.49838 105.245508 
L 452.292932 104.750953 
L 453.087485 104.944154 
L 453.882037 100.962393 
L 454.67659 103.546065 
L 455.471142 107.325669 
L 456.265694 102.356203 
L 457.060247 102.198965 
L 457.854799 107.173346 
L 458.649352 104.441979 
L 459.443904 107.644465 
L 460.238457 103.596684 
L 461.033009 101.805956 
L 461.827562 102.42956 
L 462.622114 105.064152 
L 463.416667 100.954194 
L 464.211219 101.994491 
L 465.005772 98.760884 
L 465.800324 99.853883 
L 466.594877 99.981326 
L 467.389429 98.122707 
L 468.183981 99.697719 
L 468.978534 103.708458 
L 469.773086 100.79934 
L 470.567639 98.7375 
L 471.362191 97.582159 
L 472.156744 99.785708 
L 472.951296 96.250097 
L 473.745849 98.537929 
L 474.540401 98.425129 
L 475.334954 97.386083 
L 476.129506 102.771686 
L 476.924059 97.294614 
L 477.718611 98.620752 
L 478.513164 95.604677 
L 479.307716 96.723315 
L 480.102269 99.696457 
L 480.896821 96.002878 
L 481.691373 99.82133 
L 482.485926 95.578699 
L 483.280478 96.934885 
L 484.075031 100.338692 
L 484.869583 97.141961 
L 485.664136 104.27485 
L 486.458688 97.058212 
L 487.253241 95.270733 
L 488.047793 98.074889 
L 488.842346 101.664575 
L 489.636898 97.949546 
L 490.431451 94.865438 
L 491.226003 98.683899 
L 492.020556 103.61293 
L 492.815108 96.492995 
L 493.60966 92.708305 
L 494.404213 95.785565 
L 495.198765 98.010072 
L 495.993318 99.456323 
L 496.78787 94.887452 
L 497.582423 98.295528 
L 498.376975 97.601028 
L 499.171528 98.812207 
L 500.760633 98.36927 
L 501.555185 94.222672 
L 502.349738 96.7276 
L 503.14429 95.303528 
L 503.938843 92.62195 
L 504.733395 95.842502 
L 505.527948 93.599957 
L 506.3225 89.38907 
L 507.117052 94.678435 
L 507.911605 98.978718 
L 508.706157 94.504682 
L 509.50071 91.660417 
L 510.295262 93.972663 
L 511.089815 93.175982 
L 511.884367 94.719664 
L 512.67892 94.808663 
L 513.473472 95.692555 
L 514.268025 90.542828 
L 515.062577 94.907131 
L 515.85713 93.904453 
L 516.651682 91.60368 
L 517.446235 91.941927 
L 518.240787 92.763358 
L 519.03534 89.830381 
L 519.829892 93.364341 
L 520.624444 90.506788 
L 521.418997 96.650095 
L 522.213549 96.034271 
L 523.008102 92.152842 
L 523.802654 91.650012 
L 524.597207 89.791224 
L 525.391759 92.429135 
L 526.186312 91.006086 
L 526.980864 94.934292 
L 527.775417 94.279036 
L 528.569969 91.342274 
L 529.364522 91.253605 
L 530.159074 93.918647 
L 530.953627 91.785577 
L 531.748179 94.052345 
L 532.542731 95.10235 
L 533.337284 91.032745 
L 534.131836 87.800223 
L 534.926389 91.37885 
L 535.720941 91.112823 
L 536.515494 93.048366 
L 537.310046 88.723075 
L 538.104599 92.366347 
L 538.899151 90.570676 
L 539.693704 93.013617 
L 540.488256 92.856102 
L 541.282809 92.084573 
L 542.077361 90.723716 
L 542.871914 91.350721 
L 543.666466 92.120502 
L 544.461019 94.381517 
L 545.255571 92.880742 
L 546.050123 94.746503 
L 546.844676 93.789119 
L 547.639228 91.994794 
L 548.433781 87.835876 
L 549.228333 89.477163 
L 550.022886 95.464998 
L 550.817438 93.581422 
L 551.611991 94.133548 
L 552.406543 90.089097 
L 553.201096 93.383065 
L 553.995648 92.883753 
L 554.790201 89.811523 
L 555.584753 88.835739 
L 556.379306 92.315205 
L 557.173858 90.729733 
L 558.762963 88.944226 
L 559.557515 91.80922 
L 560.352068 90.532511 
L 561.14662 90.701684 
L 561.941173 92.205832 
L 562.735725 89.678924 
L 563.530278 91.561917 
L 564.32483 93.075353 
L 565.119383 91.162415 
L 567.50304 88.270276 
L 568.297593 94.487032 
L 569.092145 93.859276 
L 569.886698 90.154699 
L 570.68125 88.488037 
L 571.475802 90.515735 
L 572.270355 93.624963 
L 573.064907 88.50967 
L 573.85946 89.456053 
L 574.654012 96.468879 
L 575.448565 87.282618 
L 576.243117 91.336056 
L 577.03767 85.57342 
L 577.832222 86.871479 
L 579.421327 97.36514 
L 580.21588 90.401796 
L 581.010432 91.931141 
L 581.804985 86.518964 
L 582.599537 91.143407 
L 583.39409 92.262669 
L 584.188642 89.825543 
L 584.983194 89.088781 
L 585.777747 88.806871 
L 586.572299 84.857957 
L 587.366852 89.258221 
L 588.161404 87.679069 
L 588.955957 87.567289 
L 589.750509 91.362924 
L 590.545062 88.842249 
L 591.339614 88.469324 
L 592.134167 87.445398 
L 592.928719 91.370704 
L 593.723272 88.327467 
L 594.517824 89.729965 
L 595.312377 85.761286 
L 596.106929 89.751124 
L 596.901481 86.997475 
L 597.696034 91.619181 
L 598.490586 90.041465 
L 599.285139 86.816444 
L 600.079691 90.197511 
L 600.874244 87.920221 
L 601.668796 87.80008 
L 602.463349 92.281768 
L 603.257901 84.372056 
L 604.052454 84.087379 
L 604.847006 86.552997 
L 605.641559 92.393939 
L 606.436111 89.445795 
L 607.230664 87.817713 
L 608.025216 88.803246 
L 608.819769 94.765944 
L 609.614321 85.641416 
L 610.408873 87.36088 
L 611.203426 88.536341 
L 611.997978 88.374494 
L 612.792531 85.70092 
L 613.587083 86.712547 
L 614.381636 85.327323 
L 615.176188 88.460423 
L 615.970741 85.872106 
L 616.765293 88.631872 
L 617.559846 87.676585 
L 618.354398 87.699347 
L 619.148951 91.679715 
L 619.943503 88.629176 
L 620.738056 84.723902 
L 621.532608 84.556656 
L 622.32716 87.464875 
L 623.121713 85.702426 
L 623.916265 86.720667 
L 624.710818 90.46993 
L 625.50537 85.489065 
L 626.299923 88.063837 
L 627.094475 90.258036 
L 627.889028 87.356893 
L 628.68358 87.399614 
L 629.478133 85.178635 
L 630.272685 84.696301 
L 631.067238 85.238262 
L 631.86179 87.472801 
L 632.656343 86.597319 
L 633.450895 87.836647 
L 634.245448 86.704601 
L 635.04 88.547375 
L 635.04 88.547375 
" clip-path="url(#pfb5ed95451)" style="fill: none; stroke: #8180ff; stroke-width: 1.5; stroke-linecap: square"/>
   </g>
   <g id="matplotlib.axis_3">
    <g id="xtick_7">
     <g id="line2d_15">
      <g>
       <use xlink:href="#mdbfa45c16b" x="397.468812" y="218.04" style="stroke: #000000; stroke-width: 0.8"/>
      </g>
     </g>
     <g id="text_15">
      <!-- 3000 -->
      <g transform="translate(379.653812 235.677813) scale(0.14 -0.14)">
       <use xlink:href="#DejaVuSans-33"/>
       <use xlink:href="#DejaVuSans-30" x="63.623047"/>
       <use xlink:href="#DejaVuSans-30" x="127.246094"/>
       <use xlink:href="#DejaVuSans-30" x="190.869141"/>
      </g>
     </g>
    </g>
    <g id="xtick_8">
     <g id="line2d_16">
      <g>
       <use xlink:href="#mdbfa45c16b" x="437.196435" y="218.04" style="stroke: #000000; stroke-width: 0.8"/>
      </g>
     </g>
     <g id="text_16">
      <!-- 3500 -->
      <g transform="translate(419.381435 235.677813) scale(0.14 -0.14)">
       <use xlink:href="#DejaVuSans-33"/>
       <use xlink:href="#DejaVuSans-35" x="63.623047"/>
       <use xlink:href="#DejaVuSans-30" x="127.246094"/>
       <use xlink:href="#DejaVuSans-30" x="190.869141"/>
      </g>
     </g>
    </g>
    <g id="xtick_9">
     <g id="line2d_17">
      <g>
       <use xlink:href="#mdbfa45c16b" x="476.924059" y="218.04" style="stroke: #000000; stroke-width: 0.8"/>
      </g>
     </g>
     <g id="text_17">
      <!-- 4000 -->
      <g transform="translate(459.109059 235.677813) scale(0.14 -0.14)">
       <use xlink:href="#DejaVuSans-34"/>
       <use xlink:href="#DejaVuSans-30" x="63.623047"/>
       <use xlink:href="#DejaVuSans-30" x="127.246094"/>
       <use xlink:href="#DejaVuSans-30" x="190.869141"/>
      </g>
     </g>
    </g>
    <g id="xtick_10">
     <g id="line2d_18">
      <g>
       <use xlink:href="#mdbfa45c16b" x="516.651682" y="218.04" style="stroke: #000000; stroke-width: 0.8"/>
      </g>
     </g>
     <g id="text_18">
      <!-- 4500 -->
      <g transform="translate(498.836682 235.677813) scale(0.14 -0.14)">
       <use xlink:href="#DejaVuSans-34"/>
       <use xlink:href="#DejaVuSans-35" x="63.623047"/>
       <use xlink:href="#DejaVuSans-30" x="127.246094"/>
       <use xlink:href="#DejaVuSans-30" x="190.869141"/>
      </g>
     </g>
    </g>
    <g id="xtick_11">
     <g id="line2d_19">
      <g>
       <use xlink:href="#mdbfa45c16b" x="556.379306" y="218.04" style="stroke: #000000; stroke-width: 0.8"/>
      </g>
     </g>
     <g id="text_19">
      <!-- 5000 -->
      <g transform="translate(538.564306 235.677813) scale(0.14 -0.14)">
       <use xlink:href="#DejaVuSans-35"/>
       <use xlink:href="#DejaVuSans-30" x="63.623047"/>
       <use xlink:href="#DejaVuSans-30" x="127.246094"/>
       <use xlink:href="#DejaVuSans-30" x="190.869141"/>
      </g>
     </g>
    </g>
    <g id="xtick_12">
     <g id="line2d_20">
      <g>
       <use xlink:href="#mdbfa45c16b" x="596.106929" y="218.04" style="stroke: #000000; stroke-width: 0.8"/>
      </g>
     </g>
     <g id="text_20">
      <!-- 5500 -->
      <g transform="translate(578.291929 235.677813) scale(0.14 -0.14)">
       <use xlink:href="#DejaVuSans-35"/>
       <use xlink:href="#DejaVuSans-35" x="63.623047"/>
       <use xlink:href="#DejaVuSans-30" x="127.246094"/>
       <use xlink:href="#DejaVuSans-30" x="190.869141"/>
      </g>
     </g>
    </g>
    <g id="text_21">
     <!-- Rendition number -->
     <g transform="translate(443.688906 253.227188) scale(0.14 -0.14)">
      <use xlink:href="#DejaVuSans-52"/>
      <use xlink:href="#DejaVuSans-65" x="64.982422"/>
      <use xlink:href="#DejaVuSans-6e" x="126.505859"/>
      <use xlink:href="#DejaVuSans-64" x="189.884766"/>
      <use xlink:href="#DejaVuSans-69" x="253.361328"/>
      <use xlink:href="#DejaVuSans-74" x="281.144531"/>
      <use xlink:href="#DejaVuSans-69" x="320.353516"/>
      <use xlink:href="#DejaVuSans-6f" x="348.136719"/>
      <use xlink:href="#DejaVuSans-6e" x="409.318359"/>
      <use xlink:href="#DejaVuSans-20" x="472.697266"/>
      <use xlink:href="#DejaVuSans-6e" x="504.484375"/>
      <use xlink:href="#DejaVuSans-75" x="567.863281"/>
      <use xlink:href="#DejaVuSans-6d" x="631.242188"/>
      <use xlink:href="#DejaVuSans-62" x="728.654297"/>
      <use xlink:href="#DejaVuSans-65" x="792.130859"/>
      <use xlink:href="#DejaVuSans-72" x="853.654297"/>
     </g>
    </g>
   </g>
   <g id="matplotlib.axis_4">
    <g id="ytick_7">
     <g id="line2d_21">
      <g>
       <use xlink:href="#m53a7184fe1" x="377.605" y="218.04" style="stroke: #000000; stroke-width: 0.8"/>
      </g>
     </g>
     <g id="text_22">
      <!-- 0.0 -->
      <g transform="translate(348.340625 223.358906) scale(0.14 -0.14)">
       <use xlink:href="#DejaVuSans-30"/>
       <use xlink:href="#DejaVuSans-2e" x="63.623047"/>
       <use xlink:href="#DejaVuSans-30" x="95.410156"/>
      </g>
     </g>
    </g>
    <g id="ytick_8">
     <g id="line2d_22">
      <g>
       <use xlink:href="#m53a7184fe1" x="377.605" y="180.23939" style="stroke: #000000; stroke-width: 0.8"/>
      </g>
     </g>
     <g id="text_23">
      <!-- 0.2 -->
      <g transform="translate(348.340625 185.558296) scale(0.14 -0.14)">
       <use xlink:href="#DejaVuSans-30"/>
       <use xlink:href="#DejaVuSans-2e" x="63.623047"/>
       <use xlink:href="#DejaVuSans-32" x="95.410156"/>
      </g>
     </g>
    </g>
    <g id="ytick_9">
     <g id="line2d_23">
      <g>
       <use xlink:href="#m53a7184fe1" x="377.605" y="142.438779" style="stroke: #000000; stroke-width: 0.8"/>
      </g>
     </g>
     <g id="text_24">
      <!-- 0.4 -->
      <g transform="translate(348.340625 147.757686) scale(0.14 -0.14)">
       <use xlink:href="#DejaVuSans-30"/>
       <use xlink:href="#DejaVuSans-2e" x="63.623047"/>
       <use xlink:href="#DejaVuSans-34" x="95.410156"/>
      </g>
     </g>
    </g>
    <g id="ytick_10">
     <g id="line2d_24">
      <g>
       <use xlink:href="#m53a7184fe1" x="377.605" y="104.638169" style="stroke: #000000; stroke-width: 0.8"/>
      </g>
     </g>
     <g id="text_25">
      <!-- 0.6 -->
      <g transform="translate(348.340625 109.957075) scale(0.14 -0.14)">
       <use xlink:href="#DejaVuSans-30"/>
       <use xlink:href="#DejaVuSans-2e" x="63.623047"/>
       <use xlink:href="#DejaVuSans-36" x="95.410156"/>
      </g>
     </g>
    </g>
    <g id="ytick_11">
     <g id="line2d_25">
      <g>
       <use xlink:href="#m53a7184fe1" x="377.605" y="66.837559" style="stroke: #000000; stroke-width: 0.8"/>
      </g>
     </g>
     <g id="text_26">
      <!-- 0.8 -->
      <g transform="translate(348.340625 72.156465) scale(0.14 -0.14)">
       <use xlink:href="#DejaVuSans-30"/>
       <use xlink:href="#DejaVuSans-2e" x="63.623047"/>
       <use xlink:href="#DejaVuSans-38" x="95.410156"/>
      </g>
     </g>
    </g>
    <g id="ytick_12">
     <g id="line2d_26">
      <g>
       <use xlink:href="#m53a7184fe1" x="377.605" y="29.036948" style="stroke: #000000; stroke-width: 0.8"/>
      </g>
     </g>
     <g id="text_27">
      <!-- 1.0 -->
      <g transform="translate(348.340625 34.355855) scale(0.14 -0.14)">
       <use xlink:href="#DejaVuSans-31"/>
       <use xlink:href="#DejaVuSans-2e" x="63.623047"/>
       <use xlink:href="#DejaVuSans-30" x="95.410156"/>
      </g>
     </g>
    </g>
    <g id="text_28">
     <!-- Mean inhibitory activity -->
     <g transform="translate(341.429062 198.023438) rotate(-90) scale(0.14 -0.14)">
      <defs>
       <path id="DejaVuSans-68" d="M 3513 2113 
L 3513 0 
L 2938 0 
L 2938 2094 
Q 2938 2591 2744 2837 
Q 2550 3084 2163 3084 
Q 1697 3084 1428 2787 
Q 1159 2491 1159 1978 
L 1159 0 
L 581 0 
L 581 4863 
L 1159 4863 
L 1159 2956 
Q 1366 3272 1645 3428 
Q 1925 3584 2291 3584 
Q 2894 3584 3203 3211 
Q 3513 2838 3513 2113 
z
" transform="scale(0.015625)"/>
      </defs>
      <use xlink:href="#DejaVuSans-4d"/>
      <use xlink:href="#DejaVuSans-65" x="86.279297"/>
      <use xlink:href="#DejaVuSans-61" x="147.802734"/>
      <use xlink:href="#DejaVuSans-6e" x="209.082031"/>
      <use xlink:href="#DejaVuSans-20" x="272.460938"/>
      <use xlink:href="#DejaVuSans-69" x="304.248047"/>
      <use xlink:href="#DejaVuSans-6e" x="332.03125"/>
      <use xlink:href="#DejaVuSans-68" x="395.410156"/>
      <use xlink:href="#DejaVuSans-69" x="458.789062"/>
      <use xlink:href="#DejaVuSans-62" x="486.572266"/>
      <use xlink:href="#DejaVuSans-69" x="550.048828"/>
      <use xlink:href="#DejaVuSans-74" x="577.832031"/>
      <use xlink:href="#DejaVuSans-6f" x="617.041016"/>
      <use xlink:href="#DejaVuSans-72" x="678.222656"/>
      <use xlink:href="#DejaVuSans-79" x="719.335938"/>
      <use xlink:href="#DejaVuSans-20" x="778.515625"/>
      <use xlink:href="#DejaVuSans-61" x="810.302734"/>
      <use xlink:href="#DejaVuSans-63" x="871.582031"/>
      <use xlink:href="#DejaVuSans-74" x="926.5625"/>
      <use xlink:href="#DejaVuSans-69" x="965.771484"/>
      <use xlink:href="#DejaVuSans-76" x="993.554688"/>
      <use xlink:href="#DejaVuSans-69" x="1052.734375"/>
      <use xlink:href="#DejaVuSans-74" x="1080.517578"/>
      <use xlink:href="#DejaVuSans-79" x="1119.726562"/>
     </g>
    </g>
   </g>
   <g id="patch_6">
    <path d="M 377.605 218.04 
L 377.605 12.96 
" style="fill: none; stroke: #000000; stroke-width: 3; stroke-linejoin: miter; stroke-linecap: square"/>
   </g>
   <g id="patch_7">
    <path d="M 377.605 218.04 
L 635.04 218.04 
" style="fill: none; stroke: #000000; stroke-width: 3; stroke-linejoin: miter; stroke-linecap: square"/>
   </g>
  </g>
 </g>
 <defs>
  <clipPath id="pce54966f11">
   <rect x="60.085" y="12.96" width="257.435" height="205.08"/>
  </clipPath>
  <clipPath id="pfb5ed95451">
   <rect x="377.605" y="12.96" width="257.435" height="205.08"/>
  </clipPath>
 </defs>
</svg>
