<?xml version="1.0" encoding="utf-8" standalone="no"?>
<!DOCTYPE svg PUBLIC "-//W3C//DTD SVG 1.1//EN"
  "http://www.w3.org/Graphics/SVG/1.1/DTD/svg11.dtd">
<svg xmlns:xlink="http://www.w3.org/1999/xlink" width="648pt" height="270pt" viewBox="0 0 648 270" xmlns="http://www.w3.org/2000/svg" version="1.1">
 <metadata>
  <rdf:RDF xmlns:dc="http://purl.org/dc/elements/1.1/" xmlns:cc="http://creativecommons.org/ns#" xmlns:rdf="http://www.w3.org/1999/02/22-rdf-syntax-ns#">
   <cc:Work>
    <dc:type rdf:resource="http://purl.org/dc/dcmitype/StillImage"/>
    <dc:date>2023-04-17T11:35:44.304449</dc:date>
    <dc:format>image/svg+xml</dc:format>
    <dc:creator>
     <cc:Agent>
      <dc:title>Matplotlib v3.6.3, https://matplotlib.org/</dc:title>
     </cc:Agent>
    </dc:creator>
   </cc:Work>
  </rdf:RDF>
 </metadata>
 <defs>
  <style type="text/css">*{stroke-linejoin: round; stroke-linecap: butt}</style>
 </defs>
 <g id="figure_1">
  <g id="patch_1">
   <path d="M 0 270 
L 648 270 
L 648 0 
L 0 0 
L 0 270 
z
" style="fill: none"/>
  </g>
  <g id="axes_1">
   <g id="patch_2">
    <path d="M 60.085 218.04 
L 317.52 218.04 
L 317.52 12.96 
L 60.085 12.96 
z
" style="fill: #ffffff"/>
   </g>
   <g id="PolyCollection_1">
    <defs>
     <path id="mf7e6cdd555" d="M 60.085 -247.570725 
L 60.085 -243.909503 
L 60.879552 -246.351497 
L 61.674105 -243.806229 
L 62.468657 -246.105068 
L 63.26321 -244.981209 
L 64.057762 -244.691666 
L 64.852315 -244.327608 
L 65.646867 -245.229389 
L 66.44142 -243.809802 
L 67.235972 -240.579936 
L 68.030525 -246.05928 
L 68.825077 -242.778435 
L 69.61963 -247.847668 
L 70.414182 -220.416546 
L 71.208735 -246.32515 
L 72.003287 -241.552427 
L 72.79784 -244.98799 
L 73.592392 -242.825315 
L 74.386944 -243.005813 
L 75.181497 -240.21414 
L 75.976049 -249.943083 
L 76.770602 -246.560688 
L 77.565154 -246.727171 
L 78.359707 -247.560299 
L 79.154259 -244.032438 
L 79.948812 -210.383366 
L 80.028267 -214.272902 
L 80.107722 -207.657762 
L 80.187177 -200.750371 
L 80.266633 -173.167095 
L 80.346088 -174.947999 
L 80.425543 -199.547897 
L 80.504998 -201.410761 
L 80.584454 -202.970157 
L 80.663909 -205.297827 
L 80.743364 -208.774914 
L 80.822819 -207.908587 
L 80.902275 -208.832814 
L 80.98173 -209.496648 
L 81.061185 -209.17227 
L 81.14064 -210.750021 
L 81.220096 -212.634618 
L 81.299551 -211.260583 
L 81.379006 -212.98315 
L 81.458461 -215.510977 
L 79.948812 -210.383366 
L 80.743364 -208.774914 
L 81.537917 -212.156219 
L 82.332469 -215.376149 
L 83.127022 -221.286502 
L 83.921574 -221.793313 
L 84.716127 -225.102793 
L 85.510679 -224.121608 
L 86.305231 -224.595845 
L 87.099784 -227.094041 
L 87.894336 -226.855431 
L 88.688889 -226.04001 
L 89.483441 -225.212038 
L 90.277994 -230.093283 
L 91.072546 -225.61132 
L 91.867099 -228.659752 
L 92.661651 -228.830148 
L 93.456204 -231.353605 
L 94.250756 -230.445177 
L 95.045309 -233.333731 
L 95.839861 -231.510037 
L 96.634414 -234.443521 
L 97.428966 -229.467029 
L 98.223519 -230.942181 
L 99.018071 -230.9645 
L 99.812623 -225.213524 
L 100.607176 -231.126089 
L 101.401728 -234.4534 
L 102.196281 -232.784197 
L 102.990833 -230.826169 
L 103.785386 -236.178363 
L 104.579938 -237.705528 
L 105.374491 -233.54362 
L 106.169043 -234.727176 
L 106.963596 -232.269178 
L 107.758148 -232.626532 
L 108.552701 -234.938554 
L 109.347253 -230.698014 
L 110.141806 -234.647759 
L 110.936358 -232.550303 
L 111.73091 -237.719404 
L 112.525463 -237.736871 
L 113.320015 -238.428798 
L 114.114568 -232.06945 
L 114.90912 -236.394322 
L 115.703673 -229.993645 
L 116.498225 -244.269546 
L 117.292778 -234.590833 
L 118.08733 -231.94274 
L 118.881883 -229.857963 
L 119.676435 -242.430293 
L 120.470988 -233.32471 
L 121.26554 -235.558521 
L 122.060093 -237.65886 
L 122.854645 -238.141195 
L 123.649198 -235.563295 
L 124.44375 -229.892378 
L 125.238302 -236.801731 
L 126.032855 -236.007459 
L 126.827407 -233.004313 
L 127.62196 -236.559254 
L 128.416512 -232.834902 
L 129.211065 -237.41474 
L 130.005617 -238.424472 
L 130.80017 -236.537715 
L 131.594722 -234.830213 
L 132.389275 -238.668562 
L 133.183827 -240.205133 
L 133.97838 -238.56754 
L 134.772932 -240.813732 
L 135.567485 -237.962949 
L 136.362037 -233.29753 
L 137.15659 -232.695972 
L 137.951142 -238.01866 
L 138.745694 -235.575381 
L 139.540247 -240.718117 
L 140.334799 -239.440017 
L 141.129352 -238.480268 
L 141.923904 -238.12852 
L 142.718457 -236.575176 
L 143.513009 -239.375628 
L 144.307562 -238.290862 
L 145.102114 -238.387152 
L 145.896667 -232.254859 
L 146.691219 -236.296982 
L 147.485772 -237.240061 
L 148.280324 -234.316151 
L 149.074877 -236.933419 
L 149.869429 -232.946679 
L 150.663981 -238.478839 
L 151.458534 -242.401062 
L 152.253086 -235.230324 
L 153.047639 -228.946718 
L 153.842191 -233.446369 
L 154.636744 -213.009586 
L 155.431296 -239.46727 
L 156.225849 -241.752402 
L 157.020401 -237.212267 
L 157.814954 -239.991622 
L 158.609506 -214.928226 
L 159.404059 -238.008544 
L 160.198611 -239.310522 
L 160.993164 -240.742953 
L 161.787716 -228.752289 
L 162.582269 -242.284215 
L 163.376821 -238.311307 
L 164.171373 -241.222795 
L 164.965926 -239.712098 
L 165.760478 -243.574232 
L 166.555031 -239.032243 
L 167.349583 -240.554112 
L 168.144136 -236.113577 
L 168.938688 -233.903863 
L 169.733241 -234.892666 
L 170.527793 -229.210823 
L 171.322346 -239.735845 
L 172.116898 -239.984093 
L 172.911451 -238.646813 
L 173.706003 -235.317241 
L 174.500556 -233.954761 
L 175.295108 -234.287036 
L 176.08966 -235.692918 
L 176.884213 -239.182741 
L 177.678765 -235.973896 
L 178.473318 -237.984748 
L 179.26787 -238.612968 
L 180.062423 -241.997178 
L 180.856975 -240.885711 
L 181.651528 -240.127839 
L 182.44608 -236.193896 
L 183.240633 -236.740108 
L 184.035185 -238.188544 
L 184.829738 -233.502928 
L 185.62429 -237.625159 
L 186.418843 -242.466708 
L 187.213395 -238.098461 
L 188.007948 -244.822276 
L 188.8025 -233.070382 
L 189.597052 -239.097446 
L 190.391605 -237.40018 
L 191.186157 -240.621161 
L 191.98071 -241.172501 
L 192.775262 -230.563183 
L 193.569815 -239.878197 
L 194.364367 -233.951065 
L 195.15892 -238.195986 
L 195.953472 -239.387004 
L 196.748025 -230.371848 
L 197.542577 -235.378073 
L 198.33713 -242.045291 
L 199.131682 -240.94073 
L 199.926235 -235.150966 
L 200.720787 -237.324005 
L 201.51534 -238.787674 
L 202.309892 -238.889569 
L 203.104444 -237.115527 
L 203.898997 -241.632045 
L 204.693549 -239.8191 
L 205.488102 -241.895402 
L 206.282654 -235.63595 
L 207.077207 -241.93706 
L 207.871759 -214.44003 
L 208.666312 -240.037318 
L 209.460864 -244.952916 
L 210.255417 -239.783811 
L 211.049969 -235.852153 
L 211.844522 -234.651208 
L 212.639074 -235.510035 
L 213.433627 -235.126968 
L 214.228179 -239.118011 
L 215.022731 -238.332432 
L 215.817284 -239.126104 
L 216.611836 -238.767615 
L 217.406389 -235.20383 
L 218.200941 -241.618758 
L 218.995494 -239.959085 
L 219.790046 -236.216582 
L 220.584599 -239.286333 
L 221.379151 -236.413991 
L 222.173704 -242.140353 
L 222.968256 -241.564182 
L 223.762809 -238.287551 
L 224.557361 -238.517428 
L 225.351914 -236.005017 
L 226.146466 -238.129001 
L 226.941019 -238.216732 
L 227.735571 -238.489097 
L 228.530123 -238.021955 
L 229.324676 -243.083558 
L 230.119228 -233.916798 
L 230.913781 -236.578521 
L 231.708333 -233.633119 
L 232.502886 -240.638024 
L 233.297438 -235.971228 
L 234.091991 -240.09166 
L 234.886543 -241.237763 
L 235.681096 -234.899376 
L 236.475648 -239.122705 
L 237.270201 -243.238289 
L 238.064753 -231.821478 
L 238.859306 -235.975541 
L 239.653858 -239.10781 
L 240.44841 -238.731618 
L 241.242963 -240.495786 
L 242.037515 -240.011507 
L 242.832068 -236.069185 
L 243.62662 -233.357293 
L 244.421173 -236.618352 
L 245.215725 -210.773713 
L 246.010278 -238.567744 
L 246.80483 -240.401445 
L 247.599383 -238.905782 
L 248.393935 -233.760435 
L 249.188488 -244.111283 
L 249.98304 -237.551977 
L 250.777593 -237.569309 
L 251.572145 -238.480445 
L 252.366698 -233.866741 
L 253.16125 -241.925568 
L 253.955802 -236.011457 
L 254.750355 -238.101596 
L 255.544907 -234.807508 
L 256.33946 -241.093575 
L 257.134012 -239.884655 
L 257.928565 -237.825562 
L 258.723117 -238.660133 
L 259.51767 -231.293919 
L 260.312222 -238.098139 
L 261.106775 -230.606149 
L 261.901327 -245.240297 
L 262.69588 -240.719923 
L 263.490432 -236.568672 
L 264.284985 -232.500405 
L 265.079537 -242.193156 
L 265.87409 -236.244779 
L 266.668642 -233.518235 
L 267.463194 -232.770162 
L 268.257747 -238.439324 
L 269.052299 -235.415973 
L 269.846852 -238.19077 
L 270.641404 -244.127122 
L 271.435957 -237.012743 
L 272.230509 -240.706116 
L 273.025062 -237.834264 
L 273.819614 -234.381933 
L 274.614167 -235.643783 
L 275.408719 -238.500372 
L 276.203272 -241.852669 
L 276.997824 -245.377455 
L 277.792377 -234.742181 
L 278.586929 -241.080392 
L 279.381481 -240.44001 
L 280.176034 -238.026163 
L 280.970586 -239.584744 
L 281.765139 -215.426345 
L 282.559691 -238.853675 
L 283.354244 -238.175151 
L 284.148796 -237.854026 
L 284.943349 -211.613082 
L 285.737901 -238.073397 
L 286.532454 -237.259203 
L 287.327006 -237.881979 
L 288.121559 -240.025037 
L 288.916111 -241.678052 
L 289.710664 -237.065008 
L 290.505216 -241.942223 
L 291.299769 -241.433238 
L 292.094321 -238.817293 
L 292.888873 -236.870191 
L 293.683426 -236.909477 
L 294.477978 -232.622521 
L 295.272531 -242.276999 
L 296.067083 -214.370466 
L 296.861636 -240.459437 
L 297.656188 -238.384469 
L 298.450741 -239.798778 
L 299.245293 -229.959732 
L 300.039846 -238.853463 
L 300.834398 -236.405862 
L 301.628951 -240.289648 
L 302.423503 -233.525973 
L 303.218056 -235.690505 
L 304.012608 -236.879238 
L 304.80716 -238.737583 
L 305.601713 -241.09223 
L 306.396265 -236.405794 
L 307.190818 -238.64841 
L 307.98537 -234.920511 
L 308.779923 -237.16884 
L 309.574475 -240.963468 
L 310.369028 -234.601339 
L 311.16358 -241.29455 
L 311.958133 -236.344138 
L 312.752685 -231.398882 
L 313.547238 -245.071313 
L 314.34179 -242.207192 
L 315.136343 -236.596614 
L 315.930895 -238.369634 
L 316.725448 -239.049028 
L 317.52 -231.985122 
L 317.52 -241.035015 
L 317.52 -241.035015 
L 316.725448 -243.998569 
L 315.930895 -243.384814 
L 315.136343 -242.466994 
L 314.34179 -247.525601 
L 313.547238 -252.601263 
L 312.752685 -237.276348 
L 311.958133 -245.49243 
L 311.16358 -249.336781 
L 310.369028 -241.963241 
L 309.574475 -246.324289 
L 308.779923 -241.135355 
L 307.98537 -242.500507 
L 307.190818 -245.115296 
L 306.396265 -242.11612 
L 305.601713 -244.277357 
L 304.80716 -245.951756 
L 304.012608 -243.904934 
L 303.218056 -243.978328 
L 302.423503 -241.39558 
L 301.628951 -247.121025 
L 300.834398 -244.820883 
L 300.039846 -246.018758 
L 299.245293 -239.254924 
L 298.450741 -245.426378 
L 297.656188 -246.333699 
L 296.861636 -246.630497 
L 296.067083 -241.896662 
L 295.272531 -245.434469 
L 294.477978 -243.54951 
L 293.683426 -242.006076 
L 292.888873 -243.165716 
L 292.094321 -244.026396 
L 291.299769 -245.799809 
L 290.505216 -248.320665 
L 289.710664 -241.134329 
L 288.916111 -247.572944 
L 288.121559 -246.1725 
L 287.327006 -247.155908 
L 286.532454 -243.045193 
L 285.737901 -242.279017 
L 284.943349 -239.799176 
L 284.148796 -243.883192 
L 283.354244 -243.793578 
L 282.559691 -243.550275 
L 281.765139 -241.340649 
L 280.970586 -247.693338 
L 280.176034 -245.677422 
L 279.381481 -246.715571 
L 278.586929 -246.935853 
L 277.792377 -240.092865 
L 276.997824 -248.996584 
L 276.203272 -246.401451 
L 275.408719 -245.235194 
L 274.614167 -240.527932 
L 273.819614 -239.53349 
L 273.025062 -243.321349 
L 272.230509 -247.684139 
L 271.435957 -242.640581 
L 270.641404 -249.988224 
L 269.846852 -242.070233 
L 269.052299 -244.013848 
L 268.257747 -244.611481 
L 267.463194 -241.455076 
L 266.668642 -240.669561 
L 265.87409 -243.558896 
L 265.079537 -249.436529 
L 264.284985 -237.898614 
L 263.490432 -243.54739 
L 262.69588 -245.106399 
L 261.901327 -248.614742 
L 261.106775 -237.517146 
L 260.312222 -245.558271 
L 259.51767 -239.85256 
L 258.723117 -244.151423 
L 257.928565 -240.535448 
L 257.134012 -245.858099 
L 256.33946 -246.947516 
L 255.544907 -243.859031 
L 254.750355 -241.812935 
L 253.955802 -242.703521 
L 253.16125 -248.090351 
L 252.366698 -240.351661 
L 251.572145 -245.297967 
L 250.777593 -245.057846 
L 249.98304 -242.373141 
L 249.188488 -247.834371 
L 248.393935 -237.808707 
L 247.599383 -245.958709 
L 246.80483 -245.156964 
L 246.010278 -242.574885 
L 245.215725 -237.5512 
L 244.421173 -241.877565 
L 243.62662 -240.762365 
L 242.832068 -240.234018 
L 242.037515 -244.621459 
L 241.242963 -246.037461 
L 240.44841 -245.861493 
L 239.653858 -244.687121 
L 238.859306 -238.401283 
L 238.064753 -242.620618 
L 237.270201 -249.448742 
L 236.475648 -244.740014 
L 235.681096 -245.534657 
L 234.886543 -247.561439 
L 234.091991 -246.670205 
L 233.297438 -241.29931 
L 232.502886 -245.63247 
L 231.708333 -237.693706 
L 230.913781 -243.892364 
L 230.119228 -238.863259 
L 229.324676 -248.555606 
L 228.530123 -242.474249 
L 227.735571 -242.08517 
L 226.941019 -241.009702 
L 226.146466 -245.616141 
L 225.351914 -242.679113 
L 224.557361 -242.900638 
L 223.762809 -246.342163 
L 222.968256 -247.89701 
L 222.173704 -247.671059 
L 221.379151 -244.822846 
L 220.584599 -245.441852 
L 219.790046 -243.252753 
L 218.995494 -246.23678 
L 218.200941 -246.244515 
L 217.406389 -243.795701 
L 216.611836 -243.53947 
L 215.817284 -244.87735 
L 215.022731 -246.020597 
L 214.228179 -246.942124 
L 213.433627 -243.314087 
L 212.639074 -241.431845 
L 211.844522 -243.439863 
L 211.049969 -242.00341 
L 210.255417 -246.155754 
L 209.460864 -250.027952 
L 208.666312 -242.958043 
L 207.871759 -240.946055 
L 207.077207 -247.269991 
L 206.282654 -241.763951 
L 205.488102 -245.824698 
L 204.693549 -247.31726 
L 203.898997 -245.684818 
L 203.104444 -242.826877 
L 202.309892 -245.403658 
L 201.51534 -246.516023 
L 200.720787 -242.277647 
L 199.926235 -241.21643 
L 199.131682 -247.70701 
L 198.33713 -248.048683 
L 197.542577 -241.648695 
L 196.748025 -237.550463 
L 195.953472 -245.232527 
L 195.15892 -245.219686 
L 194.364367 -241.18826 
L 193.569815 -246.638172 
L 192.775262 -239.112792 
L 191.98071 -248.897738 
L 191.186157 -248.396894 
L 190.391605 -241.177967 
L 189.597052 -246.403525 
L 188.8025 -240.670963 
L 188.007948 -251.211288 
L 187.213395 -243.002854 
L 186.418843 -247.630768 
L 185.62429 -241.443058 
L 184.829738 -237.04011 
L 184.035185 -245.835254 
L 183.240633 -246.362461 
L 182.44608 -240.909597 
L 181.651528 -248.064499 
L 180.856975 -245.781836 
L 180.062423 -246.403655 
L 179.26787 -241.525145 
L 178.473318 -246.008302 
L 177.678765 -241.542097 
L 176.884213 -245.399844 
L 176.08966 -239.509542 
L 175.295108 -239.952045 
L 174.500556 -240.706815 
L 173.706003 -241.598666 
L 172.911451 -243.431672 
L 172.116898 -247.060471 
L 171.322346 -245.383455 
L 170.527793 -239.869101 
L 169.733241 -244.576974 
L 168.938688 -238.29582 
L 168.144136 -240.698876 
L 167.349583 -244.856398 
L 166.555031 -244.87056 
L 165.760478 -250.133304 
L 164.965926 -243.437109 
L 164.171373 -246.784539 
L 163.376821 -243.195476 
L 162.582269 -247.857069 
L 161.787716 -235.253094 
L 160.993164 -244.567951 
L 160.198611 -243.804732 
L 159.404059 -245.560963 
L 158.609506 -242.118046 
L 157.814954 -245.295511 
L 157.020401 -245.274225 
L 156.225849 -248.666716 
L 155.431296 -244.174298 
L 154.636744 -237.30822 
L 153.842191 -236.611924 
L 153.047639 -238.344179 
L 152.253086 -240.805273 
L 151.458534 -247.449003 
L 150.663981 -244.867879 
L 149.869429 -239.334404 
L 149.074877 -243.247115 
L 148.280324 -242.273184 
L 147.485772 -242.68825 
L 146.691219 -241.633519 
L 145.896667 -242.776265 
L 145.102114 -246.545325 
L 144.307562 -243.890799 
L 143.513009 -246.044106 
L 142.718457 -243.193113 
L 141.923904 -244.154413 
L 141.129352 -244.073147 
L 140.334799 -244.717059 
L 139.540247 -246.359819 
L 138.745694 -240.769409 
L 137.951142 -242.119114 
L 137.15659 -238.885705 
L 136.362037 -240.481489 
L 135.567485 -244.538274 
L 134.772932 -244.852401 
L 133.97838 -241.662696 
L 133.183827 -246.566487 
L 132.389275 -243.861608 
L 131.594722 -241.4361 
L 130.80017 -242.626096 
L 130.005617 -242.691015 
L 129.211065 -244.829633 
L 128.416512 -240.34375 
L 127.62196 -241.20295 
L 126.827407 -239.373122 
L 126.032855 -243.022226 
L 125.238302 -245.390389 
L 124.44375 -235.876303 
L 123.649198 -241.518378 
L 122.854645 -245.589996 
L 122.060093 -243.398239 
L 121.26554 -242.760928 
L 120.470988 -240.686613 
L 119.676435 -246.284178 
L 118.881883 -239.705668 
L 118.08733 -237.105954 
L 117.292778 -239.447595 
L 116.498225 -250.269638 
L 115.703673 -238.583281 
L 114.90912 -239.672513 
L 114.114568 -241.427398 
L 113.320015 -242.160727 
L 112.525463 -241.719071 
L 111.73091 -241.101857 
L 110.936358 -238.781675 
L 110.141806 -239.771912 
L 109.347253 -237.607969 
L 108.552701 -240.750918 
L 107.758148 -242.271693 
L 106.963596 -236.725805 
L 106.169043 -238.973047 
L 105.374491 -239.759079 
L 104.579938 -240.198278 
L 103.785386 -241.680663 
L 102.990833 -236.565121 
L 102.196281 -239.162333 
L 101.401728 -240.184374 
L 100.607176 -235.614458 
L 99.812623 -237.466743 
L 99.018071 -236.439263 
L 98.223519 -237.558739 
L 97.428966 -234.60099 
L 96.634414 -239.105312 
L 95.839861 -236.045497 
L 95.045309 -237.750623 
L 94.250756 -238.476176 
L 93.456204 -236.828119 
L 92.661651 -233.036105 
L 91.867099 -235.11651 
L 91.072546 -230.798743 
L 90.277994 -237.758969 
L 89.483441 -232.377192 
L 88.688889 -231.231832 
L 87.894336 -232.03712 
L 87.099784 -231.652013 
L 86.305231 -229.121329 
L 85.510679 -226.375692 
L 84.716127 -227.645285 
L 83.921574 -226.067082 
L 83.127022 -227.304625 
L 82.332469 -218.59859 
L 81.537917 -216.607829 
L 80.743364 -213.410036 
L 79.948812 -235.099398 
L 81.458461 -219.326712 
L 81.379006 -217.942511 
L 81.299551 -215.194633 
L 81.220096 -216.779591 
L 81.14064 -215.481972 
L 81.061185 -214.268491 
L 80.98173 -214.653375 
L 80.902275 -212.4143 
L 80.822819 -212.336522 
L 80.743364 -213.410036 
L 80.663909 -211.213164 
L 80.584454 -206.89077 
L 80.504998 -207.55347 
L 80.425543 -206.319321 
L 80.346088 -196.525838 
L 80.266633 -194.832262 
L 80.187177 -210.061012 
L 80.107722 -215.4042 
L 80.028267 -219.926568 
L 79.948812 -235.099398 
L 79.154259 -247.435661 
L 78.359707 -250.011586 
L 77.565154 -250.130454 
L 76.770602 -250.585133 
L 75.976049 -253.046052 
L 75.181497 -241.751388 
L 74.386944 -245.91261 
L 73.592392 -247.711217 
L 72.79784 -249.213546 
L 72.003287 -244.783583 
L 71.208735 -249.6868 
L 70.414182 -247.421201 
L 69.61963 -251.696859 
L 68.825077 -246.372896 
L 68.030525 -249.555285 
L 67.235972 -243.357234 
L 66.44142 -248.101318 
L 65.646867 -248.808294 
L 64.852315 -248.284657 
L 64.057762 -248.741899 
L 63.26321 -249.679557 
L 62.468657 -249.659142 
L 61.674105 -247.989299 
L 60.879552 -250.388474 
L 60.085 -247.570725 
z
" style="stroke: #ee82ee; stroke-opacity: 0.2"/>
    </defs>
    <g clip-path="url(#pb949d87928)">
     <use xlink:href="#mf7e6cdd555" x="0" y="270" style="fill: #ee82ee; fill-opacity: 0.2; stroke: #ee82ee; stroke-opacity: 0.2"/>
    </g>
   </g>
   <g id="line2d_1">
    <path d="M 60.085 24.259886 
L 60.879552 21.630014 
L 61.674105 24.102236 
L 62.468657 22.117895 
L 64.852315 23.693867 
L 65.646867 22.981159 
L 66.44142 24.04444 
L 67.235972 28.031415 
L 68.030525 22.192717 
L 68.825077 25.424335 
L 69.61963 20.227736 
L 70.414182 36.081126 
L 71.208735 21.994025 
L 72.003287 26.831995 
L 72.79784 22.899232 
L 73.592392 24.731734 
L 74.386944 25.540788 
L 75.181497 29.017236 
L 75.976049 18.505432 
L 76.770602 21.42709 
L 77.565154 21.571188 
L 78.359707 21.214058 
L 79.154259 24.26595 
L 79.948812 47.258618 
L 80.187177 64.594309 
L 80.266633 86.000322 
L 80.346088 84.263081 
L 80.504998 65.517885 
L 80.584454 65.069537 
L 80.743364 58.907525 
L 80.822819 59.877445 
L 80.902275 59.376443 
L 81.220096 55.292895 
L 81.299551 56.772392 
L 81.458461 52.581155 
L 79.948812 47.258618 
L 80.743364 58.907525 
L 81.537917 55.617976 
L 82.332469 53.01263 
L 83.127022 45.704436 
L 83.921574 46.069802 
L 84.716127 43.625961 
L 85.510679 44.75135 
L 86.305231 43.141413 
L 87.099784 40.626973 
L 87.894336 40.553725 
L 88.688889 41.364079 
L 89.483441 41.205385 
L 90.277994 36.073874 
L 91.072546 41.794969 
L 91.867099 38.111869 
L 92.661651 39.066874 
L 93.456204 35.909138 
L 94.250756 35.539323 
L 95.045309 34.457823 
L 95.839861 36.222233 
L 96.634414 33.225583 
L 97.428966 37.96599 
L 98.223519 35.74954 
L 99.018071 36.298119 
L 99.812623 38.659866 
L 100.607176 36.629727 
L 101.401728 32.681113 
L 102.196281 34.026735 
L 102.990833 36.304355 
L 103.785386 31.070487 
L 104.579938 31.048097 
L 105.374491 33.348651 
L 106.169043 33.149888 
L 106.963596 35.502509 
L 107.758148 32.550887 
L 108.552701 32.155264 
L 109.347253 35.847009 
L 110.141806 32.790165 
L 110.936358 34.334011 
L 111.73091 30.589369 
L 112.525463 30.272029 
L 113.320015 29.705237 
L 114.114568 33.251576 
L 114.90912 31.966582 
L 115.703673 35.711537 
L 116.498225 22.730408 
L 117.292778 32.980786 
L 118.08733 35.475653 
L 118.881883 35.218185 
L 119.676435 25.642765 
L 120.470988 32.994338 
L 121.26554 30.840276 
L 122.854645 28.134404 
L 123.649198 31.459163 
L 124.44375 37.11566 
L 125.238302 28.90394 
L 126.032855 30.485158 
L 126.827407 33.811282 
L 127.62196 31.118898 
L 128.416512 33.410674 
L 129.211065 28.877814 
L 130.005617 29.442257 
L 130.80017 30.418094 
L 131.594722 31.866843 
L 132.389275 28.734915 
L 133.183827 26.61419 
L 133.97838 29.884882 
L 134.772932 27.166933 
L 135.567485 28.749388 
L 136.362037 33.110491 
L 137.15659 34.209162 
L 137.951142 29.931113 
L 138.745694 31.827605 
L 139.540247 26.461032 
L 140.334799 27.921462 
L 141.129352 28.723292 
L 141.923904 28.858533 
L 142.718457 30.115856 
L 143.513009 27.290133 
L 144.307562 28.909169 
L 145.102114 27.533762 
L 145.896667 32.484438 
L 146.691219 31.034749 
L 147.485772 30.035844 
L 148.280324 31.705333 
L 149.074877 29.909733 
L 149.869429 33.859459 
L 150.663981 28.326641 
L 151.458534 25.074968 
L 152.253086 31.982202 
L 153.047639 36.354552 
L 153.842191 34.970854 
L 154.636744 44.841097 
L 155.431296 28.179216 
L 156.225849 24.790441 
L 157.020401 28.756754 
L 157.814954 27.356433 
L 158.609506 41.476864 
L 159.404059 28.215246 
L 160.198611 28.442373 
L 160.993164 27.344548 
L 161.787716 37.997309 
L 162.582269 24.929358 
L 163.376821 29.246608 
L 164.171373 25.996333 
L 164.965926 28.425397 
L 165.760478 23.146232 
L 166.555031 28.048599 
L 167.349583 27.294745 
L 168.144136 31.593773 
L 168.938688 33.900158 
L 169.733241 30.26518 
L 170.527793 35.460038 
L 171.322346 27.44035 
L 172.116898 26.477718 
L 173.706003 31.542047 
L 174.500556 32.669212 
L 175.295108 32.880459 
L 176.08966 32.39877 
L 176.884213 27.708708 
L 177.678765 31.242004 
L 178.473318 28.003475 
L 179.26787 29.930943 
L 180.062423 25.799583 
L 180.856975 26.666226 
L 181.651528 25.903831 
L 182.44608 31.448254 
L 183.240633 28.448716 
L 184.035185 27.988101 
L 184.829738 34.728481 
L 185.62429 30.465891 
L 186.418843 24.951262 
L 187.213395 29.449342 
L 188.007948 21.983218 
L 188.8025 33.129327 
L 189.597052 27.249515 
L 190.391605 30.710927 
L 191.186157 25.490972 
L 191.98071 24.964881 
L 192.775262 35.162012 
L 193.569815 26.741816 
L 194.364367 32.430337 
L 195.15892 28.292164 
L 195.953472 27.690235 
L 196.748025 36.038844 
L 197.542577 31.486616 
L 198.33713 24.953013 
L 199.131682 25.67613 
L 199.926235 31.816302 
L 200.720787 30.199174 
L 201.51534 27.348152 
L 202.309892 27.853387 
L 203.104444 30.028798 
L 203.898997 26.341569 
L 204.693549 26.43182 
L 205.488102 26.13995 
L 206.282654 31.30005 
L 207.077207 25.396474 
L 207.871759 42.306957 
L 208.666312 28.502319 
L 209.460864 22.509566 
L 211.049969 31.072219 
L 211.844522 30.954464 
L 212.639074 31.52906 
L 213.433627 30.779472 
L 214.228179 26.969933 
L 215.022731 27.823486 
L 215.817284 27.998273 
L 216.611836 28.846458 
L 217.406389 30.500235 
L 218.200941 26.068364 
L 218.995494 26.902067 
L 219.790046 30.265332 
L 220.584599 27.635907 
L 221.379151 29.381582 
L 222.173704 25.094294 
L 222.968256 25.269404 
L 223.762809 27.685143 
L 225.351914 30.657935 
L 226.146466 28.127429 
L 226.941019 30.386783 
L 227.735571 29.712867 
L 228.530123 29.751898 
L 229.324676 24.180418 
L 230.119228 33.609972 
L 230.913781 29.764558 
L 231.708333 34.336587 
L 232.502886 26.864753 
L 233.297438 31.364731 
L 234.091991 26.619068 
L 234.886543 25.600399 
L 235.681096 29.782983 
L 236.475648 28.06864 
L 237.270201 23.656484 
L 238.064753 32.778952 
L 238.859306 32.811588 
L 239.653858 28.102534 
L 240.44841 27.703444 
L 241.242963 26.733377 
L 242.037515 27.683517 
L 242.832068 31.848399 
L 243.62662 32.940171 
L 244.421173 30.752042 
L 245.215725 45.837543 
L 246.010278 29.428685 
L 246.80483 27.220795 
L 247.599383 27.567754 
L 248.393935 34.215429 
L 249.188488 24.027173 
L 249.98304 30.037441 
L 250.777593 28.686423 
L 251.572145 28.110794 
L 252.366698 32.890799 
L 253.16125 24.992041 
L 253.955802 30.642511 
L 254.750355 30.042735 
L 255.544907 30.666731 
L 256.33946 25.979455 
L 257.134012 27.128623 
L 257.928565 30.819495 
L 258.723117 28.594222 
L 259.51767 34.42676 
L 260.312222 28.171795 
L 261.106775 35.938352 
L 261.901327 23.07248 
L 262.69588 27.086839 
L 263.490432 29.941969 
L 264.284985 34.800491 
L 265.079537 24.185158 
L 265.87409 30.098163 
L 266.668642 32.906102 
L 267.463194 32.887381 
L 268.257747 28.474597 
L 269.052299 30.28509 
L 269.846852 29.869499 
L 270.641404 22.942327 
L 271.435957 30.173338 
L 272.230509 25.804872 
L 273.819614 33.042288 
L 274.614167 31.914142 
L 275.408719 28.132217 
L 276.203272 25.87294 
L 276.997824 22.812981 
L 277.792377 32.582477 
L 278.586929 25.991878 
L 279.381481 26.42221 
L 280.176034 28.148207 
L 280.970586 26.360959 
L 281.765139 41.616503 
L 282.559691 28.798025 
L 284.148796 29.131391 
L 284.943349 44.293871 
L 285.737901 29.823793 
L 286.532454 29.847802 
L 287.327006 27.481057 
L 288.121559 26.901231 
L 288.916111 25.374502 
L 289.710664 30.900332 
L 290.505216 24.868556 
L 291.299769 26.383477 
L 292.094321 28.578156 
L 292.888873 29.982047 
L 293.683426 30.542223 
L 294.477978 31.913985 
L 295.272531 26.144266 
L 296.067083 41.866436 
L 296.861636 26.455033 
L 297.656188 27.640916 
L 298.450741 27.387422 
L 299.245293 35.392672 
L 300.039846 27.563889 
L 300.834398 29.386627 
L 301.628951 26.294664 
L 302.423503 32.539223 
L 303.218056 30.165583 
L 304.012608 29.607914 
L 304.80716 27.65533 
L 305.601713 27.315206 
L 306.396265 30.739043 
L 307.190818 28.118147 
L 307.98537 31.289491 
L 308.779923 30.847903 
L 309.574475 26.356122 
L 310.369028 31.71771 
L 311.16358 24.684334 
L 311.958133 29.081716 
L 312.752685 35.662385 
L 313.547238 21.163712 
L 314.34179 25.133603 
L 315.136343 30.468196 
L 315.930895 29.122776 
L 316.725448 28.476202 
L 317.52 33.489931 
L 317.52 33.489931 
" clip-path="url(#pb949d87928)" style="fill: none; stroke: #ee82ee; stroke-width: 1.5; stroke-linecap: square"/>
   </g>
   <g id="matplotlib.axis_1">
    <g id="xtick_1">
     <g id="line2d_2">
      <defs>
       <path id="m2f9d2b1fe2" d="M 0 0 
L 0 3.5 
" style="stroke: #000000; stroke-width: 0.8"/>
      </defs>
      <g>
       <use xlink:href="#m2f9d2b1fe2" x="79.948812" y="218.04" style="stroke: #000000; stroke-width: 0.8"/>
      </g>
     </g>
     <g id="text_1">
      <!-- 3000 -->
      <g transform="translate(62.133812 235.677813) scale(0.14 -0.14)">
       <defs>
        <path id="DejaVuSans-33" d="M 2597 2516 
Q 3050 2419 3304 2112 
Q 3559 1806 3559 1356 
Q 3559 666 3084 287 
Q 2609 -91 1734 -91 
Q 1441 -91 1130 -33 
Q 819 25 488 141 
L 488 750 
Q 750 597 1062 519 
Q 1375 441 1716 441 
Q 2309 441 2620 675 
Q 2931 909 2931 1356 
Q 2931 1769 2642 2001 
Q 2353 2234 1838 2234 
L 1294 2234 
L 1294 2753 
L 1863 2753 
Q 2328 2753 2575 2939 
Q 2822 3125 2822 3475 
Q 2822 3834 2567 4026 
Q 2313 4219 1838 4219 
Q 1578 4219 1281 4162 
Q 984 4106 628 3988 
L 628 4550 
Q 988 4650 1302 4700 
Q 1616 4750 1894 4750 
Q 2613 4750 3031 4423 
Q 3450 4097 3450 3541 
Q 3450 3153 3228 2886 
Q 3006 2619 2597 2516 
z
" transform="scale(0.015625)"/>
        <path id="DejaVuSans-30" d="M 2034 4250 
Q 1547 4250 1301 3770 
Q 1056 3291 1056 2328 
Q 1056 1369 1301 889 
Q 1547 409 2034 409 
Q 2525 409 2770 889 
Q 3016 1369 3016 2328 
Q 3016 3291 2770 3770 
Q 2525 4250 2034 4250 
z
M 2034 4750 
Q 2819 4750 3233 4129 
Q 3647 3509 3647 2328 
Q 3647 1150 3233 529 
Q 2819 -91 2034 -91 
Q 1250 -91 836 529 
Q 422 1150 422 2328 
Q 422 3509 836 4129 
Q 1250 4750 2034 4750 
z
" transform="scale(0.015625)"/>
       </defs>
       <use xlink:href="#DejaVuSans-33"/>
       <use xlink:href="#DejaVuSans-30" x="63.623047"/>
       <use xlink:href="#DejaVuSans-30" x="127.246094"/>
       <use xlink:href="#DejaVuSans-30" x="190.869141"/>
      </g>
     </g>
    </g>
    <g id="xtick_2">
     <g id="line2d_3">
      <g>
       <use xlink:href="#m2f9d2b1fe2" x="119.676435" y="218.04" style="stroke: #000000; stroke-width: 0.8"/>
      </g>
     </g>
     <g id="text_2">
      <!-- 3500 -->
      <g transform="translate(101.861435 235.677813) scale(0.14 -0.14)">
       <defs>
        <path id="DejaVuSans-35" d="M 691 4666 
L 3169 4666 
L 3169 4134 
L 1269 4134 
L 1269 2991 
Q 1406 3038 1543 3061 
Q 1681 3084 1819 3084 
Q 2600 3084 3056 2656 
Q 3513 2228 3513 1497 
Q 3513 744 3044 326 
Q 2575 -91 1722 -91 
Q 1428 -91 1123 -41 
Q 819 9 494 109 
L 494 744 
Q 775 591 1075 516 
Q 1375 441 1709 441 
Q 2250 441 2565 725 
Q 2881 1009 2881 1497 
Q 2881 1984 2565 2268 
Q 2250 2553 1709 2553 
Q 1456 2553 1204 2497 
Q 953 2441 691 2322 
L 691 4666 
z
" transform="scale(0.015625)"/>
       </defs>
       <use xlink:href="#DejaVuSans-33"/>
       <use xlink:href="#DejaVuSans-35" x="63.623047"/>
       <use xlink:href="#DejaVuSans-30" x="127.246094"/>
       <use xlink:href="#DejaVuSans-30" x="190.869141"/>
      </g>
     </g>
    </g>
    <g id="xtick_3">
     <g id="line2d_4">
      <g>
       <use xlink:href="#m2f9d2b1fe2" x="159.404059" y="218.04" style="stroke: #000000; stroke-width: 0.8"/>
      </g>
     </g>
     <g id="text_3">
      <!-- 4000 -->
      <g transform="translate(141.589059 235.677813) scale(0.14 -0.14)">
       <defs>
        <path id="DejaVuSans-34" d="M 2419 4116 
L 825 1625 
L 2419 1625 
L 2419 4116 
z
M 2253 4666 
L 3047 4666 
L 3047 1625 
L 3713 1625 
L 3713 1100 
L 3047 1100 
L 3047 0 
L 2419 0 
L 2419 1100 
L 313 1100 
L 313 1709 
L 2253 4666 
z
" transform="scale(0.015625)"/>
       </defs>
       <use xlink:href="#DejaVuSans-34"/>
       <use xlink:href="#DejaVuSans-30" x="63.623047"/>
       <use xlink:href="#DejaVuSans-30" x="127.246094"/>
       <use xlink:href="#DejaVuSans-30" x="190.869141"/>
      </g>
     </g>
    </g>
    <g id="xtick_4">
     <g id="line2d_5">
      <g>
       <use xlink:href="#m2f9d2b1fe2" x="199.131682" y="218.04" style="stroke: #000000; stroke-width: 0.8"/>
      </g>
     </g>
     <g id="text_4">
      <!-- 4500 -->
      <g transform="translate(181.316682 235.677813) scale(0.14 -0.14)">
       <use xlink:href="#DejaVuSans-34"/>
       <use xlink:href="#DejaVuSans-35" x="63.623047"/>
       <use xlink:href="#DejaVuSans-30" x="127.246094"/>
       <use xlink:href="#DejaVuSans-30" x="190.869141"/>
      </g>
     </g>
    </g>
    <g id="xtick_5">
     <g id="line2d_6">
      <g>
       <use xlink:href="#m2f9d2b1fe2" x="238.859306" y="218.04" style="stroke: #000000; stroke-width: 0.8"/>
      </g>
     </g>
     <g id="text_5">
      <!-- 5000 -->
      <g transform="translate(221.044306 235.677813) scale(0.14 -0.14)">
       <use xlink:href="#DejaVuSans-35"/>
       <use xlink:href="#DejaVuSans-30" x="63.623047"/>
       <use xlink:href="#DejaVuSans-30" x="127.246094"/>
       <use xlink:href="#DejaVuSans-30" x="190.869141"/>
      </g>
     </g>
    </g>
    <g id="xtick_6">
     <g id="line2d_7">
      <g>
       <use xlink:href="#m2f9d2b1fe2" x="278.586929" y="218.04" style="stroke: #000000; stroke-width: 0.8"/>
      </g>
     </g>
     <g id="text_6">
      <!-- 5500 -->
      <g transform="translate(260.771929 235.677813) scale(0.14 -0.14)">
       <use xlink:href="#DejaVuSans-35"/>
       <use xlink:href="#DejaVuSans-35" x="63.623047"/>
       <use xlink:href="#DejaVuSans-30" x="127.246094"/>
       <use xlink:href="#DejaVuSans-30" x="190.869141"/>
      </g>
     </g>
    </g>
    <g id="text_7">
     <!-- Rendition number -->
     <g transform="translate(126.168906 253.227188) scale(0.14 -0.14)">
      <defs>
       <path id="DejaVuSans-52" d="M 2841 2188 
Q 3044 2119 3236 1894 
Q 3428 1669 3622 1275 
L 4263 0 
L 3584 0 
L 2988 1197 
Q 2756 1666 2539 1819 
Q 2322 1972 1947 1972 
L 1259 1972 
L 1259 0 
L 628 0 
L 628 4666 
L 2053 4666 
Q 2853 4666 3247 4331 
Q 3641 3997 3641 3322 
Q 3641 2881 3436 2590 
Q 3231 2300 2841 2188 
z
M 1259 4147 
L 1259 2491 
L 2053 2491 
Q 2509 2491 2742 2702 
Q 2975 2913 2975 3322 
Q 2975 3731 2742 3939 
Q 2509 4147 2053 4147 
L 1259 4147 
z
" transform="scale(0.015625)"/>
       <path id="DejaVuSans-65" d="M 3597 1894 
L 3597 1613 
L 953 1613 
Q 991 1019 1311 708 
Q 1631 397 2203 397 
Q 2534 397 2845 478 
Q 3156 559 3463 722 
L 3463 178 
Q 3153 47 2828 -22 
Q 2503 -91 2169 -91 
Q 1331 -91 842 396 
Q 353 884 353 1716 
Q 353 2575 817 3079 
Q 1281 3584 2069 3584 
Q 2775 3584 3186 3129 
Q 3597 2675 3597 1894 
z
M 3022 2063 
Q 3016 2534 2758 2815 
Q 2500 3097 2075 3097 
Q 1594 3097 1305 2825 
Q 1016 2553 972 2059 
L 3022 2063 
z
" transform="scale(0.015625)"/>
       <path id="DejaVuSans-6e" d="M 3513 2113 
L 3513 0 
L 2938 0 
L 2938 2094 
Q 2938 2591 2744 2837 
Q 2550 3084 2163 3084 
Q 1697 3084 1428 2787 
Q 1159 2491 1159 1978 
L 1159 0 
L 581 0 
L 581 3500 
L 1159 3500 
L 1159 2956 
Q 1366 3272 1645 3428 
Q 1925 3584 2291 3584 
Q 2894 3584 3203 3211 
Q 3513 2838 3513 2113 
z
" transform="scale(0.015625)"/>
       <path id="DejaVuSans-64" d="M 2906 2969 
L 2906 4863 
L 3481 4863 
L 3481 0 
L 2906 0 
L 2906 525 
Q 2725 213 2448 61 
Q 2172 -91 1784 -91 
Q 1150 -91 751 415 
Q 353 922 353 1747 
Q 353 2572 751 3078 
Q 1150 3584 1784 3584 
Q 2172 3584 2448 3432 
Q 2725 3281 2906 2969 
z
M 947 1747 
Q 947 1113 1208 752 
Q 1469 391 1925 391 
Q 2381 391 2643 752 
Q 2906 1113 2906 1747 
Q 2906 2381 2643 2742 
Q 2381 3103 1925 3103 
Q 1469 3103 1208 2742 
Q 947 2381 947 1747 
z
" transform="scale(0.015625)"/>
       <path id="DejaVuSans-69" d="M 603 3500 
L 1178 3500 
L 1178 0 
L 603 0 
L 603 3500 
z
M 603 4863 
L 1178 4863 
L 1178 4134 
L 603 4134 
L 603 4863 
z
" transform="scale(0.015625)"/>
       <path id="DejaVuSans-74" d="M 1172 4494 
L 1172 3500 
L 2356 3500 
L 2356 3053 
L 1172 3053 
L 1172 1153 
Q 1172 725 1289 603 
Q 1406 481 1766 481 
L 2356 481 
L 2356 0 
L 1766 0 
Q 1100 0 847 248 
Q 594 497 594 1153 
L 594 3053 
L 172 3053 
L 172 3500 
L 594 3500 
L 594 4494 
L 1172 4494 
z
" transform="scale(0.015625)"/>
       <path id="DejaVuSans-6f" d="M 1959 3097 
Q 1497 3097 1228 2736 
Q 959 2375 959 1747 
Q 959 1119 1226 758 
Q 1494 397 1959 397 
Q 2419 397 2687 759 
Q 2956 1122 2956 1747 
Q 2956 2369 2687 2733 
Q 2419 3097 1959 3097 
z
M 1959 3584 
Q 2709 3584 3137 3096 
Q 3566 2609 3566 1747 
Q 3566 888 3137 398 
Q 2709 -91 1959 -91 
Q 1206 -91 779 398 
Q 353 888 353 1747 
Q 353 2609 779 3096 
Q 1206 3584 1959 3584 
z
" transform="scale(0.015625)"/>
       <path id="DejaVuSans-20" transform="scale(0.015625)"/>
       <path id="DejaVuSans-75" d="M 544 1381 
L 544 3500 
L 1119 3500 
L 1119 1403 
Q 1119 906 1312 657 
Q 1506 409 1894 409 
Q 2359 409 2629 706 
Q 2900 1003 2900 1516 
L 2900 3500 
L 3475 3500 
L 3475 0 
L 2900 0 
L 2900 538 
Q 2691 219 2414 64 
Q 2138 -91 1772 -91 
Q 1169 -91 856 284 
Q 544 659 544 1381 
z
M 1991 3584 
L 1991 3584 
z
" transform="scale(0.015625)"/>
       <path id="DejaVuSans-6d" d="M 3328 2828 
Q 3544 3216 3844 3400 
Q 4144 3584 4550 3584 
Q 5097 3584 5394 3201 
Q 5691 2819 5691 2113 
L 5691 0 
L 5113 0 
L 5113 2094 
Q 5113 2597 4934 2840 
Q 4756 3084 4391 3084 
Q 3944 3084 3684 2787 
Q 3425 2491 3425 1978 
L 3425 0 
L 2847 0 
L 2847 2094 
Q 2847 2600 2669 2842 
Q 2491 3084 2119 3084 
Q 1678 3084 1418 2786 
Q 1159 2488 1159 1978 
L 1159 0 
L 581 0 
L 581 3500 
L 1159 3500 
L 1159 2956 
Q 1356 3278 1631 3431 
Q 1906 3584 2284 3584 
Q 2666 3584 2933 3390 
Q 3200 3197 3328 2828 
z
" transform="scale(0.015625)"/>
       <path id="DejaVuSans-62" d="M 3116 1747 
Q 3116 2381 2855 2742 
Q 2594 3103 2138 3103 
Q 1681 3103 1420 2742 
Q 1159 2381 1159 1747 
Q 1159 1113 1420 752 
Q 1681 391 2138 391 
Q 2594 391 2855 752 
Q 3116 1113 3116 1747 
z
M 1159 2969 
Q 1341 3281 1617 3432 
Q 1894 3584 2278 3584 
Q 2916 3584 3314 3078 
Q 3713 2572 3713 1747 
Q 3713 922 3314 415 
Q 2916 -91 2278 -91 
Q 1894 -91 1617 61 
Q 1341 213 1159 525 
L 1159 0 
L 581 0 
L 581 4863 
L 1159 4863 
L 1159 2969 
z
" transform="scale(0.015625)"/>
       <path id="DejaVuSans-72" d="M 2631 2963 
Q 2534 3019 2420 3045 
Q 2306 3072 2169 3072 
Q 1681 3072 1420 2755 
Q 1159 2438 1159 1844 
L 1159 0 
L 581 0 
L 581 3500 
L 1159 3500 
L 1159 2956 
Q 1341 3275 1631 3429 
Q 1922 3584 2338 3584 
Q 2397 3584 2469 3576 
Q 2541 3569 2628 3553 
L 2631 2963 
z
" transform="scale(0.015625)"/>
      </defs>
      <use xlink:href="#DejaVuSans-52"/>
      <use xlink:href="#DejaVuSans-65" x="64.982422"/>
      <use xlink:href="#DejaVuSans-6e" x="126.505859"/>
      <use xlink:href="#DejaVuSans-64" x="189.884766"/>
      <use xlink:href="#DejaVuSans-69" x="253.361328"/>
      <use xlink:href="#DejaVuSans-74" x="281.144531"/>
      <use xlink:href="#DejaVuSans-69" x="320.353516"/>
      <use xlink:href="#DejaVuSans-6f" x="348.136719"/>
      <use xlink:href="#DejaVuSans-6e" x="409.318359"/>
      <use xlink:href="#DejaVuSans-20" x="472.697266"/>
      <use xlink:href="#DejaVuSans-6e" x="504.484375"/>
      <use xlink:href="#DejaVuSans-75" x="567.863281"/>
      <use xlink:href="#DejaVuSans-6d" x="631.242188"/>
      <use xlink:href="#DejaVuSans-62" x="728.654297"/>
      <use xlink:href="#DejaVuSans-65" x="792.130859"/>
      <use xlink:href="#DejaVuSans-72" x="853.654297"/>
     </g>
    </g>
   </g>
   <g id="matplotlib.axis_2">
    <g id="ytick_1">
     <g id="line2d_8">
      <defs>
       <path id="m0a931b6c42" d="M 0 0 
L -3.5 0 
" style="stroke: #000000; stroke-width: 0.8"/>
      </defs>
      <g>
       <use xlink:href="#m0a931b6c42" x="60.085" y="218.04" style="stroke: #000000; stroke-width: 0.8"/>
      </g>
     </g>
     <g id="text_8">
      <!-- 0.0 -->
      <g transform="translate(30.820625 223.358906) scale(0.14 -0.14)">
       <defs>
        <path id="DejaVuSans-2e" d="M 684 794 
L 1344 794 
L 1344 0 
L 684 0 
L 684 794 
z
" transform="scale(0.015625)"/>
       </defs>
       <use xlink:href="#DejaVuSans-30"/>
       <use xlink:href="#DejaVuSans-2e" x="63.623047"/>
       <use xlink:href="#DejaVuSans-30" x="95.410156"/>
      </g>
     </g>
    </g>
    <g id="ytick_2">
     <g id="line2d_9">
      <g>
       <use xlink:href="#m0a931b6c42" x="60.085" y="179.152094" style="stroke: #000000; stroke-width: 0.8"/>
      </g>
     </g>
     <g id="text_9">
      <!-- 0.2 -->
      <g transform="translate(30.820625 184.471) scale(0.14 -0.14)">
       <defs>
        <path id="DejaVuSans-32" d="M 1228 531 
L 3431 531 
L 3431 0 
L 469 0 
L 469 531 
Q 828 903 1448 1529 
Q 2069 2156 2228 2338 
Q 2531 2678 2651 2914 
Q 2772 3150 2772 3378 
Q 2772 3750 2511 3984 
Q 2250 4219 1831 4219 
Q 1534 4219 1204 4116 
Q 875 4013 500 3803 
L 500 4441 
Q 881 4594 1212 4672 
Q 1544 4750 1819 4750 
Q 2544 4750 2975 4387 
Q 3406 4025 3406 3419 
Q 3406 3131 3298 2873 
Q 3191 2616 2906 2266 
Q 2828 2175 2409 1742 
Q 1991 1309 1228 531 
z
" transform="scale(0.015625)"/>
       </defs>
       <use xlink:href="#DejaVuSans-30"/>
       <use xlink:href="#DejaVuSans-2e" x="63.623047"/>
       <use xlink:href="#DejaVuSans-32" x="95.410156"/>
      </g>
     </g>
    </g>
    <g id="ytick_3">
     <g id="line2d_10">
      <g>
       <use xlink:href="#m0a931b6c42" x="60.085" y="140.264188" style="stroke: #000000; stroke-width: 0.8"/>
      </g>
     </g>
     <g id="text_10">
      <!-- 0.4 -->
      <g transform="translate(30.820625 145.583094) scale(0.14 -0.14)">
       <use xlink:href="#DejaVuSans-30"/>
       <use xlink:href="#DejaVuSans-2e" x="63.623047"/>
       <use xlink:href="#DejaVuSans-34" x="95.410156"/>
      </g>
     </g>
    </g>
    <g id="ytick_4">
     <g id="line2d_11">
      <g>
       <use xlink:href="#m0a931b6c42" x="60.085" y="101.376282" style="stroke: #000000; stroke-width: 0.8"/>
      </g>
     </g>
     <g id="text_11">
      <!-- 0.6 -->
      <g transform="translate(30.820625 106.695188) scale(0.14 -0.14)">
       <defs>
        <path id="DejaVuSans-36" d="M 2113 2584 
Q 1688 2584 1439 2293 
Q 1191 2003 1191 1497 
Q 1191 994 1439 701 
Q 1688 409 2113 409 
Q 2538 409 2786 701 
Q 3034 994 3034 1497 
Q 3034 2003 2786 2293 
Q 2538 2584 2113 2584 
z
M 3366 4563 
L 3366 3988 
Q 3128 4100 2886 4159 
Q 2644 4219 2406 4219 
Q 1781 4219 1451 3797 
Q 1122 3375 1075 2522 
Q 1259 2794 1537 2939 
Q 1816 3084 2150 3084 
Q 2853 3084 3261 2657 
Q 3669 2231 3669 1497 
Q 3669 778 3244 343 
Q 2819 -91 2113 -91 
Q 1303 -91 875 529 
Q 447 1150 447 2328 
Q 447 3434 972 4092 
Q 1497 4750 2381 4750 
Q 2619 4750 2861 4703 
Q 3103 4656 3366 4563 
z
" transform="scale(0.015625)"/>
       </defs>
       <use xlink:href="#DejaVuSans-30"/>
       <use xlink:href="#DejaVuSans-2e" x="63.623047"/>
       <use xlink:href="#DejaVuSans-36" x="95.410156"/>
      </g>
     </g>
    </g>
    <g id="ytick_5">
     <g id="line2d_12">
      <g>
       <use xlink:href="#m0a931b6c42" x="60.085" y="62.488376" style="stroke: #000000; stroke-width: 0.8"/>
      </g>
     </g>
     <g id="text_12">
      <!-- 0.8 -->
      <g transform="translate(30.820625 67.807282) scale(0.14 -0.14)">
       <defs>
        <path id="DejaVuSans-38" d="M 2034 2216 
Q 1584 2216 1326 1975 
Q 1069 1734 1069 1313 
Q 1069 891 1326 650 
Q 1584 409 2034 409 
Q 2484 409 2743 651 
Q 3003 894 3003 1313 
Q 3003 1734 2745 1975 
Q 2488 2216 2034 2216 
z
M 1403 2484 
Q 997 2584 770 2862 
Q 544 3141 544 3541 
Q 544 4100 942 4425 
Q 1341 4750 2034 4750 
Q 2731 4750 3128 4425 
Q 3525 4100 3525 3541 
Q 3525 3141 3298 2862 
Q 3072 2584 2669 2484 
Q 3125 2378 3379 2068 
Q 3634 1759 3634 1313 
Q 3634 634 3220 271 
Q 2806 -91 2034 -91 
Q 1263 -91 848 271 
Q 434 634 434 1313 
Q 434 1759 690 2068 
Q 947 2378 1403 2484 
z
M 1172 3481 
Q 1172 3119 1398 2916 
Q 1625 2713 2034 2713 
Q 2441 2713 2670 2916 
Q 2900 3119 2900 3481 
Q 2900 3844 2670 4047 
Q 2441 4250 2034 4250 
Q 1625 4250 1398 4047 
Q 1172 3844 1172 3481 
z
" transform="scale(0.015625)"/>
       </defs>
       <use xlink:href="#DejaVuSans-30"/>
       <use xlink:href="#DejaVuSans-2e" x="63.623047"/>
       <use xlink:href="#DejaVuSans-38" x="95.410156"/>
      </g>
     </g>
    </g>
    <g id="ytick_6">
     <g id="line2d_13">
      <g>
       <use xlink:href="#m0a931b6c42" x="60.085" y="23.60047" style="stroke: #000000; stroke-width: 0.8"/>
      </g>
     </g>
     <g id="text_13">
      <!-- 1.0 -->
      <g transform="translate(30.820625 28.919377) scale(0.14 -0.14)">
       <defs>
        <path id="DejaVuSans-31" d="M 794 531 
L 1825 531 
L 1825 4091 
L 703 3866 
L 703 4441 
L 1819 4666 
L 2450 4666 
L 2450 531 
L 3481 531 
L 3481 0 
L 794 0 
L 794 531 
z
" transform="scale(0.015625)"/>
       </defs>
       <use xlink:href="#DejaVuSans-31"/>
       <use xlink:href="#DejaVuSans-2e" x="63.623047"/>
       <use xlink:href="#DejaVuSans-30" x="95.410156"/>
      </g>
     </g>
    </g>
    <g id="text_14">
     <!-- Mean excitatory activity -->
     <g transform="translate(23.909063 199.905781) rotate(-90) scale(0.14 -0.14)">
      <defs>
       <path id="DejaVuSans-4d" d="M 628 4666 
L 1569 4666 
L 2759 1491 
L 3956 4666 
L 4897 4666 
L 4897 0 
L 4281 0 
L 4281 4097 
L 3078 897 
L 2444 897 
L 1241 4097 
L 1241 0 
L 628 0 
L 628 4666 
z
" transform="scale(0.015625)"/>
       <path id="DejaVuSans-61" d="M 2194 1759 
Q 1497 1759 1228 1600 
Q 959 1441 959 1056 
Q 959 750 1161 570 
Q 1363 391 1709 391 
Q 2188 391 2477 730 
Q 2766 1069 2766 1631 
L 2766 1759 
L 2194 1759 
z
M 3341 1997 
L 3341 0 
L 2766 0 
L 2766 531 
Q 2569 213 2275 61 
Q 1981 -91 1556 -91 
Q 1019 -91 701 211 
Q 384 513 384 1019 
Q 384 1609 779 1909 
Q 1175 2209 1959 2209 
L 2766 2209 
L 2766 2266 
Q 2766 2663 2505 2880 
Q 2244 3097 1772 3097 
Q 1472 3097 1187 3025 
Q 903 2953 641 2809 
L 641 3341 
Q 956 3463 1253 3523 
Q 1550 3584 1831 3584 
Q 2591 3584 2966 3190 
Q 3341 2797 3341 1997 
z
" transform="scale(0.015625)"/>
       <path id="DejaVuSans-78" d="M 3513 3500 
L 2247 1797 
L 3578 0 
L 2900 0 
L 1881 1375 
L 863 0 
L 184 0 
L 1544 1831 
L 300 3500 
L 978 3500 
L 1906 2253 
L 2834 3500 
L 3513 3500 
z
" transform="scale(0.015625)"/>
       <path id="DejaVuSans-63" d="M 3122 3366 
L 3122 2828 
Q 2878 2963 2633 3030 
Q 2388 3097 2138 3097 
Q 1578 3097 1268 2742 
Q 959 2388 959 1747 
Q 959 1106 1268 751 
Q 1578 397 2138 397 
Q 2388 397 2633 464 
Q 2878 531 3122 666 
L 3122 134 
Q 2881 22 2623 -34 
Q 2366 -91 2075 -91 
Q 1284 -91 818 406 
Q 353 903 353 1747 
Q 353 2603 823 3093 
Q 1294 3584 2113 3584 
Q 2378 3584 2631 3529 
Q 2884 3475 3122 3366 
z
" transform="scale(0.015625)"/>
       <path id="DejaVuSans-79" d="M 2059 -325 
Q 1816 -950 1584 -1140 
Q 1353 -1331 966 -1331 
L 506 -1331 
L 506 -850 
L 844 -850 
Q 1081 -850 1212 -737 
Q 1344 -625 1503 -206 
L 1606 56 
L 191 3500 
L 800 3500 
L 1894 763 
L 2988 3500 
L 3597 3500 
L 2059 -325 
z
" transform="scale(0.015625)"/>
       <path id="DejaVuSans-76" d="M 191 3500 
L 800 3500 
L 1894 563 
L 2988 3500 
L 3597 3500 
L 2284 0 
L 1503 0 
L 191 3500 
z
" transform="scale(0.015625)"/>
      </defs>
      <use xlink:href="#DejaVuSans-4d"/>
      <use xlink:href="#DejaVuSans-65" x="86.279297"/>
      <use xlink:href="#DejaVuSans-61" x="147.802734"/>
      <use xlink:href="#DejaVuSans-6e" x="209.082031"/>
      <use xlink:href="#DejaVuSans-20" x="272.460938"/>
      <use xlink:href="#DejaVuSans-65" x="304.248047"/>
      <use xlink:href="#DejaVuSans-78" x="364.021484"/>
      <use xlink:href="#DejaVuSans-63" x="421.451172"/>
      <use xlink:href="#DejaVuSans-69" x="476.431641"/>
      <use xlink:href="#DejaVuSans-74" x="504.214844"/>
      <use xlink:href="#DejaVuSans-61" x="543.423828"/>
      <use xlink:href="#DejaVuSans-74" x="604.703125"/>
      <use xlink:href="#DejaVuSans-6f" x="643.912109"/>
      <use xlink:href="#DejaVuSans-72" x="705.09375"/>
      <use xlink:href="#DejaVuSans-79" x="746.207031"/>
      <use xlink:href="#DejaVuSans-20" x="805.386719"/>
      <use xlink:href="#DejaVuSans-61" x="837.173828"/>
      <use xlink:href="#DejaVuSans-63" x="898.453125"/>
      <use xlink:href="#DejaVuSans-74" x="953.433594"/>
      <use xlink:href="#DejaVuSans-69" x="992.642578"/>
      <use xlink:href="#DejaVuSans-76" x="1020.425781"/>
      <use xlink:href="#DejaVuSans-69" x="1079.605469"/>
      <use xlink:href="#DejaVuSans-74" x="1107.388672"/>
      <use xlink:href="#DejaVuSans-79" x="1146.597656"/>
     </g>
    </g>
   </g>
   <g id="patch_3">
    <path d="M 60.085 218.04 
L 60.085 12.96 
" style="fill: none; stroke: #000000; stroke-width: 3; stroke-linejoin: miter; stroke-linecap: square"/>
   </g>
   <g id="patch_4">
    <path d="M 60.085 218.04 
L 317.52 218.04 
" style="fill: none; stroke: #000000; stroke-width: 3; stroke-linejoin: miter; stroke-linecap: square"/>
   </g>
  </g>
  <g id="axes_2">
   <g id="patch_5">
    <path d="M 377.605 218.04 
L 635.04 218.04 
L 635.04 12.96 
L 377.605 12.96 
z
" style="fill: #ffffff"/>
   </g>
   <g id="PolyCollection_2">
    <defs>
     <path id="m8d63091d47" d="M 377.605 -245.132921 
L 377.605 -239.826241 
L 378.399552 -246.434395 
L 379.194105 -241.856149 
L 379.988657 -245.202195 
L 380.78321 -242.84141 
L 381.577762 -241.760464 
L 382.372315 -242.231836 
L 383.166867 -242.192758 
L 383.96142 -240.246041 
L 384.755972 -238.130653 
L 385.550525 -244.102405 
L 386.345077 -239.803333 
L 387.13963 -247.101423 
L 387.934182 -223.431928 
L 388.728735 -242.732949 
L 389.523287 -237.622711 
L 390.31784 -243.600019 
L 391.112392 -242.177753 
L 391.906944 -237.602718 
L 392.701497 -236.844115 
L 393.496049 -247.174305 
L 394.290602 -244.912406 
L 395.085154 -244.601058 
L 395.879707 -245.639743 
L 396.674259 -244.151632 
L 397.468812 -209.00568 
L 397.548267 -201.346736 
L 397.627722 -192.605155 
L 397.707177 -184.242918 
L 397.786633 -159.652705 
L 397.866088 -160.507783 
L 397.945543 -182.991804 
L 398.024998 -184.811675 
L 398.104454 -184.227789 
L 398.183909 -187.140357 
L 398.263364 -191.635003 
L 398.342819 -192.305945 
L 398.422275 -192.261405 
L 398.50173 -192.196509 
L 398.581185 -192.915418 
L 398.66064 -195.425077 
L 398.740096 -196.775339 
L 398.819551 -194.614379 
L 398.899006 -196.381834 
L 398.978461 -198.484097 
L 397.468812 -209.00568 
L 398.263364 -191.635003 
L 399.057917 -195.832433 
L 399.852469 -197.311328 
L 400.647022 -200.670184 
L 401.441574 -201.091778 
L 402.236127 -201.852036 
L 403.030679 -202.771278 
L 403.825231 -205.368037 
L 404.619784 -205.083558 
L 405.414336 -205.437187 
L 406.208889 -205.443834 
L 407.003441 -205.132726 
L 407.797994 -204.641335 
L 408.592546 -205.395192 
L 409.387099 -205.697383 
L 410.181651 -205.28467 
L 410.976204 -211.575829 
L 411.770756 -206.344855 
L 412.565309 -210.972549 
L 413.359861 -211.956979 
L 414.154414 -211.748505 
L 414.948966 -210.302463 
L 415.743519 -210.407941 
L 416.538071 -213.02277 
L 417.332623 -213.504552 
L 418.127176 -213.503897 
L 418.921728 -210.81743 
L 419.716281 -210.25606 
L 420.510833 -210.49722 
L 421.305386 -210.898296 
L 422.099938 -217.046099 
L 422.894491 -218.202213 
L 423.689043 -218.10972 
L 424.483596 -214.937605 
L 425.278148 -210.278043 
L 426.072701 -214.361186 
L 426.867253 -216.710149 
L 427.661806 -213.30652 
L 428.456358 -219.944855 
L 429.25091 -217.045445 
L 430.045463 -217.126719 
L 430.840015 -219.470986 
L 431.634568 -211.743669 
L 432.42912 -219.335708 
L 433.223673 -216.96077 
L 434.018225 -218.574182 
L 434.812778 -216.480596 
L 435.60733 -213.089028 
L 436.401883 -220.455986 
L 437.196435 -218.757988 
L 437.990988 -216.164019 
L 438.78554 -214.976906 
L 439.580093 -216.302611 
L 440.374645 -220.190907 
L 441.169198 -216.219142 
L 441.96375 -215.420746 
L 442.758302 -214.43387 
L 443.552855 -218.261149 
L 444.347407 -216.285556 
L 445.14196 -223.376366 
L 445.936512 -215.863635 
L 446.731065 -218.836843 
L 447.525617 -218.28535 
L 448.32017 -216.347001 
L 449.114722 -217.937828 
L 449.909275 -218.362441 
L 450.703827 -218.366487 
L 451.49838 -218.020258 
L 452.292932 -222.30531 
L 453.087485 -219.105541 
L 453.882037 -216.065915 
L 454.67659 -216.299067 
L 455.471142 -218.458998 
L 456.265694 -216.828846 
L 457.060247 -214.18536 
L 457.854799 -220.427241 
L 458.649352 -217.254527 
L 459.443904 -219.191747 
L 460.238457 -219.265829 
L 461.033009 -216.812102 
L 461.827562 -216.322762 
L 462.622114 -219.873712 
L 463.416667 -213.324823 
L 464.211219 -217.312843 
L 465.005772 -222.117731 
L 465.800324 -213.883285 
L 466.594877 -219.279208 
L 467.389429 -216.071047 
L 468.183981 -216.695843 
L 468.978534 -217.11857 
L 469.773086 -221.522872 
L 470.567639 -217.913855 
L 471.362191 -220.909183 
L 472.156744 -205.20871 
L 472.951296 -218.727059 
L 473.745849 -218.864917 
L 474.540401 -214.989475 
L 475.334954 -216.681599 
L 476.129506 -203.482279 
L 476.924059 -217.531824 
L 477.718611 -218.806886 
L 478.513164 -216.329766 
L 479.307716 -209.332112 
L 480.102269 -222.04524 
L 480.896821 -220.221863 
L 481.691373 -218.969965 
L 482.485926 -216.909883 
L 483.280478 -216.558534 
L 484.075031 -221.316417 
L 484.869583 -214.140086 
L 485.664136 -218.290121 
L 486.458688 -213.732476 
L 487.253241 -219.355547 
L 488.047793 -216.784228 
L 488.842346 -219.56664 
L 489.636898 -220.513726 
L 490.431451 -221.855854 
L 491.226003 -219.023829 
L 492.020556 -216.297088 
L 492.815108 -215.401985 
L 493.60966 -214.450846 
L 494.404213 -218.578731 
L 495.198765 -220.274654 
L 495.993318 -222.278852 
L 496.78787 -221.560796 
L 497.582423 -220.777314 
L 498.376975 -216.823505 
L 499.171528 -224.407477 
L 499.96608 -213.887804 
L 500.760633 -215.598877 
L 501.555185 -212.4467 
L 502.349738 -215.489948 
L 503.14429 -214.685811 
L 503.938843 -220.882956 
L 504.733395 -219.299878 
L 505.527948 -218.655072 
L 506.3225 -215.208386 
L 507.117052 -219.030893 
L 507.911605 -214.749586 
L 508.706157 -219.778047 
L 509.50071 -220.280755 
L 510.295262 -218.059246 
L 511.089815 -214.332395 
L 511.884367 -220.000568 
L 512.67892 -220.651575 
L 513.473472 -214.628673 
L 514.268025 -217.501435 
L 515.062577 -219.458575 
L 515.85713 -222.940396 
L 516.651682 -224.84643 
L 517.446235 -219.608433 
L 518.240787 -219.348046 
L 519.03534 -225.225793 
L 519.829892 -220.397315 
L 520.624444 -220.320025 
L 521.418997 -223.059465 
L 522.213549 -218.446017 
L 523.008102 -217.668912 
L 523.802654 -219.248667 
L 524.597207 -223.648541 
L 525.391759 -199.066341 
L 526.186312 -218.891906 
L 526.980864 -222.58237 
L 527.775417 -216.821923 
L 528.569969 -214.451038 
L 529.364522 -215.897208 
L 530.159074 -214.766209 
L 530.953627 -215.028183 
L 531.748179 -220.502784 
L 532.542731 -218.432205 
L 533.337284 -218.799458 
L 534.131836 -217.914624 
L 534.926389 -221.983002 
L 535.720941 -221.050441 
L 536.515494 -225.080799 
L 537.310046 -216.941665 
L 538.104599 -223.970419 
L 538.899151 -213.505084 
L 539.693704 -219.607921 
L 540.488256 -219.593539 
L 541.282809 -218.032039 
L 542.077361 -220.673047 
L 542.871914 -218.431506 
L 543.666466 -219.917521 
L 544.461019 -217.101051 
L 545.255571 -219.317114 
L 546.050123 -212.811123 
L 546.844676 -223.590746 
L 547.639228 -219.976329 
L 548.433781 -217.845813 
L 549.228333 -220.412768 
L 550.022886 -218.351409 
L 550.817438 -217.481375 
L 551.611991 -225.004478 
L 552.406543 -218.723102 
L 553.201096 -218.232262 
L 553.995648 -216.731032 
L 554.790201 -217.156516 
L 555.584753 -219.078957 
L 556.379306 -216.331118 
L 557.173858 -223.010412 
L 557.96841 -221.149403 
L 558.762963 -224.022269 
L 559.557515 -219.091136 
L 560.352068 -215.63804 
L 561.14662 -219.022357 
L 561.941173 -216.976287 
L 562.735725 -199.576782 
L 563.530278 -220.784106 
L 564.32483 -221.074251 
L 565.119383 -223.054709 
L 565.913935 -215.856942 
L 566.708488 -225.626735 
L 567.50304 -221.621749 
L 568.297593 -221.652847 
L 569.092145 -219.513214 
L 569.886698 -223.762877 
L 570.68125 -223.122123 
L 571.475802 -217.599271 
L 572.270355 -217.646455 
L 573.064907 -217.713421 
L 573.85946 -218.118696 
L 574.654012 -219.570165 
L 575.448565 -219.355314 
L 576.243117 -216.467845 
L 577.03767 -212.97603 
L 577.832222 -215.920299 
L 578.626775 -214.857092 
L 579.421327 -217.355856 
L 580.21588 -219.598547 
L 581.010432 -219.743255 
L 581.804985 -215.926399 
L 582.599537 -221.127921 
L 583.39409 -219.838545 
L 584.188642 -214.629153 
L 584.983194 -222.816929 
L 585.777747 -222.742006 
L 586.572299 -222.77151 
L 587.366852 -218.100722 
L 588.161404 -226.146723 
L 588.955957 -218.966013 
L 589.750509 -219.216768 
L 590.545062 -220.399944 
L 591.339614 -217.507918 
L 592.134167 -215.733914 
L 592.928719 -221.405556 
L 593.723272 -217.398929 
L 594.517824 -229.725883 
L 595.312377 -216.780203 
L 596.106929 -217.853433 
L 596.901481 -223.684494 
L 597.696034 -219.561315 
L 598.490586 -220.616195 
L 599.285139 -207.165855 
L 600.079691 -218.324862 
L 600.874244 -220.80801 
L 601.668796 -221.210164 
L 602.463349 -199.103346 
L 603.257901 -221.184232 
L 604.052454 -214.327567 
L 604.847006 -218.97883 
L 605.641559 -221.42357 
L 606.436111 -220.329614 
L 607.230664 -223.520687 
L 608.025216 -221.622145 
L 608.819769 -221.81931 
L 609.614321 -217.742192 
L 610.408873 -217.886681 
L 611.203426 -218.762693 
L 611.997978 -218.048531 
L 612.792531 -223.932662 
L 613.587083 -205.949941 
L 614.381636 -217.685384 
L 615.176188 -217.561609 
L 615.970741 -220.67236 
L 616.765293 -222.996928 
L 617.559846 -221.302563 
L 618.354398 -223.33765 
L 619.148951 -222.632662 
L 619.943503 -218.948165 
L 620.738056 -225.674233 
L 621.532608 -219.436921 
L 622.32716 -221.54009 
L 623.121713 -221.596103 
L 623.916265 -223.590315 
L 624.710818 -221.728574 
L 625.50537 -220.833523 
L 626.299923 -218.503818 
L 627.094475 -223.081514 
L 627.889028 -218.810297 
L 628.68358 -219.865245 
L 629.478133 -221.953536 
L 630.272685 -217.084482 
L 631.067238 -223.63315 
L 631.86179 -221.586678 
L 632.656343 -214.383835 
L 633.450895 -223.502322 
L 634.245448 -217.963056 
L 635.04 -215.710576 
L 635.04 -226.239221 
L 635.04 -226.239221 
L 634.245448 -224.1436 
L 633.450895 -229.030699 
L 632.656343 -222.039559 
L 631.86179 -228.764831 
L 631.067238 -231.278799 
L 630.272685 -223.946893 
L 629.478133 -225.154284 
L 628.68358 -229.379784 
L 627.889028 -224.106385 
L 627.094475 -229.654814 
L 626.299923 -223.016644 
L 625.50537 -226.580189 
L 624.710818 -229.518857 
L 623.916265 -231.619694 
L 623.121713 -229.578817 
L 622.32716 -228.730157 
L 621.532608 -224.851145 
L 620.738056 -232.153263 
L 619.943503 -226.079656 
L 619.148951 -232.387656 
L 618.354398 -230.443079 
L 617.559846 -227.424392 
L 616.765293 -229.205508 
L 615.970741 -225.231047 
L 615.176188 -223.495642 
L 614.381636 -224.817748 
L 613.587083 -223.797348 
L 612.792531 -229.876242 
L 611.997978 -227.266959 
L 611.203426 -227.769827 
L 610.408873 -222.260897 
L 609.614321 -223.424352 
L 608.819769 -226.613651 
L 608.025216 -231.731082 
L 607.230664 -228.995941 
L 606.436111 -224.554955 
L 605.641559 -228.682814 
L 604.847006 -226.839295 
L 604.052454 -223.509685 
L 603.257901 -228.685012 
L 602.463349 -225.151594 
L 601.668796 -230.756436 
L 600.874244 -225.915397 
L 600.079691 -226.251487 
L 599.285139 -224.243929 
L 598.490586 -227.166697 
L 597.696034 -226.760986 
L 596.901481 -233.011618 
L 596.106929 -226.098057 
L 595.312377 -221.733017 
L 594.517824 -233.020087 
L 593.723272 -223.438097 
L 592.928719 -229.162483 
L 592.134167 -225.357151 
L 591.339614 -226.47307 
L 590.545062 -224.862861 
L 589.750509 -226.277122 
L 588.955957 -226.832794 
L 588.161404 -231.831612 
L 587.366852 -223.987612 
L 586.572299 -228.542952 
L 585.777747 -228.450178 
L 584.983194 -226.387452 
L 584.188642 -221.983744 
L 583.39409 -225.707313 
L 582.599537 -225.897874 
L 581.804985 -223.26326 
L 581.010432 -224.434442 
L 580.21588 -225.880066 
L 579.421327 -224.721364 
L 578.626775 -222.297226 
L 577.832222 -221.394434 
L 577.03767 -224.490448 
L 576.243117 -224.095847 
L 575.448565 -224.929678 
L 574.654012 -226.024935 
L 573.85946 -226.45728 
L 573.064907 -226.892852 
L 572.270355 -223.53094 
L 571.475802 -224.421055 
L 570.68125 -227.909607 
L 569.886698 -231.080428 
L 569.092145 -226.910449 
L 568.297593 -229.490489 
L 567.50304 -227.406134 
L 566.708488 -232.995699 
L 565.913935 -222.094932 
L 565.119383 -230.713182 
L 564.32483 -228.263771 
L 563.530278 -230.481996 
L 562.735725 -224.995128 
L 561.941173 -224.455521 
L 561.14662 -226.576798 
L 560.352068 -222.631473 
L 559.557515 -227.14001 
L 558.762963 -229.61576 
L 557.96841 -225.943036 
L 557.173858 -227.808734 
L 556.379306 -223.379352 
L 555.584753 -226.87595 
L 554.790201 -223.625821 
L 553.995648 -225.331699 
L 553.201096 -225.888943 
L 552.406543 -227.179106 
L 551.611991 -230.855132 
L 550.817438 -226.960076 
L 550.022886 -226.900315 
L 549.228333 -227.195838 
L 548.433781 -223.499642 
L 547.639228 -224.779346 
L 546.844676 -229.041091 
L 546.050123 -220.234861 
L 545.255571 -227.839387 
L 544.461019 -222.071539 
L 543.666466 -225.519739 
L 542.871914 -223.674082 
L 542.077361 -227.039135 
L 541.282809 -227.600924 
L 540.488256 -225.891169 
L 539.693704 -228.139343 
L 538.899151 -220.524064 
L 538.104599 -231.291484 
L 537.310046 -225.374408 
L 536.515494 -230.848677 
L 535.720941 -227.794034 
L 534.926389 -226.855857 
L 534.131836 -224.01102 
L 533.337284 -226.080429 
L 532.542731 -224.615254 
L 531.748179 -226.947853 
L 530.953627 -221.520302 
L 530.159074 -221.572497 
L 529.364522 -223.610868 
L 528.569969 -219.536278 
L 527.775417 -223.485545 
L 526.980864 -230.427993 
L 526.186312 -225.405069 
L 525.391759 -215.330573 
L 524.597207 -227.356504 
L 523.802654 -226.425372 
L 523.008102 -224.972386 
L 522.213549 -224.478219 
L 521.418997 -230.386555 
L 520.624444 -227.976382 
L 519.829892 -226.322654 
L 519.03534 -232.34129 
L 518.240787 -223.882277 
L 517.446235 -226.200705 
L 516.651682 -233.031534 
L 515.85713 -227.46783 
L 515.062577 -225.860397 
L 514.268025 -221.302671 
L 513.473472 -221.167462 
L 512.67892 -226.844515 
L 511.884367 -226.408272 
L 511.089815 -222.407371 
L 510.295262 -227.220756 
L 509.50071 -228.686981 
L 508.706157 -224.093897 
L 507.911605 -220.94566 
L 507.117052 -225.424488 
L 506.3225 -221.050771 
L 505.527948 -225.063037 
L 504.733395 -224.687022 
L 503.938843 -227.941995 
L 503.14429 -220.63381 
L 502.349738 -220.070481 
L 501.555185 -220.781562 
L 500.760633 -222.549763 
L 499.96608 -220.416194 
L 499.171528 -229.953849 
L 498.376975 -223.177056 
L 497.582423 -227.60514 
L 496.78787 -227.198715 
L 495.993318 -226.566193 
L 495.198765 -225.926904 
L 494.404213 -223.578805 
L 493.60966 -222.070103 
L 492.815108 -221.585513 
L 492.020556 -224.257768 
L 491.226003 -226.03208 
L 490.431451 -226.870795 
L 489.636898 -225.802036 
L 488.842346 -225.18817 
L 488.047793 -223.920021 
L 487.253241 -225.490654 
L 486.458688 -221.517229 
L 485.664136 -224.885162 
L 484.869583 -219.413146 
L 484.075031 -226.931139 
L 483.280478 -223.714481 
L 482.485926 -222.544852 
L 481.691373 -225.392787 
L 480.896821 -228.442024 
L 480.102269 -227.221451 
L 479.307716 -217.402836 
L 478.513164 -223.75802 
L 477.718611 -225.499775 
L 476.924059 -224.687077 
L 476.129506 -222.320149 
L 475.334954 -224.444613 
L 474.540401 -222.553983 
L 473.745849 -226.279606 
L 472.951296 -223.04222 
L 472.156744 -219.679479 
L 471.362191 -228.41871 
L 470.567639 -223.358406 
L 469.773086 -224.972684 
L 468.978534 -222.058538 
L 468.183981 -224.786742 
L 467.389429 -221.948163 
L 466.594877 -225.405126 
L 465.800324 -221.104348 
L 465.005772 -228.052339 
L 464.211219 -223.422818 
L 463.416667 -224.09556 
L 462.622114 -226.258657 
L 461.827562 -223.123263 
L 461.033009 -221.050761 
L 460.238457 -226.564379 
L 459.443904 -224.649426 
L 458.649352 -222.293442 
L 457.854799 -225.996609 
L 457.060247 -221.179304 
L 456.265694 -224.105569 
L 455.471142 -225.00751 
L 454.67659 -223.447226 
L 453.882037 -222.305904 
L 453.087485 -225.714039 
L 452.292932 -227.805185 
L 451.49838 -222.865779 
L 450.703827 -222.999328 
L 449.909275 -225.756181 
L 449.114722 -222.927568 
L 448.32017 -223.513433 
L 447.525617 -223.271752 
L 446.731065 -226.491052 
L 445.936512 -223.567875 
L 445.14196 -230.968934 
L 444.347407 -221.50131 
L 443.552855 -224.798212 
L 442.758302 -221.304553 
L 441.96375 -218.427974 
L 441.169198 -223.743519 
L 440.374645 -224.801048 
L 439.580093 -221.615758 
L 438.78554 -222.096273 
L 437.990988 -222.592292 
L 437.196435 -226.742808 
L 436.401883 -225.414051 
L 435.60733 -220.614303 
L 434.812778 -223.023241 
L 434.018225 -223.958874 
L 433.223673 -222.454411 
L 432.42912 -224.376374 
L 431.634568 -216.573652 
L 430.840015 -225.539653 
L 430.045463 -221.363691 
L 429.25091 -220.482907 
L 428.456358 -223.916898 
L 427.661806 -218.347694 
L 426.867253 -223.840499 
L 426.072701 -218.862708 
L 425.278148 -215.179783 
L 424.483596 -223.147697 
L 423.689043 -222.282443 
L 422.894491 -224.003477 
L 422.099938 -221.963116 
L 421.305386 -216.994806 
L 420.510833 -217.739072 
L 419.716281 -217.850303 
L 418.921728 -216.898726 
L 418.127176 -217.433379 
L 417.332623 -220.248206 
L 416.538071 -218.395838 
L 415.743519 -216.321984 
L 414.948966 -215.494529 
L 414.154414 -218.743591 
L 413.359861 -217.641931 
L 412.565309 -217.743636 
L 411.770756 -211.889237 
L 410.976204 -216.280589 
L 410.181651 -213.947931 
L 409.387099 -211.97701 
L 408.592546 -209.629423 
L 407.797994 -212.130043 
L 407.003441 -212.614433 
L 406.208889 -211.636897 
L 405.414336 -209.431203 
L 404.619784 -210.326989 
L 403.825231 -209.852414 
L 403.030679 -208.458334 
L 402.236127 -207.115258 
L 401.441574 -206.360637 
L 400.647022 -206.78395 
L 399.852469 -202.906278 
L 399.057917 -200.488669 
L 398.263364 -196.27275 
L 397.468812 -227.887682 
L 398.978461 -202.25346 
L 398.899006 -201.182401 
L 398.819551 -197.478496 
L 398.740096 -200.231191 
L 398.66064 -199.833752 
L 398.581185 -197.972048 
L 398.50173 -196.914568 
L 398.422275 -195.192168 
L 398.342819 -195.648505 
L 398.263364 -196.27275 
L 398.183909 -193.321862 
L 398.104454 -188.624712 
L 398.024998 -190.280889 
L 397.945543 -188.910422 
L 397.866088 -178.817592 
L 397.786633 -178.023421 
L 397.707177 -192.395383 
L 397.627722 -201.162587 
L 397.548267 -206.992986 
L 397.468812 -227.887682 
L 396.674259 -247.758401 
L 395.879707 -248.528692 
L 395.085154 -248.776949 
L 394.290602 -251.14714 
L 393.496049 -252.04555 
L 392.701497 -240.626387 
L 391.906944 -241.581913 
L 391.112392 -247.582568 
L 390.31784 -247.626534 
L 389.523287 -241.414144 
L 388.728735 -246.636795 
L 387.934182 -245.378996 
L 387.13963 -252.40251 
L 386.345077 -244.234829 
L 385.550525 -249.244664 
L 384.755972 -242.824741 
L 383.96142 -247.97848 
L 383.166867 -246.708101 
L 382.372315 -246.904835 
L 381.577762 -248.517092 
L 380.78321 -248.664171 
L 379.988657 -249.160287 
L 379.194105 -247.039762 
L 378.399552 -250.969328 
L 377.605 -245.132921 
z
" style="stroke: #8180ff; stroke-opacity: 0.2"/>
    </defs>
    <g clip-path="url(#p84d6e64ebd)">
     <use xlink:href="#m8d63091d47" x="0" y="270" style="fill: #8180ff; fill-opacity: 0.2; stroke: #8180ff; stroke-opacity: 0.2"/>
    </g>
   </g>
   <g id="line2d_14">
    <path d="M 377.605 27.520419 
L 378.399552 21.298139 
L 379.194105 25.552045 
L 379.988657 22.818759 
L 380.78321 24.24721 
L 382.372315 25.431664 
L 383.166867 25.549571 
L 383.96142 25.887739 
L 384.755972 29.522303 
L 385.550525 23.326465 
L 386.345077 27.980919 
L 387.13963 20.248033 
L 387.934182 35.594538 
L 388.728735 25.315128 
L 389.523287 30.481573 
L 390.31784 24.386724 
L 391.112392 25.119839 
L 391.906944 30.407684 
L 392.701497 31.264749 
L 393.496049 20.390073 
L 395.085154 23.310996 
L 395.879707 22.915783 
L 396.674259 24.044983 
L 397.468812 51.553319 
L 397.786633 101.161937 
L 397.866088 100.337313 
L 398.024998 82.453718 
L 398.104454 83.57375 
L 398.342819 76.022775 
L 398.422275 76.273214 
L 398.581185 74.556267 
L 398.740096 71.496735 
L 398.819551 73.953563 
L 398.978461 69.631221 
L 397.468812 51.553319 
L 398.263364 76.046123 
L 399.057917 71.839449 
L 399.852469 69.891197 
L 400.647022 66.272933 
L 401.441574 66.273793 
L 402.236127 65.516353 
L 403.030679 64.385194 
L 403.825231 62.389775 
L 404.619784 62.294726 
L 405.414336 62.565805 
L 406.208889 61.459635 
L 407.003441 61.12642 
L 407.797994 61.614311 
L 408.592546 62.487692 
L 409.387099 61.162803 
L 410.181651 60.3837 
L 410.976204 56.071791 
L 411.770756 60.882954 
L 412.565309 55.641907 
L 414.154414 54.753952 
L 414.948966 57.101504 
L 415.743519 56.635038 
L 416.538071 54.290696 
L 417.332623 53.123621 
L 418.921728 56.141922 
L 419.716281 55.946818 
L 420.510833 55.881854 
L 421.305386 56.053449 
L 422.099938 50.495392 
L 422.894491 48.897155 
L 423.689043 49.803919 
L 424.483596 50.957349 
L 425.278148 57.271087 
L 426.867253 49.724676 
L 427.661806 54.172893 
L 428.456358 48.069124 
L 429.25091 51.235824 
L 430.045463 50.754795 
L 430.840015 47.49468 
L 431.634568 55.84134 
L 432.42912 48.143959 
L 433.223673 50.292409 
L 434.018225 48.733472 
L 434.812778 50.248081 
L 435.60733 53.148334 
L 436.401883 47.064982 
L 437.196435 47.249602 
L 437.990988 50.621845 
L 438.78554 51.46341 
L 439.580093 51.040816 
L 440.374645 47.504023 
L 441.169198 50.018669 
L 441.96375 53.07564 
L 442.758302 52.130788 
L 443.552855 48.47032 
L 444.347407 51.106567 
L 445.14196 42.82735 
L 445.936512 50.284245 
L 446.731065 47.336053 
L 447.525617 49.221449 
L 448.32017 50.069783 
L 449.114722 49.567302 
L 449.909275 47.940689 
L 450.703827 49.317093 
L 451.49838 49.556981 
L 452.292932 44.944752 
L 453.087485 47.59021 
L 453.882037 50.81409 
L 454.67659 50.126853 
L 455.471142 48.266746 
L 456.265694 49.532792 
L 457.060247 52.317668 
L 457.854799 46.788075 
L 458.649352 50.226016 
L 459.443904 48.079413 
L 460.238457 47.084896 
L 461.033009 51.068568 
L 461.827562 50.276987 
L 462.622114 46.933815 
L 463.416667 51.289808 
L 464.211219 49.632169 
L 465.005772 44.914965 
L 465.800324 52.506184 
L 466.594877 47.657833 
L 467.389429 50.990395 
L 468.183981 49.258707 
L 468.978534 50.411446 
L 469.773086 46.752222 
L 470.567639 49.36387 
L 471.362191 45.336053 
L 472.156744 57.555905 
L 472.951296 49.115361 
L 473.745849 47.427738 
L 474.540401 51.228271 
L 475.334954 49.436894 
L 476.129506 57.098786 
L 476.924059 48.89055 
L 477.718611 47.846669 
L 478.513164 49.956107 
L 479.307716 56.632526 
L 480.102269 45.366654 
L 480.896821 45.668056 
L 482.485926 50.272632 
L 483.280478 49.863493 
L 484.075031 45.876222 
L 484.869583 53.223384 
L 485.664136 48.412359 
L 486.458688 52.375148 
L 487.253241 47.576899 
L 488.047793 49.647876 
L 488.842346 47.622595 
L 489.636898 46.842119 
L 490.431451 45.636676 
L 491.226003 47.472046 
L 492.020556 49.722572 
L 492.815108 51.506251 
L 493.60966 51.739526 
L 494.404213 48.921232 
L 495.198765 46.899221 
L 495.993318 45.577478 
L 496.78787 45.620244 
L 497.582423 45.808773 
L 498.376975 49.99972 
L 499.171528 42.819337 
L 499.96608 52.848001 
L 500.760633 50.92568 
L 501.555185 53.385869 
L 502.349738 52.219785 
L 503.14429 52.34019 
L 503.938843 45.587524 
L 504.733395 48.00655 
L 505.527948 48.140945 
L 506.3225 51.870421 
L 507.117052 47.77231 
L 507.911605 52.152377 
L 508.706157 48.064028 
L 509.50071 45.516132 
L 510.295262 47.359999 
L 511.089815 51.630117 
L 511.884367 46.79558 
L 512.67892 46.251955 
L 513.473472 52.101933 
L 514.268025 50.597947 
L 515.062577 47.340514 
L 515.85713 44.795887 
L 516.651682 41.061018 
L 517.446235 47.095431 
L 518.240787 48.384838 
L 519.03534 41.216458 
L 519.829892 46.640015 
L 520.624444 45.851796 
L 521.418997 43.27699 
L 522.213549 48.537882 
L 523.008102 48.679351 
L 523.802654 47.162981 
L 524.597207 44.497478 
L 525.391759 62.801543 
L 526.186312 47.851512 
L 526.980864 43.494818 
L 527.775417 49.846266 
L 528.569969 53.006342 
L 529.364522 50.245962 
L 530.159074 51.830647 
L 530.953627 51.725758 
L 531.748179 46.274681 
L 532.542731 48.47627 
L 533.337284 47.560057 
L 534.131836 49.037178 
L 534.926389 45.580571 
L 535.720941 45.577762 
L 536.515494 42.035262 
L 537.310046 48.841964 
L 538.104599 42.369048 
L 538.899151 52.985426 
L 539.693704 46.126368 
L 540.488256 47.257646 
L 541.282809 47.183518 
L 542.077361 46.143909 
L 542.871914 48.947206 
L 543.666466 47.28137 
L 544.461019 50.413705 
L 545.255571 46.421749 
L 546.050123 53.477008 
L 546.844676 43.684082 
L 547.639228 47.622162 
L 548.433781 49.327272 
L 549.228333 46.195697 
L 550.022886 47.374138 
L 550.817438 47.779275 
L 551.611991 42.070195 
L 552.406543 47.048896 
L 554.790201 49.608832 
L 555.584753 47.022546 
L 556.379306 50.144765 
L 557.173858 44.590427 
L 557.96841 46.45378 
L 558.762963 43.180986 
L 560.352068 50.865244 
L 561.14662 47.200423 
L 561.941173 49.284096 
L 562.735725 57.714045 
L 563.530278 44.366949 
L 564.32483 45.330989 
L 565.119383 43.116054 
L 565.913935 51.024063 
L 566.708488 40.688783 
L 567.50304 45.486058 
L 568.297593 44.428332 
L 569.092145 46.788169 
L 569.886698 42.578348 
L 570.68125 44.484135 
L 571.475802 48.989837 
L 572.270355 49.411302 
L 573.064907 47.696864 
L 573.85946 47.712012 
L 574.654012 47.20245 
L 575.448565 47.857504 
L 576.243117 49.718154 
L 577.03767 51.266761 
L 578.626775 51.422841 
L 579.421327 48.96139 
L 580.21588 47.260693 
L 581.010432 47.911151 
L 581.804985 50.405171 
L 582.599537 46.487103 
L 583.39409 47.227071 
L 584.188642 51.693552 
L 584.983194 45.39781 
L 585.777747 44.403908 
L 586.572299 44.342769 
L 587.366852 48.955833 
L 588.161404 41.010832 
L 588.955957 47.100597 
L 590.545062 47.368598 
L 591.339614 48.009506 
L 592.134167 49.454468 
L 592.928719 44.715981 
L 593.723272 49.581487 
L 594.517824 38.627015 
L 595.312377 50.74339 
L 596.106929 48.024255 
L 596.901481 41.651944 
L 597.696034 46.83885 
L 598.490586 46.108554 
L 599.285139 54.295108 
L 600.079691 47.711825 
L 600.874244 46.638297 
L 601.668796 44.0167 
L 602.463349 57.87253 
L 603.257901 45.065378 
L 604.052454 51.081374 
L 604.847006 47.090938 
L 605.641559 44.946808 
L 606.436111 47.557716 
L 607.230664 43.741686 
L 608.025216 43.323386 
L 608.819769 45.78352 
L 609.614321 49.416728 
L 610.408873 49.926211 
L 611.203426 46.73374 
L 611.997978 47.342255 
L 612.792531 43.095548 
L 613.587083 55.126356 
L 614.381636 48.748434 
L 615.176188 49.471374 
L 615.970741 47.048296 
L 616.765293 43.898782 
L 617.559846 45.636523 
L 618.354398 43.109635 
L 619.148951 42.489841 
L 619.943503 47.48609 
L 620.738056 41.086252 
L 621.532608 47.855967 
L 622.32716 44.864877 
L 623.121713 44.41254 
L 623.916265 42.394995 
L 625.50537 46.293144 
L 626.299923 49.239769 
L 627.094475 43.631836 
L 627.889028 48.541659 
L 628.68358 45.377486 
L 629.478133 46.44609 
L 630.272685 49.484313 
L 631.067238 42.544026 
L 631.86179 44.824245 
L 632.656343 51.788303 
L 633.450895 43.73349 
L 634.245448 48.946672 
L 635.04 49.025102 
L 635.04 49.025102 
" clip-path="url(#p84d6e64ebd)" style="fill: none; stroke: #8180ff; stroke-width: 1.5; stroke-linecap: square"/>
   </g>
   <g id="matplotlib.axis_3">
    <g id="xtick_7">
     <g id="line2d_15">
      <g>
       <use xlink:href="#m2f9d2b1fe2" x="397.468812" y="218.04" style="stroke: #000000; stroke-width: 0.8"/>
      </g>
     </g>
     <g id="text_15">
      <!-- 3000 -->
      <g transform="translate(379.653812 235.677813) scale(0.14 -0.14)">
       <use xlink:href="#DejaVuSans-33"/>
       <use xlink:href="#DejaVuSans-30" x="63.623047"/>
       <use xlink:href="#DejaVuSans-30" x="127.246094"/>
       <use xlink:href="#DejaVuSans-30" x="190.869141"/>
      </g>
     </g>
    </g>
    <g id="xtick_8">
     <g id="line2d_16">
      <g>
       <use xlink:href="#m2f9d2b1fe2" x="437.196435" y="218.04" style="stroke: #000000; stroke-width: 0.8"/>
      </g>
     </g>
     <g id="text_16">
      <!-- 3500 -->
      <g transform="translate(419.381435 235.677813) scale(0.14 -0.14)">
       <use xlink:href="#DejaVuSans-33"/>
       <use xlink:href="#DejaVuSans-35" x="63.623047"/>
       <use xlink:href="#DejaVuSans-30" x="127.246094"/>
       <use xlink:href="#DejaVuSans-30" x="190.869141"/>
      </g>
     </g>
    </g>
    <g id="xtick_9">
     <g id="line2d_17">
      <g>
       <use xlink:href="#m2f9d2b1fe2" x="476.924059" y="218.04" style="stroke: #000000; stroke-width: 0.8"/>
      </g>
     </g>
     <g id="text_17">
      <!-- 4000 -->
      <g transform="translate(459.109059 235.677813) scale(0.14 -0.14)">
       <use xlink:href="#DejaVuSans-34"/>
       <use xlink:href="#DejaVuSans-30" x="63.623047"/>
       <use xlink:href="#DejaVuSans-30" x="127.246094"/>
       <use xlink:href="#DejaVuSans-30" x="190.869141"/>
      </g>
     </g>
    </g>
    <g id="xtick_10">
     <g id="line2d_18">
      <g>
       <use xlink:href="#m2f9d2b1fe2" x="516.651682" y="218.04" style="stroke: #000000; stroke-width: 0.8"/>
      </g>
     </g>
     <g id="text_18">
      <!-- 4500 -->
      <g transform="translate(498.836682 235.677813) scale(0.14 -0.14)">
       <use xlink:href="#DejaVuSans-34"/>
       <use xlink:href="#DejaVuSans-35" x="63.623047"/>
       <use xlink:href="#DejaVuSans-30" x="127.246094"/>
       <use xlink:href="#DejaVuSans-30" x="190.869141"/>
      </g>
     </g>
    </g>
    <g id="xtick_11">
     <g id="line2d_19">
      <g>
       <use xlink:href="#m2f9d2b1fe2" x="556.379306" y="218.04" style="stroke: #000000; stroke-width: 0.8"/>
      </g>
     </g>
     <g id="text_19">
      <!-- 5000 -->
      <g transform="translate(538.564306 235.677813) scale(0.14 -0.14)">
       <use xlink:href="#DejaVuSans-35"/>
       <use xlink:href="#DejaVuSans-30" x="63.623047"/>
       <use xlink:href="#DejaVuSans-30" x="127.246094"/>
       <use xlink:href="#DejaVuSans-30" x="190.869141"/>
      </g>
     </g>
    </g>
    <g id="xtick_12">
     <g id="line2d_20">
      <g>
       <use xlink:href="#m2f9d2b1fe2" x="596.106929" y="218.04" style="stroke: #000000; stroke-width: 0.8"/>
      </g>
     </g>
     <g id="text_20">
      <!-- 5500 -->
      <g transform="translate(578.291929 235.677813) scale(0.14 -0.14)">
       <use xlink:href="#DejaVuSans-35"/>
       <use xlink:href="#DejaVuSans-35" x="63.623047"/>
       <use xlink:href="#DejaVuSans-30" x="127.246094"/>
       <use xlink:href="#DejaVuSans-30" x="190.869141"/>
      </g>
     </g>
    </g>
    <g id="text_21">
     <!-- Rendition number -->
     <g transform="translate(443.688906 253.227188) scale(0.14 -0.14)">
      <use xlink:href="#DejaVuSans-52"/>
      <use xlink:href="#DejaVuSans-65" x="64.982422"/>
      <use xlink:href="#DejaVuSans-6e" x="126.505859"/>
      <use xlink:href="#DejaVuSans-64" x="189.884766"/>
      <use xlink:href="#DejaVuSans-69" x="253.361328"/>
      <use xlink:href="#DejaVuSans-74" x="281.144531"/>
      <use xlink:href="#DejaVuSans-69" x="320.353516"/>
      <use xlink:href="#DejaVuSans-6f" x="348.136719"/>
      <use xlink:href="#DejaVuSans-6e" x="409.318359"/>
      <use xlink:href="#DejaVuSans-20" x="472.697266"/>
      <use xlink:href="#DejaVuSans-6e" x="504.484375"/>
      <use xlink:href="#DejaVuSans-75" x="567.863281"/>
      <use xlink:href="#DejaVuSans-6d" x="631.242188"/>
      <use xlink:href="#DejaVuSans-62" x="728.654297"/>
      <use xlink:href="#DejaVuSans-65" x="792.130859"/>
      <use xlink:href="#DejaVuSans-72" x="853.654297"/>
     </g>
    </g>
   </g>
   <g id="matplotlib.axis_4">
    <g id="ytick_7">
     <g id="line2d_21">
      <g>
       <use xlink:href="#m0a931b6c42" x="377.605" y="218.04" style="stroke: #000000; stroke-width: 0.8"/>
      </g>
     </g>
     <g id="text_22">
      <!-- 0.0 -->
      <g transform="translate(348.340625 223.358906) scale(0.14 -0.14)">
       <use xlink:href="#DejaVuSans-30"/>
       <use xlink:href="#DejaVuSans-2e" x="63.623047"/>
       <use xlink:href="#DejaVuSans-30" x="95.410156"/>
      </g>
     </g>
    </g>
    <g id="ytick_8">
     <g id="line2d_22">
      <g>
       <use xlink:href="#m0a931b6c42" x="377.605" y="179.517853" style="stroke: #000000; stroke-width: 0.8"/>
      </g>
     </g>
     <g id="text_23">
      <!-- 0.2 -->
      <g transform="translate(348.340625 184.836759) scale(0.14 -0.14)">
       <use xlink:href="#DejaVuSans-30"/>
       <use xlink:href="#DejaVuSans-2e" x="63.623047"/>
       <use xlink:href="#DejaVuSans-32" x="95.410156"/>
      </g>
     </g>
    </g>
    <g id="ytick_9">
     <g id="line2d_23">
      <g>
       <use xlink:href="#m0a931b6c42" x="377.605" y="140.995705" style="stroke: #000000; stroke-width: 0.8"/>
      </g>
     </g>
     <g id="text_24">
      <!-- 0.4 -->
      <g transform="translate(348.340625 146.314611) scale(0.14 -0.14)">
       <use xlink:href="#DejaVuSans-30"/>
       <use xlink:href="#DejaVuSans-2e" x="63.623047"/>
       <use xlink:href="#DejaVuSans-34" x="95.410156"/>
      </g>
     </g>
    </g>
    <g id="ytick_10">
     <g id="line2d_24">
      <g>
       <use xlink:href="#m0a931b6c42" x="377.605" y="102.473558" style="stroke: #000000; stroke-width: 0.8"/>
      </g>
     </g>
     <g id="text_25">
      <!-- 0.6 -->
      <g transform="translate(348.340625 107.792464) scale(0.14 -0.14)">
       <use xlink:href="#DejaVuSans-30"/>
       <use xlink:href="#DejaVuSans-2e" x="63.623047"/>
       <use xlink:href="#DejaVuSans-36" x="95.410156"/>
      </g>
     </g>
    </g>
    <g id="ytick_11">
     <g id="line2d_25">
      <g>
       <use xlink:href="#m0a931b6c42" x="377.605" y="63.95141" style="stroke: #000000; stroke-width: 0.8"/>
      </g>
     </g>
     <g id="text_26">
      <!-- 0.8 -->
      <g transform="translate(348.340625 69.270317) scale(0.14 -0.14)">
       <use xlink:href="#DejaVuSans-30"/>
       <use xlink:href="#DejaVuSans-2e" x="63.623047"/>
       <use xlink:href="#DejaVuSans-38" x="95.410156"/>
      </g>
     </g>
    </g>
    <g id="ytick_12">
     <g id="line2d_26">
      <g>
       <use xlink:href="#m0a931b6c42" x="377.605" y="25.429263" style="stroke: #000000; stroke-width: 0.8"/>
      </g>
     </g>
     <g id="text_27">
      <!-- 1.0 -->
      <g transform="translate(348.340625 30.748169) scale(0.14 -0.14)">
       <use xlink:href="#DejaVuSans-31"/>
       <use xlink:href="#DejaVuSans-2e" x="63.623047"/>
       <use xlink:href="#DejaVuSans-30" x="95.410156"/>
      </g>
     </g>
    </g>
    <g id="text_28">
     <!-- Mean inhibitory activity -->
     <g transform="translate(341.429062 198.023438) rotate(-90) scale(0.14 -0.14)">
      <defs>
       <path id="DejaVuSans-68" d="M 3513 2113 
L 3513 0 
L 2938 0 
L 2938 2094 
Q 2938 2591 2744 2837 
Q 2550 3084 2163 3084 
Q 1697 3084 1428 2787 
Q 1159 2491 1159 1978 
L 1159 0 
L 581 0 
L 581 4863 
L 1159 4863 
L 1159 2956 
Q 1366 3272 1645 3428 
Q 1925 3584 2291 3584 
Q 2894 3584 3203 3211 
Q 3513 2838 3513 2113 
z
" transform="scale(0.015625)"/>
      </defs>
      <use xlink:href="#DejaVuSans-4d"/>
      <use xlink:href="#DejaVuSans-65" x="86.279297"/>
      <use xlink:href="#DejaVuSans-61" x="147.802734"/>
      <use xlink:href="#DejaVuSans-6e" x="209.082031"/>
      <use xlink:href="#DejaVuSans-20" x="272.460938"/>
      <use xlink:href="#DejaVuSans-69" x="304.248047"/>
      <use xlink:href="#DejaVuSans-6e" x="332.03125"/>
      <use xlink:href="#DejaVuSans-68" x="395.410156"/>
      <use xlink:href="#DejaVuSans-69" x="458.789062"/>
      <use xlink:href="#DejaVuSans-62" x="486.572266"/>
      <use xlink:href="#DejaVuSans-69" x="550.048828"/>
      <use xlink:href="#DejaVuSans-74" x="577.832031"/>
      <use xlink:href="#DejaVuSans-6f" x="617.041016"/>
      <use xlink:href="#DejaVuSans-72" x="678.222656"/>
      <use xlink:href="#DejaVuSans-79" x="719.335938"/>
      <use xlink:href="#DejaVuSans-20" x="778.515625"/>
      <use xlink:href="#DejaVuSans-61" x="810.302734"/>
      <use xlink:href="#DejaVuSans-63" x="871.582031"/>
      <use xlink:href="#DejaVuSans-74" x="926.5625"/>
      <use xlink:href="#DejaVuSans-69" x="965.771484"/>
      <use xlink:href="#DejaVuSans-76" x="993.554688"/>
      <use xlink:href="#DejaVuSans-69" x="1052.734375"/>
      <use xlink:href="#DejaVuSans-74" x="1080.517578"/>
      <use xlink:href="#DejaVuSans-79" x="1119.726562"/>
     </g>
    </g>
   </g>
   <g id="patch_6">
    <path d="M 377.605 218.04 
L 377.605 12.96 
" style="fill: none; stroke: #000000; stroke-width: 3; stroke-linejoin: miter; stroke-linecap: square"/>
   </g>
   <g id="patch_7">
    <path d="M 377.605 218.04 
L 635.04 218.04 
" style="fill: none; stroke: #000000; stroke-width: 3; stroke-linejoin: miter; stroke-linecap: square"/>
   </g>
  </g>
 </g>
 <defs>
  <clipPath id="pb949d87928">
   <rect x="60.085" y="12.96" width="257.435" height="205.08"/>
  </clipPath>
  <clipPath id="p84d6e64ebd">
   <rect x="377.605" y="12.96" width="257.435" height="205.08"/>
  </clipPath>
 </defs>
</svg>
